<svg xmlns="http://www.w3.org/2000/svg" width="122" height="122" viewBox="0 0 122 122">
  <g id="Grupo_1101519" data-name="Grupo 1101519" transform="translate(-724.781 -1923)">
    <g id="Elipse_11514" data-name="Elipse 11514" transform="translate(735.781 1934)" fill="#ffd69b" stroke="#ffeacc" stroke-width="11">
      <circle cx="50" cy="50" r="50" stroke="none"/>
      <circle cx="50" cy="50" r="55.5" fill="none"/>
    </g>
    <g id="_018-avi" data-name="018-avi" transform="translate(756.103 1941.005)">
      <path id="Trazado_930769" data-name="Trazado 930769" d="M142.352,216.505H88.058a1.272,1.272,0,0,1-1.272-1.272V158.374h56.838v56.859A1.272,1.272,0,0,1,142.352,216.505Z" transform="translate(-85.527 -131.775)" fill="#f6f1f1"/>
      <path id="Trazado_930770" data-name="Trazado 930770" d="M86.787,158.374v2.981h50.6a2.856,2.856,0,0,1,2.856,2.856v52.294h2.114a1.272,1.272,0,0,0,1.272-1.272V158.374Z" transform="translate(-85.527 -131.775)" fill="#efe7e4"/>
      <path id="Trazado_930771" data-name="Trazado 930771" d="M130.975,7.5H88.058a1.272,1.272,0,0,0-1.272,1.272V32.839h56.838v-17.4Z" transform="translate(-85.527 -6.24)" fill="#95dbb3"/>
      <path id="Trazado_930772" data-name="Trazado 930772" d="M366.955,56.836l5.036,3.347a3.051,3.051,0,0,1,1.362,2.541V72.17h3.386V54.77Z" transform="translate(-318.642 -45.571)" fill="#4d9f70"/>
      <path id="Trazado_930773" data-name="Trazado 930773" d="M349.9,7.5l2.56,9.636a1.062,1.062,0,0,0,1.311.75l8.778-2.447Z" transform="translate(-304.449 -6.24)" fill="#4d9f70"/>
      <path id="Trazado_930774" data-name="Trazado 930774" d="M194.747,248H166.868a1.238,1.238,0,0,1-1.238-1.238V207.039a1.238,1.238,0,0,1,1.238-1.238h27.878a1.238,1.238,0,0,1,1.238,1.238v39.724A1.238,1.238,0,0,1,194.747,248Z" transform="translate(256.58 -125.143) rotate(90)" fill="#95dbb3"/>
      <path id="Trazado_930775" data-name="Trazado 930775" d="M323.246,205.8h-3.179a1.239,1.239,0,0,1,1.238,1.239v39.724A1.239,1.239,0,0,1,320.067,248h3.179a1.239,1.239,0,0,0,1.238-1.239V207.039a1.238,1.238,0,0,0-1.238-1.238Z" transform="translate(256.58 -253.643) rotate(90)" fill="#4d9f70"/>
      <g id="Grupo_1101446" data-name="Grupo 1101446" transform="translate(44.758 50.304) rotate(90)">
        <path id="Trazado_930776" data-name="Trazado 930776" d="M233.938,253.642h-8.983a.868.868,0,0,1-.868-.868V242.52a.868.868,0,0,1,.868-.868h8.983a.868.868,0,0,1,.868.868v10.253A.868.868,0,0,1,233.938,253.642Z" transform="translate(-224.086 -241.652)" fill="#4d9f70"/>
        <path id="Trazado_930777" data-name="Trazado 930777" d="M233.938,361.823h-8.983a.868.868,0,0,1-.868-.868V350.7a.868.868,0,0,1,.868-.868h8.983a.868.868,0,0,1,.868.868v10.253A.868.868,0,0,1,233.938,361.823Z" transform="translate(-224.086 -331.664)" fill="#4d9f70"/>
      </g>
      <g id="Grupo_1101447" data-name="Grupo 1101447" transform="translate(0 0)">
        <path id="Trazado_930778" data-name="Trazado 930778" d="M137.385,73.337a1.259,1.259,0,0,0,1.26-1.26V9.2a1.26,1.26,0,0,0-.59-1.067L125.405.193a1.26,1.26,0,0,0-.67-.193H104.247a1.26,1.26,0,1,0,0,2.519h19.519l2.311,8.7a2.321,2.321,0,0,0,2.867,1.64l7.18-2V25.339H81.806V2.531a.012.012,0,0,1,.012-.012H99.211a1.26,1.26,0,1,0,0-2.519H81.818a2.534,2.534,0,0,0-2.531,2.531V83.458a2.534,2.534,0,0,0,2.531,2.532h54.294a2.535,2.535,0,0,0,2.532-2.532V77.114a1.26,1.26,0,1,0-2.519,0v6.344a.013.013,0,0,1-.012.012H81.818a.012.012,0,0,1-.012-.012v-55.6h54.319v44.22a1.259,1.259,0,0,0,1.259,1.26Zm-8.924-62.959-1.688-6.353L134.3,8.75Z" transform="translate(-79.287 0)"/>
        <path id="Trazado_930779" data-name="Trazado 930779" d="M218.713,248.66H227.7a2.131,2.131,0,0,0,2.128-2.128V236.279a2.131,2.131,0,0,0-2.128-2.128h-8.983a2.131,2.131,0,0,0-2.128,2.128v10.253A2.131,2.131,0,0,0,218.713,248.66Zm.391-11.99h8.2v9.471h-8.2Z" transform="translate(280.168 -167.541) rotate(90)"/>
        <path id="Trazado_930780" data-name="Trazado 930780" d="M216.585,354.713a2.13,2.13,0,0,0,2.128,2.128H227.7a2.13,2.13,0,0,0,2.128-2.128V344.46a2.131,2.131,0,0,0-2.128-2.128h-8.983a2.131,2.131,0,0,0-2.128,2.128Zm2.519-9.862h8.2v9.471h-8.2Z" transform="translate(370.18 -167.541) rotate(90)"/>
        <path id="Trazado_930791" data-name="Trazado 930791" d="M159.389,212.825a1.259,1.259,0,0,0-1.26,1.26v26.438a2.5,2.5,0,0,0,2.5,2.5h27.878a2.5,2.5,0,0,0,2.5-2.5V200.8a2.5,2.5,0,0,0-2.5-2.5H160.627a2.5,2.5,0,0,0-2.5,2.5v8.249a1.26,1.26,0,1,0,2.519,0V200.82h27.836V240.5H160.648V214.085A1.26,1.26,0,0,0,159.389,212.825Z" transform="translate(250.339 -118.902) rotate(90)"/>
        <path id="Trazado_931277" data-name="Trazado 931277" d="M9.316-11.328H7.311v9.88A1.818,1.818,0,0,1,6.93-.181a1.276,1.276,0,0,1-.983.413,1.3,1.3,0,0,1-1-.417,1.807,1.807,0,0,1-.385-1.262v-9.88H2.559a1.522,1.522,0,0,1-1.048-.311,1.054,1.054,0,0,1-.343-.821,1.042,1.042,0,0,1,.357-.835A1.547,1.547,0,0,1,2.559-13.6H9.316a1.541,1.541,0,0,1,1.062.315,1.062,1.062,0,0,1,.348.826,1.041,1.041,0,0,1-.353.821A1.559,1.559,0,0,1,9.316-11.328ZM24.4-5.529v2.607a2.74,2.74,0,0,1-.1.83,1.315,1.315,0,0,1-.376.561,3.539,3.539,0,0,1-.7.482,11.016,11.016,0,0,1-2.375.974,9.574,9.574,0,0,1-2.486.306A8.1,8.1,0,0,1,15.5-.25a6.01,6.01,0,0,1-2.2-1.4,6.185,6.185,0,0,1-1.4-2.227A8.324,8.324,0,0,1,11.423-6.8,8.537,8.537,0,0,1,11.9-9.7a5.96,5.96,0,0,1,1.392-2.236,6.108,6.108,0,0,1,2.236-1.406,8.574,8.574,0,0,1,2.987-.487,7.411,7.411,0,0,1,2.431.366,5.348,5.348,0,0,1,1.716.923,4.116,4.116,0,0,1,.993,1.178,2.393,2.393,0,0,1,.334,1.1,1.178,1.178,0,0,1-.385.886,1.292,1.292,0,0,1-.923.366,1.243,1.243,0,0,1-.571-.139,1.3,1.3,0,0,1-.459-.39,10.97,10.97,0,0,0-.863-1.206,2.784,2.784,0,0,0-.951-.687,3.629,3.629,0,0,0-1.526-.278,4.213,4.213,0,0,0-1.707.329,3.527,3.527,0,0,0-1.285.956A4.309,4.309,0,0,0,14.5-8.888a6.753,6.753,0,0,0-.283,2.013,5.519,5.519,0,0,0,1.1,3.683A3.812,3.812,0,0,0,18.381-1.9a6.25,6.25,0,0,0,1.8-.25,9.092,9.092,0,0,0,1.7-.714V-5.075H19.745a2.338,2.338,0,0,1-1.164-.232.84.84,0,0,1-.394-.789.968.968,0,0,1,.329-.751,1.288,1.288,0,0,1,.9-.3h3.126a3.989,3.989,0,0,1,.974.1,1.1,1.1,0,0,1,.645.455A1.855,1.855,0,0,1,24.4-5.529ZM35.349-1.54,34.7-3.247H29.171L28.521-1.5a6.106,6.106,0,0,1-.649,1.378,1.032,1.032,0,0,1-.881.357,1.292,1.292,0,0,1-.918-.38,1.165,1.165,0,0,1-.4-.863,1.924,1.924,0,0,1,.093-.575q.093-.3.306-.826l3.479-8.832.357-.914a4.62,4.62,0,0,1,.445-.886,1.809,1.809,0,0,1,.622-.571,1.905,1.905,0,0,1,.951-.218,1.926,1.926,0,0,1,.96.218,1.846,1.846,0,0,1,.622.561,3.937,3.937,0,0,1,.4.738q.162.394.413,1.053l3.553,8.776A4.411,4.411,0,0,1,38.29-1.03a1.206,1.206,0,0,1-.394.867,1.3,1.3,0,0,1-.951.394,1.233,1.233,0,0,1-.557-.116A1.14,1.14,0,0,1,36-.2a2.9,2.9,0,0,1-.339-.612Q35.479-1.225,35.349-1.54ZM29.894-5.316h4.063l-2.05-5.613Z" transform="translate(4.975 20.773)"/>
      </g>
    </g>
  </g>
</svg>
