<svg xmlns="http://www.w3.org/2000/svg" width="122" height="122" viewBox="0 0 122 122">
  <g id="Grupo_1100748" data-name="Grupo 1100748" transform="translate(-724.781 -1923)">
    <g id="Elipse_11514" data-name="Elipse 11514" transform="translate(735.781 1934)" fill="#ffd69b" stroke="#ffeacc" stroke-width="11">
      <circle cx="50" cy="50" r="50" stroke="none"/>
      <circle cx="50" cy="50" r="55.5" fill="none"/>
    </g>
    <g id="_042-jpg" data-name="042-jpg" transform="translate(756.103 1941.005)">
      <path id="Trazado_931150" data-name="Trazado 931150" d="M142.353,216.505H88.059a1.272,1.272,0,0,1-1.272-1.272V158.374h56.838v56.859A1.272,1.272,0,0,1,142.353,216.505Z" transform="translate(-85.527 -131.775)" fill="#f6f1f1"/>
      <path id="Trazado_931151" data-name="Trazado 931151" d="M86.787,158.374v2.981h50.6a2.856,2.856,0,0,1,2.856,2.856v52.294h2.114a1.272,1.272,0,0,0,1.272-1.272V158.374Z" transform="translate(-85.527 -131.775)" fill="#efe7e4"/>
      <path id="Trazado_931152" data-name="Trazado 931152" d="M130.976,7.5H88.059a1.272,1.272,0,0,0-1.272,1.272V32.839h56.838v-17.4Z" transform="translate(-85.527 -6.24)" fill="#80b4fb"/>
      <path id="Trazado_931153" data-name="Trazado 931153" d="M366.956,56.836l5.036,3.347a3.051,3.051,0,0,1,1.362,2.541V72.17h3.386V54.77Z" transform="translate(-318.642 -45.571)" fill="#61a2f9"/>
      <path id="Trazado_931154" data-name="Trazado 931154" d="M349.9,7.5l2.56,9.636a1.062,1.062,0,0,0,1.311.75l8.778-2.447Z" transform="translate(-304.449 -6.24)" fill="#3b66c1"/>
      <g id="Grupo_1101497" data-name="Grupo 1101497" transform="translate(9.692 41.175)">
        <path id="Trazado_931155" data-name="Trazado 931155" d="M136.993,245.167h39.974v28.978H136.993Z" transform="translate(-136.993 -245.167)" fill="#80b4fb"/>
        <path id="Trazado_931156" data-name="Trazado 931156" d="M354.856,245.167h3.385v28.978h-3.385Z" transform="translate(-318.266 -245.167)" fill="#61a2f9"/>
        <path id="Trazado_931157" data-name="Trazado 931157" d="M136.993,337.865V332.6l13.469-10.572a1.287,1.287,0,0,1,1.844.267l11.073,15.575Z" transform="translate(-136.993 -308.887)" fill="#78d0b1"/>
        <path id="Trazado_931158" data-name="Trazado 931158" d="M211.872,322.291a1.287,1.287,0,0,0-1.844-.267l-1.446,1.135,10.455,14.707h3.907Z" transform="translate(-196.56 -308.888)" fill="#66b49d"/>
        <path id="Trazado_931159" data-name="Trazado 931159" d="M269.837,346.347l6.423-7.093a1.287,1.287,0,0,1,1.78-.123l9.461,7.914v5.033H273.912Z" transform="translate(-247.526 -323.1)" fill="#78d0b1"/>
        <path id="Trazado_931160" data-name="Trazado 931160" d="M354.856,370.883v7.864h3.385v-5.033Z" transform="translate(-318.266 -349.769)" fill="#66b49d"/>
        <ellipse id="Elipse_11556" data-name="Elipse 11556" cx="2.443" cy="2.443" rx="2.443" ry="2.443" transform="translate(23.064 5.368)" fill="#f6e266"/>
      </g>
      <g id="Grupo_1101498" data-name="Grupo 1101498" transform="translate(0 0)">
        <path id="Trazado_931161" data-name="Trazado 931161" d="M138.054,8.132,125.405.193a1.261,1.261,0,0,0-.67-.193H104.247a1.26,1.26,0,1,0,0,2.519h19.519l2.311,8.7a2.322,2.322,0,0,0,2.867,1.64l7.18-2V25.339H81.806V2.532a.012.012,0,0,1,.012-.012H99.211a1.26,1.26,0,1,0,0-2.519H81.818a2.534,2.534,0,0,0-2.531,2.532V83.458a2.534,2.534,0,0,0,2.531,2.532h54.294a2.535,2.535,0,0,0,2.532-2.532V77.114a1.26,1.26,0,1,0-2.519,0v6.344a.013.013,0,0,1-.012.012H81.818a.012.012,0,0,1-.012-.012v-55.6h54.319v44.22a1.26,1.26,0,1,0,2.519,0V9.2a1.26,1.26,0,0,0-.59-1.067Zm-9.593,2.247-1.688-6.353L134.3,8.75Z" transform="translate(-79.287 0)"/>
        <path id="Trazado_931162" data-name="Trazado 931162" d="M116.924,41.468v9.458a1.136,1.136,0,0,1-.569,1c-.669.371-1.408-.318-1.454-.362a1.26,1.26,0,0,0-1.779,1.784,4.167,4.167,0,0,0,2.811,1.218,3.351,3.351,0,0,0,1.645-.437,3.656,3.656,0,0,0,1.866-3.2V41.468a1.26,1.26,0,1,0-2.519,0Z" transform="translate(-107.135 -33.455)"/>
        <path id="Trazado_931163" data-name="Trazado 931163" d="M235.524,42.726a4.632,4.632,0,0,1,2.6.795,1.26,1.26,0,1,0,1.41-2.088,7.177,7.177,0,1,0-4.013,13.126c3.749,0,6.367-2.951,6.367-7.176a1.26,1.26,0,0,0-1.26-1.26h-3.54a1.26,1.26,0,1,0,0,2.519h2.162c-.338,1.761-1.436,3.4-3.73,3.4a4.657,4.657,0,1,1,0-9.314Z" transform="translate(-203.313 -33.454)"/>
        <path id="Trazado_931164" data-name="Trazado 931164" d="M168.5,40.208a1.261,1.261,0,0,0-1.26,1.26V53.3a1.26,1.26,0,1,0,2.519,0V49.414c.715,0,1.566-.008,2.035-.008a4.6,4.6,0,1,0,0-9.2Zm5.44,4.6a2.142,2.142,0,0,1-2.145,2.08c-.466,0-1.306,0-2.019.008,0-.735-.008-1.609-.008-2.087,0-.4,0-1.312,0-2.08h2.031A2.142,2.142,0,0,1,173.938,44.807Z" transform="translate(-152.467 -33.455)"/>
        <path id="Trazado_931165" data-name="Trazado 931165" d="M130.753,237.667a1.26,1.26,0,0,0-1.26,1.26V267.9a1.259,1.259,0,0,0,1.26,1.26h39.974a1.259,1.259,0,0,0,1.26-1.26V238.927a1.26,1.26,0,0,0-1.26-1.26Zm1.26,25.581,5.621-4.412a1.26,1.26,0,0,0-1.555-1.982l-4.066,3.191V240.186h37.455v19.99l-7.393-6.184a2.539,2.539,0,0,0-3.522.244l-5.371,5.931-6.09-8.566a2.547,2.547,0,0,0-3.648-.528l-3.4,2.671a1.26,1.26,0,1,0,1.555,1.982l3.4-2.671a.023.023,0,0,1,.021-.005.024.024,0,0,1,.019.011l9.658,13.585H132.012Zm25.776,3.4-3.111-4.376,5.743-6.342a.028.028,0,0,1,.038,0l9.009,7.537v3.184Z" transform="translate(-121.061 -197.751)"/>
        <path id="Trazado_931166" data-name="Trazado 931166" d="M270.525,277.037a3.7,3.7,0,1,0-3.7-3.7A3.707,3.707,0,0,0,270.525,277.037Zm0-4.887a1.184,1.184,0,1,1-1.184,1.184A1.185,1.185,0,0,1,270.525,272.15Z" transform="translate(-235.326 -224.347)"/>
      </g>
    </g>
  </g>
</svg>
