<svg xmlns="http://www.w3.org/2000/svg" width="85" height="43" viewBox="0 0 85 43">
  <g id="Grupo_1101399" data-name="Grupo 1101399" transform="translate(-180.051 -492)">
    <rect id="Rectángulo_403149" data-name="Rectángulo 403149" width="85" height="43" transform="translate(180.051 492)" fill="#d6d8fc"/>
    <g id="Layer_2_1_" transform="translate(177.61 496.492)">
      <g id="Layer_1-2" transform="translate(30.4)">
        <g id="Ai" transform="translate(0)">
          <g id="File">
            <path id="Trazado_929955" data-name="Trazado 929955" d="M94.119,0H81.425A2.225,2.225,0,0,0,79.2,2.225V31.79a2.23,2.23,0,0,0,2.225,2.225H103.71a2.23,2.23,0,0,0,2.225-2.225l-.06-21.959Z" transform="translate(-75.959)" fill="#7e3a27"/>
            <g id="Grupo_1101398" data-name="Grupo 1101398">
              <path id="Trazado_929956" data-name="Trazado 929956" d="M31.3,262H49.085a.9.9,0,0,1,.9.9v7.984a.9.9,0,0,1-.9.9H31.3a.9.9,0,0,1-.9-.9V262.9A.9.9,0,0,1,31.3,262Z" transform="translate(-30.4 -244.597)" fill="#ff7f18"/>
              <path id="Trazado_929957" data-name="Trazado 929957" d="M303.333,0,303.3,9.6s.033.232.233.232H315.09Z" transform="translate(-285.173)" fill="#ff7f18"/>
            </g>
          </g>
          <path id="Trazado_929958" data-name="Trazado 929958" d="M118.743,299l-.418-1.216H115.8L115.382,299H114l2.292-6.5h1.548l2.285,6.5Zm-2.6-2.219h1.847l-.93-2.7Z" transform="translate(-108.447 -273.071)"/>
          <path id="Trazado_929959" data-name="Trazado 929959" d="M219.48,281.9a.794.794,0,1,1-.232-.565A.788.788,0,0,1,219.48,281.9Zm-1.448,6.456v-5.141h1.309v5.141Z" transform="translate(-205.444 -262.427)"/>
        </g>
      </g>
    </g>
  </g>
</svg>
