<svg xmlns="http://www.w3.org/2000/svg" width="70" height="82" viewBox="0 0 70 82">
  <g id="Grupo_1101280" data-name="Grupo 1101280" transform="translate(-195 -585)">
    <rect id="Rectángulo_403099" data-name="Rectángulo 403099" width="70" height="82" transform="translate(195 585)" fill="#ffd69b"/>
    <g id="Grupo_1101279" data-name="Grupo 1101279" transform="translate(204.168 600.532)">
      <path id="Trazado_929062" data-name="Trazado 929062" d="M2.3,11.982V48.154a.783.783,0,0,0,.782.782H28.315a.782.782,0,0,0,0-1.565H3.864V12.764h8.409a.783.783,0,0,0,.782-.782V3.565H38.33V22.289a.782.782,0,0,0,1.565,0V2.782A.783.783,0,0,0,39.113,2H12.273l-.008,0a.786.786,0,0,0-.292.059.769.769,0,0,0-.237.157c-.005,0-.013.006-.017.012l-9.191,9.2a.309.309,0,0,0-.017.027.781.781,0,0,0-.151.228.793.793,0,0,0-.06.3v0Zm2.67-.782,6.522-6.527V11.2Z" transform="translate(0 0)" fill="#4546df"/>
      <path id="Trazado_929063" data-name="Trazado 929063" d="M11.712,22.8H34.241a.782.782,0,1,0,0-1.565H11.712a.782.782,0,1,0,0,1.565Z" transform="translate(-1.879 -4.188)" fill="#4546df"/>
      <path id="Trazado_929064" data-name="Trazado 929064" d="M32.132,30.174a.783.783,0,0,0-.782-.782H11.712a.782.782,0,1,0,0,1.565H31.35A.783.783,0,0,0,32.132,30.174Z" transform="translate(-1.879 -5.964)" fill="#4546df"/>
      <path id="Trazado_929065" data-name="Trazado 929065" d="M25.874,38.331a.783.783,0,0,0-.782-.782H11.712a.782.782,0,1,0,0,1.565H25.091A.783.783,0,0,0,25.874,38.331Z" transform="translate(-1.879 -7.74)" fill="#4546df"/>
      <path id="Trazado_929066" data-name="Trazado 929066" d="M11.712,45.706a.782.782,0,1,0,0,1.565h12.1a.782.782,0,1,0,0-1.565Z" transform="translate(-1.879 -9.516)" fill="#4546df"/>
      <path id="Trazado_929067" data-name="Trazado 929067" d="M44.075,40.375v4h-4a.782.782,0,0,0,0,1.565h4v4a.782.782,0,1,0,1.565,0v-4h4a.782.782,0,0,0,0-1.565h-4v-4a.782.782,0,0,0-1.565,0Z" transform="translate(-8.055 -8.185)" fill="#4546df"/>
      <path id="Trazado_929068" data-name="Trazado 929068" d="M31.112,43.376A11.964,11.964,0,1,0,43.076,31.412,11.978,11.978,0,0,0,31.112,43.376Zm22.364,0a10.4,10.4,0,1,1-10.4-10.4A10.412,10.412,0,0,1,53.476,43.376Z" transform="translate(-6.273 -6.404)" fill="#4546df"/>
    </g>
  </g>
</svg>
