<svg xmlns="http://www.w3.org/2000/svg" width="122" height="122" viewBox="0 0 122 122">
  <g id="Grupo_1101516" data-name="Grupo 1101516" transform="translate(-724.781 -1923)">
    <g id="Elipse_11514" data-name="Elipse 11514" transform="translate(735.781 1934)" fill="#ffd69b" stroke="#ffeacc" stroke-width="11">
      <circle cx="50" cy="50" r="50" stroke="none"/>
      <circle cx="50" cy="50" r="55.5" fill="none"/>
    </g>
    <g id="_023-iso" data-name="023-iso" transform="translate(756.603 1941.006)">
      <path id="Trazado_930850" data-name="Trazado 930850" d="M142.352,216.505H88.058a1.272,1.272,0,0,1-1.272-1.272V158.374h56.838v56.859A1.272,1.272,0,0,1,142.352,216.505Z" transform="translate(-85.527 -131.775)" fill="#f6f1f1"/>
      <path id="Trazado_930851" data-name="Trazado 930851" d="M86.787,158.374v2.981h50.6a2.856,2.856,0,0,1,2.856,2.856v52.294h2.114a1.272,1.272,0,0,0,1.272-1.272V158.374Z" transform="translate(-85.527 -131.775)" fill="#efe7e4"/>
      <path id="Trazado_930852" data-name="Trazado 930852" d="M130.975,7.5H88.058a1.272,1.272,0,0,0-1.272,1.272V32.839h56.838v-17.4Z" transform="translate(-85.527 -6.24)" fill="#f6e266"/>
      <path id="Trazado_930853" data-name="Trazado 930853" d="M366.955,56.836l5.036,3.347a3.051,3.051,0,0,1,1.362,2.541V72.17h3.386V54.77Z" transform="translate(-318.642 -45.571)" fill="#f1d333"/>
      <path id="Trazado_930854" data-name="Trazado 930854" d="M349.9,7.5l2.56,9.636a1.062,1.062,0,0,0,1.311.75l8.778-2.447Z" transform="translate(-304.449 -6.24)" fill="#ecc32e"/>
      <g id="Grupo_1101457" data-name="Grupo 1101457" transform="translate(11.902 37.888)">
        <path id="Trazado_930855" data-name="Trazado 930855" d="M167.933,225.6a17.776,17.776,0,1,0,17.776,17.776A17.776,17.776,0,0,0,167.933,225.6Zm0,22.395a4.619,4.619,0,1,1,4.619-4.619A4.619,4.619,0,0,1,167.933,247.99Z" transform="translate(-150.157 -225.595)" fill="#f6e266"/>
        <g id="Grupo_1101456" data-name="Grupo 1101456" transform="translate(11.749)">
          <path id="Trazado_930856" data-name="Trazado 930856" d="M226.141,225.6a17.745,17.745,0,0,0-6.027,1.049l4.461,12.381a4.632,4.632,0,0,1,3.132,0l4.461-12.381A17.74,17.74,0,0,0,226.141,225.6Z" transform="translate(-220.114 -225.595)" fill="#fbf4af"/>
          <path id="Trazado_930857" data-name="Trazado 930857" d="M226.141,370.745a17.744,17.744,0,0,0,6.027-1.049l-4.461-12.381a4.631,4.631,0,0,1-3.132,0L220.114,369.7a17.743,17.743,0,0,0,6.027,1.049Z" transform="translate(-220.114 -335.193)" fill="#fbf4af"/>
        </g>
      </g>
      <g id="Grupo_1101458" data-name="Grupo 1101458" transform="translate(0 0)">
        <path id="Trazado_930858" data-name="Trazado 930858" d="M138.054,8.132,125.405.193a1.26,1.26,0,0,0-.67-.193H104.247a1.26,1.26,0,1,0,0,2.519h19.519l2.311,8.7a2.321,2.321,0,0,0,2.867,1.64l7.18-2V25.339H81.806V2.532a.012.012,0,0,1,.012-.012H99.211a1.26,1.26,0,1,0,0-2.519H81.818a2.534,2.534,0,0,0-2.531,2.532V83.458a2.534,2.534,0,0,0,2.531,2.531h54.294a2.534,2.534,0,0,0,2.532-2.531V77.114a1.26,1.26,0,1,0-2.519,0v6.344a.012.012,0,0,1-.012.012H81.818a.012.012,0,0,1-.012-.012v-55.6h54.319v44.22a1.26,1.26,0,1,0,2.519,0V9.2a1.26,1.26,0,0,0-.59-1.067Zm-9.593,2.247-1.688-6.353L134.3,8.751Z" transform="translate(-79.287 0)"/>
        <path id="Trazado_930862" data-name="Trazado 930862" d="M144.255,233.443a1.26,1.26,0,0,0-1.419,1.077,19.269,19.269,0,0,0-.179,2.61,19.027,19.027,0,1,0,1.775-8.034,1.26,1.26,0,0,0,2.283,1.064,16.573,16.573,0,0,1,8.213-8.087l3.634,10.084a5.872,5.872,0,0,0,0,9.944L154.926,252.2a16.54,16.54,0,0,1-9.75-15.066,16.728,16.728,0,0,1,.156-2.267A1.26,1.26,0,0,0,144.255,233.443Zm33.954,3.687a16.54,16.54,0,0,1-9.75,15.066L164.823,242.1a5.872,5.872,0,0,0,0-9.944l3.637-10.094A16.54,16.54,0,0,1,178.209,237.13ZM157.3,221.217a16.423,16.423,0,0,1,8.792-.008L162.453,231.3a5.716,5.716,0,0,0-1.522,0Zm4.395,12.554a3.359,3.359,0,1,1-3.359,3.359A3.363,3.363,0,0,1,161.693,233.771Zm-.761,9.187a5.714,5.714,0,0,0,1.522,0l3.637,10.094a16.538,16.538,0,0,1-8.8,0Z" transform="translate(-132.014 -181.465)"/>
        <path id="Trazado_931274" data-name="Trazado 931274" d="M6.763-5.3H4.24v3.85A1.8,1.8,0,0,1,3.85-.195a1.274,1.274,0,0,1-.983.427,1.284,1.284,0,0,1-1-.422,1.794,1.794,0,0,1-.38-1.239V-11.912a1.714,1.714,0,0,1,.417-1.3,1.9,1.9,0,0,1,1.327-.39H6.763a9.263,9.263,0,0,1,2.412.241,3.592,3.592,0,0,1,1.443.77,3.472,3.472,0,0,1,.923,1.317,4.637,4.637,0,0,1,.315,1.753,3.874,3.874,0,0,1-1.28,3.15A5.823,5.823,0,0,1,6.763-5.3ZM6.1-11.532H4.24v4.156H6.1a5.542,5.542,0,0,0,1.628-.2,1.9,1.9,0,0,0,1-.668,1.993,1.993,0,0,0,.343-1.215,2.061,2.061,0,0,0-.529-1.466A3.524,3.524,0,0,0,6.1-11.532ZM12.889-1.447V-12.163a1.806,1.806,0,0,1,.38-1.252,1.269,1.269,0,0,1,.983-.417,1.313,1.313,0,0,1,1.007.413,1.789,1.789,0,0,1,.385,1.257V-1.447a1.807,1.807,0,0,1-.385,1.262,1.305,1.305,0,0,1-1.007.417,1.267,1.267,0,0,1-.979-.422A1.809,1.809,0,0,1,12.889-1.447ZM28.931-4.3a3.626,3.626,0,0,1-.32,1.406A5.07,5.07,0,0,1,27.6-1.406,5.136,5.136,0,0,1,25.851-.223a6.3,6.3,0,0,1-2.486.455,8.688,8.688,0,0,1-1.958-.2,5.5,5.5,0,0,1-1.6-.635,5.4,5.4,0,0,1-1.322-1.136,6.754,6.754,0,0,1-.918-1.433A7.474,7.474,0,0,1,17-4.871a9.229,9.229,0,0,1-.19-1.911,8.478,8.478,0,0,1,.478-2.941,6.273,6.273,0,0,1,1.368-2.222A5.969,5.969,0,0,1,20.74-13.35a6.759,6.759,0,0,1,2.551-.482,6.374,6.374,0,0,1,2.941.659,5.323,5.323,0,0,1,1.976,1.628,3.215,3.215,0,0,1,.687,1.832,1.194,1.194,0,0,1-.334.835,1.059,1.059,0,0,1-.807.362,1.115,1.115,0,0,1-.793-.25,3.469,3.469,0,0,1-.589-.863A4.15,4.15,0,0,0,25.1-11.142a3.092,3.092,0,0,0-1.8-.5,3.253,3.253,0,0,0-2.7,1.29A5.84,5.84,0,0,0,19.6-6.689a6.805,6.805,0,0,0,.445,2.639,3.332,3.332,0,0,0,1.262,1.573,3.483,3.483,0,0,0,1.911.52,3.355,3.355,0,0,0,2.009-.589,3.558,3.558,0,0,0,1.239-1.73,2.936,2.936,0,0,1,.436-.877.986.986,0,0,1,.835-.339,1.167,1.167,0,0,1,.844.343A1.143,1.143,0,0,1,28.931-4.3Zm7.929-7.032H34.855v9.88a1.818,1.818,0,0,1-.38,1.266,1.276,1.276,0,0,1-.983.413,1.3,1.3,0,0,1-1-.417,1.807,1.807,0,0,1-.385-1.262v-9.88H30.1a1.522,1.522,0,0,1-1.048-.311,1.054,1.054,0,0,1-.343-.821,1.042,1.042,0,0,1,.357-.835A1.547,1.547,0,0,1,30.1-13.6H36.86a1.541,1.541,0,0,1,1.062.315,1.062,1.062,0,0,1,.348.826,1.041,1.041,0,0,1-.353.821A1.559,1.559,0,0,1,36.86-11.328Z" transform="translate(4.72 20.585)"/>
      </g>
    </g>
  </g>
</svg>
