<svg xmlns="http://www.w3.org/2000/svg" width="122" height="122" viewBox="0 0 122 122">
  <g id="Grupo_1101517" data-name="Grupo 1101517" transform="translate(-724.781 -1923)">
    <g id="Elipse_11514" data-name="Elipse 11514" transform="translate(735.781 1934)" fill="#ffd69b" stroke="#ffeacc" stroke-width="11">
      <circle cx="50" cy="50" r="50" stroke="none"/>
      <circle cx="50" cy="50" r="55.5" fill="none"/>
    </g>
    <g id="_043-psd" data-name="043-psd" transform="translate(756.103 1941.005)">
      <path id="Trazado_931167" data-name="Trazado 931167" d="M142.352,216.505H88.058a1.272,1.272,0,0,1-1.272-1.272V158.374h56.838v56.859A1.272,1.272,0,0,1,142.352,216.505Z" transform="translate(-85.526 -131.775)" fill="#f6f1f1"/>
      <path id="Trazado_931168" data-name="Trazado 931168" d="M86.787,158.374v2.981h50.6a2.856,2.856,0,0,1,2.856,2.856v52.294h2.114a1.272,1.272,0,0,0,1.272-1.272V158.374Z" transform="translate(-85.527 -131.775)" fill="#efe7e4"/>
      <path id="Trazado_931169" data-name="Trazado 931169" d="M130.975,7.5H88.058a1.272,1.272,0,0,0-1.272,1.272V32.839h56.838v-17.4Z" transform="translate(-85.526 -6.24)" fill="#80b4fb"/>
      <path id="Trazado_931170" data-name="Trazado 931170" d="M366.955,56.836l5.036,3.347a3.051,3.051,0,0,1,1.362,2.541V72.17h3.386V54.77Z" transform="translate(-318.641 -45.571)" fill="#61a2f9"/>
      <path id="Trazado_931171" data-name="Trazado 931171" d="M349.9,7.5l2.56,9.636a1.062,1.062,0,0,0,1.311.75l8.778-2.447Z" transform="translate(-304.448 -6.24)" fill="#3b66c1"/>
      <g id="Grupo_1101499" data-name="Grupo 1101499" transform="translate(13.18 41.207)">
        <path id="Trazado_931172" data-name="Trazado 931172" d="M179.292,260.873l5.7.361a24.7,24.7,0,0,0,1.64-2.277l8.652-13.6-19.458,5.05a24.676,24.676,0,0,0-18.064,19.389l5.941.509a24.669,24.669,0,0,0,16.106-4.266.674.674,0,0,0,.243-.814l-1.421-3.419a.672.672,0,0,1,.663-.929Z" transform="translate(-157.761 -245.353)" fill="#80b4fb"/>
      </g>
      <g id="Grupo_1101500" data-name="Grupo 1101500" transform="translate(0 0)">
        <path id="Trazado_931173" data-name="Trazado 931173" d="M138.054,8.132,125.4.193a1.259,1.259,0,0,0-.67-.193H104.246a1.26,1.26,0,1,0,0,2.519h19.519l2.311,8.7a2.321,2.321,0,0,0,2.867,1.64l7.18-2V25.339H81.805V2.532a.012.012,0,0,1,.012-.012H99.21A1.26,1.26,0,1,0,99.21,0H81.818a2.535,2.535,0,0,0-2.532,2.532V83.458a2.534,2.534,0,0,0,2.532,2.532h54.294a2.535,2.535,0,0,0,2.532-2.532V77.114a1.26,1.26,0,0,0-2.519,0v6.344a.012.012,0,0,1-.012.012H81.818a.012.012,0,0,1-.012-.012v-55.6h54.319v44.22a1.26,1.26,0,0,0,2.519,0V9.2a1.26,1.26,0,0,0-.59-1.067Zm-9.593,2.247-1.688-6.353L134.3,8.75Z" transform="translate(-79.286 0)"/>
        <path id="Trazado_931174" data-name="Trazado 931174" d="M238.959,53.806a1.312,1.312,0,0,0,1.283,1.446h0c.1,0,2.416-.009,3.341-.025,3.349-.059,5.78-2.992,5.78-6.976,0-4.188-2.37-7-5.9-7h-3.252a1.26,1.26,0,0,0-1.26,1.262v.009h0V53.806Zm4.512-10.037c2.49,0,3.378,2.315,3.378,4.482,0,2.119-1.034,4.417-3.3,4.457-.467.008-1.323.015-2.047.019,0-1.357-.011-3.458-.011-4.489,0-.86,0-3.059-.006-4.469Z" transform="translate(-212.142 -34.322)"/>
        <path id="Trazado_931175" data-name="Trazado 931175" d="M176.949,42.859a4.165,4.165,0,0,1,3.459.793,1.26,1.26,0,0,0,1.616-1.933,6.663,6.663,0,0,0-5.8-1.273,3.945,3.945,0,0,0-2.862,3.181,3.514,3.514,0,0,0,1.755,3.6c.068.03,1.691.753,3.52,1.427,1.206.445,1.823,1.121,1.692,1.856a2.216,2.216,0,0,1-2.283,1.526,4.343,4.343,0,0,1-3.19-1.34,1.26,1.26,0,1,0-1.867,1.692,6.9,6.9,0,0,0,5.057,2.168,4.662,4.662,0,0,0,4.763-3.6c.279-1.562-.441-3.608-3.3-4.662-1.489-.549-2.872-1.148-3.259-1.317a1.035,1.035,0,0,1-.394-.992A1.4,1.4,0,0,1,176.949,42.859Z" transform="translate(-156.978 -33.454)"/>
        <path id="Trazado_931176" data-name="Trazado 931176" d="M117.488,40.207a1.261,1.261,0,0,0-1.26,1.26V53.3a1.26,1.26,0,0,0,2.519,0V49.413c.715,0,1.566-.008,2.035-.008a4.6,4.6,0,1,0,0-9.2h-3.295Zm5.44,4.6a2.142,2.142,0,0,1-2.145,2.08c-.466,0-1.306,0-2.019.008,0-.735-.008-1.609-.008-2.087,0-.4,0-1.312,0-2.08h2.031A2.142,2.142,0,0,1,122.928,44.806Z" transform="translate(-110.024 -33.454)"/>
        <path id="Trazado_931177" data-name="Trazado 931177" d="M157.32,255.785a25.99,25.99,0,0,0,1.723-2.393l8.652-13.6a1.26,1.26,0,0,0-1.379-1.9L151,241.868a1.26,1.26,0,0,0,.633,2.439l12.225-3.173-6.936,10.906c-.355.558-.743,1.112-1.158,1.654l-5.038-.319a1.932,1.932,0,0,0-1.906,2.669l1.237,2.975A23.472,23.472,0,0,1,135.16,262.8l-3.059-.262c1.382-1.187,2.982-2.494,4.8-3.879l3.82.708a1.26,1.26,0,1,0,.459-2.477l-1.5-.279a123.621,123.621,0,0,1,15.669-9.507,1.26,1.26,0,1,0-1.146-2.244c-3.543,1.81-6.769,3.656-9.684,5.473l.285-1.538a1.26,1.26,0,0,0-2.477-.459l-.716,3.866a113.619,113.619,0,0,0-10.119,7.52,23.413,23.413,0,0,1,15.3-14.148,1.26,1.26,0,1,0-.708-2.418,25.92,25.92,0,0,0-17.89,18.709l-1.643-.6a1.26,1.26,0,0,0-.869,2.365l1.03.379c-1.933,1.868-2.953,3.053-3.08,3.2a1.259,1.259,0,0,0,1.919,1.632c.029-.034.939-1.089,2.726-2.818a1.259,1.259,0,0,0,2.414-.665l-.069-.415,4.327.371q1.1.094,2.2.094a26.015,26.015,0,0,0,14.729-4.578,1.945,1.945,0,0,0,.692-2.335l-1.059-2.547,4.755.3A1.266,1.266,0,0,0,157.32,255.785Z" transform="translate(-115.931 -197.905)"/>
      </g>
    </g>
  </g>
</svg>
