<svg xmlns="http://www.w3.org/2000/svg" width="122" height="122" viewBox="0 0 122 122">
  <g id="Grupo_1101518" data-name="Grupo 1101518" transform="translate(-724.781 -1923)">
    <g id="Elipse_11514" data-name="Elipse 11514" transform="translate(735.781 1934)" fill="#ffd69b" stroke="#ffeacc" stroke-width="11">
      <circle cx="50" cy="50" r="50" stroke="none"/>
      <circle cx="50" cy="50" r="55.5" fill="none"/>
    </g>
    <g id="_028-png" data-name="028-png" transform="translate(756.103 1941.005)">
      <path id="Trazado_930919" data-name="Trazado 930919" d="M142.352,216.505H88.058a1.272,1.272,0,0,1-1.272-1.272V158.374h56.838v56.859A1.272,1.272,0,0,1,142.352,216.505Z" transform="translate(-85.527 -131.775)" fill="#f6f1f1"/>
      <path id="Trazado_930920" data-name="Trazado 930920" d="M86.787,158.374v2.981h50.6a2.856,2.856,0,0,1,2.856,2.856v52.294h2.114a1.272,1.272,0,0,0,1.272-1.272V158.374Z" transform="translate(-85.527 -131.775)" fill="#efe7e4"/>
      <path id="Trazado_930921" data-name="Trazado 930921" d="M130.975,7.5H88.058a1.272,1.272,0,0,0-1.272,1.272V32.839h56.838v-17.4Z" transform="translate(-85.527 -6.24)" fill="#dd636e"/>
      <path id="Trazado_930922" data-name="Trazado 930922" d="M366.955,56.836l5.036,3.347a3.051,3.051,0,0,1,1.362,2.541V72.17h3.386V54.77Z" transform="translate(-318.642 -45.571)" fill="#da4a54"/>
      <path id="Trazado_930923" data-name="Trazado 930923" d="M349.9,7.5l2.56,9.636a1.062,1.062,0,0,0,1.311.75l8.778-2.447Z" transform="translate(-304.449 -6.24)" fill="#d82e3d"/>
      <path id="Trazado_930924" data-name="Trazado 930924" d="M143.538,215.424h37.775v38.968H143.538Z" transform="translate(-132.747 -179.244)" fill="#efe7e4"/>
      <g id="Grupo_1101468" data-name="Grupo 1101468" transform="translate(10.814 36.18)">
        <path id="Trazado_930925" data-name="Trazado 930925" d="M277.643,354.64h7.5v7.794h-7.5Z" transform="translate(-255.143 -331.259)" fill="#665e66"/>
        <path id="Trazado_930926" data-name="Trazado 930926" d="M277.643,261.83h7.5v7.794h-7.5Z" transform="translate(-255.143 -254.036)" fill="#665e66"/>
        <path id="Trazado_930927" data-name="Trazado 930927" d="M232.987,215.424h7.5v7.794h-7.5Z" transform="translate(-217.987 -215.424)" fill="#665e66"/>
        <path id="Trazado_930928" data-name="Trazado 930928" d="M232.987,308.235h7.5v7.794h-7.5Z" transform="translate(-217.987 -292.648)" fill="#665e66"/>
        <path id="Trazado_930929" data-name="Trazado 930929" d="M188.33,354.64h7.5v7.794h-7.5Z" transform="translate(-180.83 -331.259)" fill="#665e66"/>
        <path id="Trazado_930930" data-name="Trazado 930930" d="M322.3,215.424h7.5v7.794h-7.5Z" transform="translate(-292.299 -215.424)" fill="#665e66"/>
        <path id="Trazado_930931" data-name="Trazado 930931" d="M188.33,261.83h7.5v7.794h-7.5Z" transform="translate(-180.83 -254.036)" fill="#665e66"/>
        <path id="Trazado_930932" data-name="Trazado 930932" d="M232.987,401.045h7.5v7.794h-7.5Z" transform="translate(-217.987 -369.87)" fill="#665e66"/>
        <path id="Trazado_930933" data-name="Trazado 930933" d="M322.3,401.045h7.5v7.794h-7.5Z" transform="translate(-292.299 -369.87)" fill="#665e66"/>
        <path id="Trazado_930934" data-name="Trazado 930934" d="M143.674,215.424h7.5v7.794h-7.5Z" transform="translate(-143.674 -215.424)" fill="#665e66"/>
        <path id="Trazado_930935" data-name="Trazado 930935" d="M322.3,308.235h7.5v7.794h-7.5Z" transform="translate(-292.299 -292.648)" fill="#665e66"/>
        <path id="Trazado_930936" data-name="Trazado 930936" d="M143.674,308.235h7.5v7.794h-7.5Z" transform="translate(-143.674 -292.648)" fill="#665e66"/>
        <path id="Trazado_930937" data-name="Trazado 930937" d="M143.674,401.045h7.5v7.794h-7.5Z" transform="translate(-143.674 -369.87)" fill="#665e66"/>
      </g>
      <g id="Grupo_1101469" data-name="Grupo 1101469" transform="translate(0 0)">
        <path id="Trazado_930938" data-name="Trazado 930938" d="M138.054,8.132,125.405.193a1.26,1.26,0,0,0-.67-.193H104.247a1.26,1.26,0,1,0,0,2.519h19.519l2.311,8.7a2.321,2.321,0,0,0,2.867,1.64l7.18-2V25.339H81.806V2.532a.012.012,0,0,1,.012-.012H99.211a1.26,1.26,0,1,0,0-2.519H81.818a2.534,2.534,0,0,0-2.531,2.532V83.458a2.534,2.534,0,0,0,2.531,2.531h54.294a2.534,2.534,0,0,0,2.532-2.531V77.114a1.26,1.26,0,1,0-2.519,0v6.344a.012.012,0,0,1-.012.012H81.818a.012.012,0,0,1-.012-.012v-55.6h54.319v44.22a1.26,1.26,0,1,0,2.519,0V9.2a1.26,1.26,0,0,0-.59-1.067Zm-9.593,2.247-1.688-6.353L134.3,8.751Z" transform="translate(-79.287 0)"/>
        <path id="Trazado_930939" data-name="Trazado 930939" d="M176.861,40.286a1.26,1.26,0,0,0-.885,1.2V53.3a1.26,1.26,0,1,0,2.519,0V45.529l5.69,8.24a1.419,1.419,0,0,0,1.6.6,1.48,1.48,0,0,0,1-1.476l-.111-11.435a1.26,1.26,0,0,0-1.259-1.248h-.012a1.26,1.26,0,0,0-1.248,1.272l.077,7.928-5.962-8.634A1.26,1.26,0,0,0,176.861,40.286Z" transform="translate(-159.737 -33.454)"/>
        <path id="Trazado_930940" data-name="Trazado 930940" d="M251.73,42.726a4.631,4.631,0,0,1,2.6.795,1.26,1.26,0,0,0,1.41-2.088A7.177,7.177,0,1,0,251.73,54.56c3.749,0,6.367-2.951,6.367-7.176a1.259,1.259,0,0,0-1.26-1.26H253.3a1.26,1.26,0,1,0,0,2.519h2.163c-.338,1.761-1.436,3.4-3.73,3.4a4.657,4.657,0,1,1,0-9.314Z" transform="translate(-216.798 -33.454)"/>
        <path id="Trazado_930941" data-name="Trazado 930941" d="M117.488,40.208a1.261,1.261,0,0,0-1.26,1.26V53.3a1.26,1.26,0,0,0,2.519,0V49.414c.715,0,1.566-.008,2.035-.008a4.6,4.6,0,1,0,0-9.2Zm5.44,4.6a2.141,2.141,0,0,1-2.145,2.08c-.466,0-1.306,0-2.019.008-.011-2.124,0-1.494-.012-4.167h2.032A2.141,2.141,0,0,1,122.928,44.807Z" transform="translate(-110.024 -33.455)"/>
        <path id="Trazado_930942" data-name="Trazado 930942" d="M137.3,207.925a1.259,1.259,0,0,0-1.26,1.26v38.968a1.259,1.259,0,0,0,1.26,1.26h37.775a1.259,1.259,0,0,0,1.26-1.26V209.185a1.259,1.259,0,0,0-1.26-1.26Zm36.516,15.587h-5.234v-5.274h5.234Zm-27.733,7.794v-5.274h4.981v5.274Zm4.981-7.794h-4.981v-5.274h4.981Zm-7.5,7.794h-4.981v-5.274h4.981Zm2.519,2.519h4.981V239.1h-4.981Zm7.5-7.794h4.981v5.274h-4.981Zm7.5,5.275v-5.274h4.981v5.274Zm4.981-7.794h-4.981v-5.274h4.981Zm-4.981,10.313h4.981V239.1h-4.981Zm7.5-7.794h4.981v5.274h-4.981Zm-2.519-10.313h-4.981v-5.274h4.981Zm-7.5,7.794h-4.981v-5.274h4.981Zm-7.5-7.794h-4.981v-5.274h4.981Zm-7.5,7.794h-5v-5.274h5Zm-5,10.313h5V239.1h-5Zm7.523,7.793h4.981v5.274h-4.981Zm7.5-7.793h4.981V239.1h-4.981Zm7.5,7.793h4.981v5.274h-4.981Zm7.5-7.793h5.234V239.1h-5.234Zm4.981-23.381v5.274h-4.981v-5.274Zm-15,0v5.274h-4.981v-5.274Zm-15,0v5.274h-4.981v-5.274Zm-4.981,36.449v-5.274h4.981v5.274Zm15,0v-5.274h4.981v5.274Zm15,0v-5.274h4.981v5.274Z" transform="translate(-126.508 -173.004)"/>
      </g>
    </g>
  </g>
</svg>
