<svg xmlns="http://www.w3.org/2000/svg" width="122" height="122" viewBox="0 0 122 122">
  <g id="Grupo_1101520" data-name="Grupo 1101520" transform="translate(-724.781 -1923)">
    <g id="Elipse_11514" data-name="Elipse 11514" transform="translate(735.781 1934)" fill="#ffd69b" stroke="#ffeacc" stroke-width="11">
      <circle cx="50" cy="50" r="50" stroke="none"/>
      <circle cx="50" cy="50" r="55.5" fill="none"/>
    </g>
    <g id="_024-txt" data-name="024-txt" transform="translate(756.103 1941.005)">
      <path id="Trazado_930863" data-name="Trazado 930863" d="M142.352,216.505H88.058a1.272,1.272,0,0,1-1.272-1.272V158.374h56.838v56.859A1.272,1.272,0,0,1,142.352,216.505Z" transform="translate(-85.527 -131.775)" fill="#f6f1f1"/>
      <path id="Trazado_930864" data-name="Trazado 930864" d="M86.787,158.374v2.981h50.6a2.856,2.856,0,0,1,2.856,2.856v52.294h2.114a1.272,1.272,0,0,0,1.272-1.272V158.374Z" transform="translate(-85.527 -131.775)" fill="#efe7e4"/>
      <path id="Trazado_930865" data-name="Trazado 930865" d="M130.975,7.5H88.058a1.272,1.272,0,0,0-1.272,1.272V32.839h56.838v-17.4Z" transform="translate(-85.527 -6.24)" fill="#c8ea73"/>
      <path id="Trazado_930866" data-name="Trazado 930866" d="M366.955,56.836l5.036,3.347a3.051,3.051,0,0,1,1.362,2.541V72.17h3.386V54.77Z" transform="translate(-318.642 -45.571)" fill="#99bb43"/>
      <path id="Trazado_930867" data-name="Trazado 930867" d="M349.9,7.5l2.56,9.636a1.062,1.062,0,0,0,1.311.75l8.778-2.447Z" transform="translate(-304.449 -6.24)" fill="#99bb43"/>
      <g id="Grupo_1101459" data-name="Grupo 1101459" transform="translate(14.014 33.942)">
        <path id="Trazado_930868" data-name="Trazado 930868" d="M192.753,245.543H164.031a1.3,1.3,0,0,1-1.3-1.3V203.4a1.3,1.3,0,0,1,1.3-1.3h28.723a1.3,1.3,0,0,1,1.3,1.3V244.24A1.3,1.3,0,0,1,192.753,245.543Z" transform="translate(-162.727 -202.099)" fill="#efe7e4"/>
        <path id="Trazado_930869" data-name="Trazado 930869" d="M324.762,202.1h-3.38a1.3,1.3,0,0,1,1.3,1.3V244.24a1.3,1.3,0,0,1-1.3,1.3h3.38a1.3,1.3,0,0,0,1.3-1.3V203.4A1.3,1.3,0,0,0,324.762,202.1Z" transform="translate(-294.736 -202.099)" fill="#eadfda"/>
      </g>
      <g id="Grupo_1101460" data-name="Grupo 1101460" transform="translate(0 0)">
        <path id="Trazado_930870" data-name="Trazado 930870" d="M138.054,8.132,125.405.193a1.26,1.26,0,0,0-.67-.193H104.247a1.26,1.26,0,1,0,0,2.519h19.519l2.311,8.7a2.321,2.321,0,0,0,2.867,1.64l7.18-2V25.339H81.806V2.532a.012.012,0,0,1,.012-.012H99.211a1.26,1.26,0,1,0,0-2.519H81.818a2.534,2.534,0,0,0-2.531,2.532V83.458a2.534,2.534,0,0,0,2.531,2.532h54.294a2.535,2.535,0,0,0,2.532-2.532V77.114a1.26,1.26,0,1,0-2.519,0v6.344a.012.012,0,0,1-.012.012H81.818a.012.012,0,0,1-.012-.012v-55.6h54.319v44.22a1.26,1.26,0,0,0,2.519,0V9.2a1.26,1.26,0,0,0-.59-1.067Zm-9.593,2.247-1.688-6.353L134.3,8.751Z" transform="translate(-79.287 0)"/>
        <path id="Trazado_930871" data-name="Trazado 930871" d="M180.778,40.436a1.259,1.259,0,0,0-1.755.3l-2.842,4.034-2.837-4.033a1.26,1.26,0,0,0-2.06,1.45l3.356,4.771-3.954,5.612a1.26,1.26,0,0,0,2.059,1.451l3.434-4.874,3.428,4.874a1.26,1.26,0,1,0,2.06-1.45l-3.948-5.612,3.361-4.771A1.26,1.26,0,0,0,180.778,40.436Z" transform="translate(-155.145 -33.454)"/>
        <path id="Trazado_930872" data-name="Trazado 930872" d="M116.742,54.561A1.259,1.259,0,0,0,118,53.3V42.727h2.021a1.26,1.26,0,0,0,0-2.519h-6.535a1.26,1.26,0,0,0,0,2.519h1.995V53.3A1.259,1.259,0,0,0,116.742,54.561Z" transform="translate(-106.696 -33.455)"/>
        <path id="Trazado_930873" data-name="Trazado 930873" d="M245.3,54.561a1.259,1.259,0,0,0,1.26-1.26V42.727h2.021a1.26,1.26,0,1,0,0-2.519h-6.535a1.26,1.26,0,1,0,0,2.519h1.995V53.3A1.259,1.259,0,0,0,245.3,54.561Z" transform="translate(-213.66 -33.455)"/>
        <path id="Trazado_930874" data-name="Trazado 930874" d="M194.885,240.306h18.432a1.26,1.26,0,0,0,0-2.519H194.885a1.26,1.26,0,0,0,0,2.519Z" transform="translate(-174.422 -197.851)"/>
        <path id="Trazado_930875" data-name="Trazado 930875" d="M194.885,274.766h18.432a1.26,1.26,0,0,0,0-2.519H194.885a1.26,1.26,0,0,0,0,2.519Z" transform="translate(-174.422 -226.524)"/>
        <path id="Trazado_930876" data-name="Trazado 930876" d="M194.885,309.226h18.432a1.26,1.26,0,1,0,0-2.519H194.885a1.26,1.26,0,0,0,0,2.519Z" transform="translate(-174.422 -255.196)"/>
        <path id="Trazado_930877" data-name="Trazado 930877" d="M194.885,343.686h18.432a1.26,1.26,0,0,0,0-2.519H194.885a1.26,1.26,0,0,0,0,2.519Z" transform="translate(-174.422 -283.869)"/>
        <path id="Trazado_930878" data-name="Trazado 930878" d="M194.885,378.146h18.432a1.26,1.26,0,0,0,0-2.519H194.885a1.26,1.26,0,0,0,0,2.519Z" transform="translate(-174.422 -312.541)"/>
        <path id="Trazado_930879" data-name="Trazado 930879" d="M194.885,412.606h18.432a1.26,1.26,0,0,0,0-2.519H194.885a1.26,1.26,0,0,0,0,2.519Z" transform="translate(-174.422 -341.214)"/>
        <path id="Trazado_930880" data-name="Trazado 930880" d="M156.487,210.157a1.259,1.259,0,0,0-1.26,1.26V238a2.566,2.566,0,0,0,2.563,2.563h28.723A2.566,2.566,0,0,0,189.076,238V197.161a2.566,2.566,0,0,0-2.563-2.563H157.79a2.566,2.566,0,0,0-2.563,2.563v9.219a1.26,1.26,0,1,0,2.519,0v-9.219a.044.044,0,0,1,.044-.044h28.723a.044.044,0,0,1,.044.044V238a.044.044,0,0,1-.044.044H157.79a.044.044,0,0,1-.044-.044V211.417A1.26,1.26,0,0,0,156.487,210.157Z" transform="translate(-142.473 -161.916)"/>
      </g>
    </g>
  </g>
</svg>
