<svg xmlns="http://www.w3.org/2000/svg" width="122" height="122" viewBox="0 0 122 122">
  <g id="Grupo_1101521" data-name="Grupo 1101521" transform="translate(-724.781 -1923)">
    <g id="Elipse_11514" data-name="Elipse 11514" transform="translate(735.781 1934)" fill="#ffd69b" stroke="#ffeacc" stroke-width="11">
      <circle cx="50" cy="50" r="50" stroke="none"/>
      <circle cx="50" cy="50" r="55.5" fill="none"/>
    </g>
    <g id="_038-svg" data-name="038-svg" transform="translate(756.103 1941.005)">
      <path id="Trazado_931089" data-name="Trazado 931089" d="M142.352,216.505H88.058a1.272,1.272,0,0,1-1.272-1.272V158.374h56.838v56.859A1.272,1.272,0,0,1,142.352,216.505Z" transform="translate(-85.527 -131.775)" fill="#f6f1f1"/>
      <path id="Trazado_931090" data-name="Trazado 931090" d="M86.787,158.374v2.981h50.6a2.856,2.856,0,0,1,2.856,2.856v52.294h2.114a1.272,1.272,0,0,0,1.272-1.272V158.374Z" transform="translate(-85.527 -131.775)" fill="#efe7e4"/>
      <path id="Trazado_931091" data-name="Trazado 931091" d="M130.975,7.5H88.058a1.272,1.272,0,0,0-1.272,1.272V32.839h56.838v-17.4Z" transform="translate(-85.527 -6.24)" fill="#ac80dd"/>
      <path id="Trazado_931092" data-name="Trazado 931092" d="M366.955,56.836l5.036,3.347a3.051,3.051,0,0,1,1.362,2.541V72.17h3.386V54.77Z" transform="translate(-318.642 -45.571)" fill="#9d66d5"/>
      <path id="Trazado_931093" data-name="Trazado 931093" d="M349.9,7.5l2.56,9.636a1.062,1.062,0,0,0,1.311.75l8.778-2.447Z" transform="translate(-304.449 -6.24)" fill="#8659b9"/>
      <g id="Grupo_1101489" data-name="Grupo 1101489" transform="translate(11.802 37.787)">
        <g id="Grupo_1101488" data-name="Grupo 1101488">
          <path id="Trazado_931094" data-name="Trazado 931094" d="M149.557,224.994h7.5v7.5h-7.5Z" transform="translate(-149.557 -224.994)" fill="#ac80dd"/>
          <path id="Trazado_931095" data-name="Trazado 931095" d="M317.782,224.994h7.5v7.5h-7.5Z" transform="translate(-289.529 -224.994)" fill="#ac80dd"/>
          <path id="Trazado_931096" data-name="Trazado 931096" d="M149.557,393.219h7.5v7.5h-7.5Z" transform="translate(-149.557 -364.966)" fill="#ac80dd"/>
          <path id="Trazado_931097" data-name="Trazado 931097" d="M317.782,393.219h7.5v7.5h-7.5Z" transform="translate(-289.529 -364.966)" fill="#ac80dd"/>
        </g>
      </g>
      <g id="Grupo_1101490" data-name="Grupo 1101490" transform="translate(0 0)">
        <path id="Trazado_931098" data-name="Trazado 931098" d="M138.054,8.132,125.405.193a1.26,1.26,0,0,0-.67-.193H104.247a1.26,1.26,0,1,0,0,2.519h19.519l2.311,8.7a2.321,2.321,0,0,0,2.867,1.64l7.18-2V25.339H81.806V2.532a.012.012,0,0,1,.012-.012H99.211a1.26,1.26,0,1,0,0-2.519H81.818a2.534,2.534,0,0,0-2.531,2.532V83.458a2.534,2.534,0,0,0,2.531,2.532h54.294a2.535,2.535,0,0,0,2.532-2.532V77.114a1.26,1.26,0,1,0-2.519,0v6.344a.012.012,0,0,1-.012.012H81.818a.012.012,0,0,1-.012-.012v-55.6h54.319v44.22a1.26,1.26,0,0,0,2.519,0V9.2a1.26,1.26,0,0,0-.59-1.067Zm-9.593,2.247-1.688-6.353L134.3,8.75Z" transform="translate(-79.287 0)"/>
        <path id="Trazado_931099" data-name="Trazado 931099" d="M248.5,42.726a4.632,4.632,0,0,1,2.6.795,1.26,1.26,0,0,0,1.41-2.088A7.177,7.177,0,1,0,248.5,54.56c3.749,0,6.367-2.951,6.367-7.176a1.259,1.259,0,0,0-1.26-1.26h-3.54a1.26,1.26,0,1,0,0,2.519h2.163c-.338,1.761-1.436,3.4-3.73,3.4a4.657,4.657,0,1,1,0-9.314Z" transform="translate(-214.106 -33.454)"/>
        <path id="Trazado_931100" data-name="Trazado 931100" d="M120.966,52.04a4.343,4.343,0,0,1-3.191-1.34,1.26,1.26,0,0,0-1.867,1.692,6.9,6.9,0,0,0,5.057,2.168,4.662,4.662,0,0,0,4.763-3.6c.279-1.562-.441-3.608-3.3-4.662-1.489-.549-2.872-1.148-3.259-1.317a1.035,1.035,0,0,1-.394-.992,1.4,1.4,0,0,1,1.1-1.127,4.166,4.166,0,0,1,3.459.793,1.26,1.26,0,0,0,1.615-1.933,6.665,6.665,0,0,0-5.8-1.273,3.946,3.946,0,0,0-2.862,3.181,3.544,3.544,0,0,0,1.58,3.508,1.254,1.254,0,0,0,.175.1c.068.03,1.691.753,3.52,1.427,1.206.445,1.823,1.121,1.692,1.856A2.215,2.215,0,0,1,120.966,52.04Z" transform="translate(-109.486 -33.454)"/>
        <path id="Trazado_931101" data-name="Trazado 931101" d="M188.52,40.292a1.259,1.259,0,0,0-1.592.8l-2.942,8.856L180.9,41.053a1.26,1.26,0,0,0-2.38.826l4.049,11.664a1.528,1.528,0,0,0,1.439,1.016h.01a1.531,1.531,0,0,0,1.438-1.044l3.864-11.631A1.259,1.259,0,0,0,188.52,40.292Z" transform="translate(-161.794 -33.453)"/>
        <path id="Trazado_931102" data-name="Trazado 931102" d="M179.07,227.514a1.259,1.259,0,0,0,1.26-1.26v-7.5a1.259,1.259,0,0,0-1.26-1.26h-7.5a1.259,1.259,0,0,0-1.26,1.26v2.491H152.077v-2.491a1.259,1.259,0,0,0-1.26-1.26h-7.5a1.259,1.259,0,0,0-1.26,1.26v7.5a1.259,1.259,0,0,0,1.26,1.26h2.491v18.233h-2.491a1.259,1.259,0,0,0-1.26,1.26v7.5a1.259,1.259,0,0,0,1.26,1.26h7.5a1.259,1.259,0,0,0,1.26-1.26v-2.491H170.31v2.491a1.259,1.259,0,0,0,1.26,1.26h7.5a1.259,1.259,0,0,0,1.26-1.26v-7.5a1.259,1.259,0,0,0-1.26-1.26h-2.491V227.514Zm-6.241-7.5h4.982v4.982h-4.982Zm-28.253,0h4.981v4.982h-4.981Zm4.981,33.235h-4.981v-4.982h4.981Zm28.253,0h-4.982v-4.982h4.982Zm-3.75-7.5H171.57a1.259,1.259,0,0,0-1.26,1.26V249.5H152.077v-2.491a1.259,1.259,0,0,0-1.26-1.26h-2.491V227.514h2.491a1.259,1.259,0,0,0,1.26-1.26v-2.491H170.31v2.491a1.259,1.259,0,0,0,1.26,1.26h2.491v18.233Z" transform="translate(-131.515 -180.966)"/>
        <path id="Trazado_931103" data-name="Trazado 931103" d="M237.958,309.151h-1.725v-1.725a1.26,1.26,0,1,0-2.519,0v1.725H231.99a1.26,1.26,0,0,0,0,2.519h1.725V313.4a1.26,1.26,0,1,0,2.519,0v-1.725h1.725a1.26,1.26,0,1,0,0-2.519Z" transform="translate(-205.295 -254.747)"/>
      </g>
    </g>
  </g>
</svg>
