<svg xmlns="http://www.w3.org/2000/svg" width="122" height="122" viewBox="0 0 122 122">
  <g id="Grupo_1101522" data-name="Grupo 1101522" transform="translate(-724.781 -1923)">
    <g id="Elipse_11514" data-name="Elipse 11514" transform="translate(735.781 1934)" fill="#ffd69b" stroke="#ffeacc" stroke-width="11">
      <circle cx="50" cy="50" r="50" stroke="none"/>
      <circle cx="50" cy="50" r="55.5" fill="none"/>
    </g>
    <g id="_047-ttf" data-name="047-ttf" transform="translate(756.103 1941.005)">
      <path id="Trazado_931219" data-name="Trazado 931219" d="M142.352,216.505H88.058a1.272,1.272,0,0,1-1.272-1.272V158.374h56.838v56.859A1.272,1.272,0,0,1,142.352,216.505Z" transform="translate(-85.527 -131.775)" fill="#f6f1f1"/>
      <path id="Trazado_931220" data-name="Trazado 931220" d="M86.787,158.374v2.981h50.6a2.856,2.856,0,0,1,2.856,2.856v52.294h2.114a1.272,1.272,0,0,0,1.272-1.272V158.374Z" transform="translate(-85.527 -131.775)" fill="#efe7e4"/>
      <path id="Trazado_931221" data-name="Trazado 931221" d="M130.975,7.5H88.058a1.272,1.272,0,0,0-1.272,1.272V32.839h56.838v-17.4Z" transform="translate(-85.527 -6.24)" fill="#80b4fb"/>
      <path id="Trazado_931222" data-name="Trazado 931222" d="M366.955,56.836l5.036,3.347a3.051,3.051,0,0,1,1.362,2.541V72.17h3.386V54.77Z" transform="translate(-318.642 -45.571)" fill="#61a2f9"/>
      <path id="Trazado_931223" data-name="Trazado 931223" d="M349.9,7.5l2.56,9.636a1.062,1.062,0,0,0,1.311.75l8.778-2.447Z" transform="translate(-304.449 -6.24)" fill="#3b66c1"/>
      <g id="Grupo_1101506" data-name="Grupo 1101506" transform="translate(0 0)">
        <g id="Grupo_1101523" data-name="Grupo 1101523">
          <path id="Trazado_931224" data-name="Trazado 931224" d="M138.054,8.132,125.405.193a1.26,1.26,0,0,0-.67-.193H104.247a1.26,1.26,0,1,0,0,2.519h19.519l2.311,8.7a2.321,2.321,0,0,0,2.867,1.64l7.18-2V25.339H81.806V2.532a.012.012,0,0,1,.012-.012H99.211a1.26,1.26,0,1,0,0-2.519H81.818a2.534,2.534,0,0,0-2.531,2.532V83.458a2.534,2.534,0,0,0,2.531,2.532h54.294a2.535,2.535,0,0,0,2.532-2.532V77.114a1.26,1.26,0,1,0-2.519,0v6.344a.012.012,0,0,1-.012.012H81.818a.012.012,0,0,1-.012-.012v-55.6h54.319v44.22a1.26,1.26,0,0,0,2.519,0V9.2a1.26,1.26,0,0,0-.59-1.067Zm-9.593,2.247-1.688-6.353L134.3,8.751Z" transform="translate(-79.287)"/>
          <path id="Trazado_931225" data-name="Trazado 931225" d="M238.562,42.985a1.26,1.26,0,1,0,0-2.519H233.8a1.259,1.259,0,0,0-1.26,1.26V53.472a1.26,1.26,0,1,0,2.519,0V48.747h3.123a1.26,1.26,0,1,0,0-2.519H235.06V42.985Z" transform="translate(-209.802 -33.67)"/>
          <path id="Trazado_931281" data-name="Trazado 931281" d="M238.562,42.985a1.26,1.26,0,1,0,0-2.519H233.8a1.259,1.259,0,0,0-1.26,1.26V53.472a1.26,1.26,0,1,0,2.519,0V48.747h3.123a1.26,1.26,0,1,0,0-2.519H235.06V42.985Z" transform="translate(-200.802 -33.67)"/>
          <path id="Trazado_931227" data-name="Trazado 931227" d="M116.742,54.561A1.259,1.259,0,0,0,118,53.3V42.727h2.021a1.26,1.26,0,0,0,0-2.519h-6.535a1.26,1.26,0,0,0,0,2.519h1.995V53.3A1.259,1.259,0,0,0,116.742,54.561Z" transform="translate(-106.696 -33.455)"/>
          <rect id="Rectángulo_403178" data-name="Rectángulo 403178" width="3" height="15" rx="1.5" transform="translate(16.709 6.21)"/>
          <circle id="Elipse_11559" data-name="Elipse 11559" cx="5" cy="5" r="5" transform="translate(17.709 45.21)" fill="#ff9a09"/>
          <path id="Trazado_931282" data-name="Trazado 931282" d="M18.667,75.4,35.542,57.011S37.164,55.684,40.48,59s7.59,8.327,7.59,8.327-.295,7.666-5.9,8.07S18.667,75.4,18.667,75.4Z" fill="#9a9ef7"/>
          <g id="Icon_akar-image" data-name="Icon akar-image" transform="translate(7.976 35.591)">
            <path id="Trazado_931278" data-name="Trazado 931278" d="M3,10.361A7.361,7.361,0,0,1,10.361,3H32.445a7.361,7.361,0,0,1,7.361,7.361V32.445a7.361,7.361,0,0,1-7.361,7.361H10.361A7.361,7.361,0,0,1,3,32.445Z" fill="none" stroke="#000" stroke-linecap="round" stroke-linejoin="round" stroke-width="3"/>
            <path id="Trazado_931279" data-name="Trazado 931279" d="M18.2,13.6A4.6,4.6,0,1,1,13.6,9,4.6,4.6,0,0,1,18.2,13.6Z" transform="translate(1.361 1.361)" fill="none" stroke="#000" stroke-linecap="round" stroke-linejoin="round" stroke-width="3"/>
            <path id="Trazado_931280" data-name="Trazado 931280" d="M24.691,19.154,9,36.415H31.329A7.117,7.117,0,0,0,38.445,29.3v-.245a2.343,2.343,0,0,0-.9-1.822l-7.417-8.088a3.681,3.681,0,0,0-5.436.011Z" transform="translate(1.361 3.392)" fill="none" stroke="#000" stroke-linecap="round" stroke-linejoin="round" stroke-width="3"/>
          </g>
        </g>
      </g>
    </g>
  </g>
</svg>
