<svg xmlns="http://www.w3.org/2000/svg" width="122" height="122" viewBox="0 0 122 122">
  <g id="Grupo_1101525" data-name="Grupo 1101525" transform="translate(-724.781 -1923)">
    <g id="Elipse_11514" data-name="Elipse 11514" transform="translate(735.781 1934)" fill="#ffd69b" stroke="#ffeacc" stroke-width="11">
      <circle cx="50" cy="50" r="50" stroke="none"/>
      <circle cx="50" cy="50" r="55.5" fill="none"/>
    </g>
    <g id="_021-bmp" data-name="021-bmp" transform="translate(756.103 1941.005)">
      <path id="Trazado_930826" data-name="Trazado 930826" d="M142.352,216.505H88.058a1.272,1.272,0,0,1-1.272-1.272V158.374h56.838v56.859A1.272,1.272,0,0,1,142.352,216.505Z" transform="translate(-85.527 -131.775)" fill="#f6f1f1"/>
      <path id="Trazado_930827" data-name="Trazado 930827" d="M86.787,158.374v2.981h50.6a2.856,2.856,0,0,1,2.856,2.856v52.294h2.114a1.272,1.272,0,0,0,1.272-1.272V158.374Z" transform="translate(-85.527 -131.775)" fill="#efe7e4"/>
      <path id="Trazado_930828" data-name="Trazado 930828" d="M130.975,7.5H88.058a1.272,1.272,0,0,0-1.272,1.272V32.839h56.838v-17.4Z" transform="translate(-85.527 -6.24)" fill="#ac80dd"/>
      <path id="Trazado_930829" data-name="Trazado 930829" d="M366.955,56.836l5.036,3.347a3.051,3.051,0,0,1,1.362,2.541V72.17h3.386V54.77Z" transform="translate(-318.642 -45.571)" fill="#9d66d5"/>
      <path id="Trazado_930830" data-name="Trazado 930830" d="M349.9,7.5l2.56,9.636a1.062,1.062,0,0,0,1.311.75l8.778-2.447Z" transform="translate(-304.449 -6.24)" fill="#8659b9"/>
      <g id="Grupo_1101453" data-name="Grupo 1101453" transform="translate(9.2 40.494)">
        <path id="Trazado_930831" data-name="Trazado 930831" d="M173.8,271.451H135.281a1.218,1.218,0,0,1-1.218-1.218V242.328a1.218,1.218,0,0,1,1.218-1.218H173.8a1.218,1.218,0,0,1,1.218,1.218v27.905A1.218,1.218,0,0,1,173.8,271.451Z" transform="translate(-134.063 -241.11)" fill="#ff7650"/>
        <path id="Trazado_930832" data-name="Trazado 930832" d="M353.417,241.111h-3.486a1.218,1.218,0,0,1,1.218,1.218v27.905a1.218,1.218,0,0,1-1.218,1.218h3.486a1.218,1.218,0,0,0,1.218-1.218V242.328A1.217,1.217,0,0,0,353.417,241.111Z" transform="translate(-313.676 -241.111)" fill="#b15237"/>
        <path id="Trazado_930833" data-name="Trazado 930833" d="M198.666,291.093H179.081a1.019,1.019,0,0,1-1.019-1.019v-7.229a1.019,1.019,0,0,1,1.019-1.019h19.585a1.019,1.019,0,0,1,1.019,1.019v7.229A1.019,1.019,0,0,1,198.666,291.093Z" transform="translate(-170.672 -274.988)" fill="#9a9ef7"/>
        <path id="Trazado_931276" data-name="Trazado 931276" d="M6.279,0A6.279,6.279,0,1,1,0,6.279,6.279,6.279,0,0,1,6.279,0Z" transform="translate(22.733 11.067)" fill="#ff9a09"/>
      </g>
      <g id="Grupo_1101454" data-name="Grupo 1101454" transform="translate(0 0)">
        <path id="Trazado_930834" data-name="Trazado 930834" d="M138.054,8.132,125.405.193a1.26,1.26,0,0,0-.67-.193H104.247a1.26,1.26,0,1,0,0,2.519h19.519l2.311,8.7a2.321,2.321,0,0,0,2.867,1.64l7.18-2V25.339H81.806V2.532a.012.012,0,0,1,.012-.012H99.211a1.26,1.26,0,1,0,0-2.519H81.818a2.534,2.534,0,0,0-2.531,2.532V83.458a2.534,2.534,0,0,0,2.531,2.532h54.294a2.535,2.535,0,0,0,2.532-2.532V77.114a1.26,1.26,0,1,0-2.519,0v6.344a.012.012,0,0,1-.012.012H81.818a.012.012,0,0,1-.012-.012v-55.6h54.319v44.22a1.26,1.26,0,0,0,2.519,0V9.2a1.26,1.26,0,0,0-.59-1.067Zm-9.593,2.247-1.688-6.353L134.3,8.751Z" transform="translate(-79.287 0)"/>
        <path id="Trazado_930838" data-name="Trazado 930838" d="M192.426,274.326H172.841a2.281,2.281,0,0,0-2.278,2.278v7.229a2.281,2.281,0,0,0,2.278,2.278h13.065a7.539,7.539,0,1,0,8.8-7.45V276.6A2.281,2.281,0,0,0,192.426,274.326Zm-19.344,2.519h19.1v1.817a7.562,7.562,0,0,0-5.851,4.931H173.082Zm25.383,9.249a5.02,5.02,0,1,1-5.02-5.02A5.025,5.025,0,0,1,198.465,286.094Z" transform="translate(-155.233 -228.253)"/>
        <path id="Trazado_930839" data-name="Trazado 930839" d="M140.791,233.61h-11.75a2.48,2.48,0,0,0-2.477,2.477v27.905a2.48,2.48,0,0,0,2.477,2.477h38.523a2.48,2.48,0,0,0,2.477-2.477V236.087a2.48,2.48,0,0,0-2.477-2.477H145.827a1.26,1.26,0,0,0,0,2.519h21.695V263.95H129.083V236.129h11.708a1.26,1.26,0,0,0,0-2.519Z" transform="translate(-118.624 -194.376)"/>
        <path id="Trazado_931283" data-name="Trazado 931283" d="M10.068-3.276,8.083-10.64,6.072-3.276q-.235.838-.373,1.2a1.594,1.594,0,0,1-.482.653,1.372,1.372,0,0,1-.913.289A1.5,1.5,0,0,1,3.546-1.3a1.319,1.319,0,0,1-.482-.486,3.053,3.053,0,0,1-.3-.746q-.117-.431-.209-.8L.509-11.6a4.839,4.839,0,0,1-.184-1.1,1.079,1.079,0,0,1,.335-.8,1.142,1.142,0,0,1,.829-.327A.941.941,0,0,1,2.4-13.4a4.921,4.921,0,0,1,.411,1.265L4.422-4.96l1.8-6.711a10.8,10.8,0,0,1,.36-1.173,1.692,1.692,0,0,1,.519-.7,1.508,1.508,0,0,1,.98-.293,1.43,1.43,0,0,1,.976.306,1.67,1.67,0,0,1,.482.666q.134.36.36,1.19L11.719-4.96l1.609-7.172a8.562,8.562,0,0,1,.222-.88,1.411,1.411,0,0,1,.36-.57,1.014,1.014,0,0,1,.741-.251,1.154,1.154,0,0,1,.825.323,1.069,1.069,0,0,1,.339.808,5.25,5.25,0,0,1-.184,1.1L13.587-3.335q-.209.838-.348,1.227a1.634,1.634,0,0,1-.469.683,1.362,1.362,0,0,1-.934.293,1.385,1.385,0,0,1-.913-.285,1.541,1.541,0,0,1-.478-.641Q10.311-2.413,10.068-3.276Zm11.2.084L19.3-11.017v8.479a1.543,1.543,0,0,1-.314,1.056,1.063,1.063,0,0,1-.834.352,1.063,1.063,0,0,1-.821-.348,1.527,1.527,0,0,1-.318-1.06v-9.719a1.218,1.218,0,0,1,.419-1.085,2.006,2.006,0,0,1,1.131-.281h.771a2.939,2.939,0,0,1,1.01.126.848.848,0,0,1,.465.452,7.022,7.022,0,0,1,.344,1.064l1.785,6.728,1.785-6.728a7.022,7.022,0,0,1,.344-1.064.848.848,0,0,1,.465-.452,2.939,2.939,0,0,1,1.01-.126h.771a2.006,2.006,0,0,1,1.131.281,1.218,1.218,0,0,1,.419,1.085v9.719a1.543,1.543,0,0,1-.314,1.056,1.073,1.073,0,0,1-.842.352,1.047,1.047,0,0,1-.813-.352,1.529,1.529,0,0,1-.318-1.056v-8.479L24.6-3.192q-.193.762-.314,1.118a1.544,1.544,0,0,1-.448.649,1.306,1.306,0,0,1-.9.293A1.365,1.365,0,0,1,22.2-1.32a1.358,1.358,0,0,1-.469-.482,2.75,2.75,0,0,1-.264-.649Q21.371-2.807,21.27-3.192ZM37.509-11.7h-4v3.142H36.7a1.229,1.229,0,0,1,.85.256.878.878,0,0,1,.281.683.859.859,0,0,1-.285.679,1.245,1.245,0,0,1-.846.251H33.511v4.047A1.629,1.629,0,0,1,33.163-1.5a1.166,1.166,0,0,1-.892.373,1.169,1.169,0,0,1-.9-.377,1.631,1.631,0,0,1-.348-1.139V-12.1a2.071,2.071,0,0,1,.159-.876.988.988,0,0,1,.5-.494,2.1,2.1,0,0,1,.867-.155h4.962a1.276,1.276,0,0,1,.884.264.892.892,0,0,1,.289.691.9.9,0,0,1-.289.7A1.276,1.276,0,0,1,37.509-11.7Z" transform="translate(5.71 21.363)"/>
      </g>
    </g>
  </g>
</svg>
