<svg xmlns="http://www.w3.org/2000/svg" width="122" height="122" viewBox="0 0 122 122">
  <g id="Grupo_1101526" data-name="Grupo 1101526" transform="translate(-724.781 -1923)">
    <g id="Elipse_11514" data-name="Elipse 11514" transform="translate(735.781 1934)" fill="#ffd69b" stroke="#ffeacc" stroke-width="11">
      <circle cx="50" cy="50" r="50" stroke="none"/>
      <circle cx="50" cy="50" r="55.5" fill="none"/>
    </g>
    <g id="_038-svg" data-name="038-svg" transform="translate(756.103 1941.005)">
      <path id="Trazado_931089" data-name="Trazado 931089" d="M142.352,216.505H88.058a1.272,1.272,0,0,1-1.272-1.272V158.374h56.838v56.859A1.272,1.272,0,0,1,142.352,216.505Z" transform="translate(-85.527 -131.775)" fill="#f6f1f1"/>
      <path id="Trazado_931090" data-name="Trazado 931090" d="M86.787,158.374v2.981h50.6a2.856,2.856,0,0,1,2.856,2.856v52.294h2.114a1.272,1.272,0,0,0,1.272-1.272V158.374Z" transform="translate(-85.527 -131.775)" fill="#efe7e4"/>
      <path id="Trazado_931091" data-name="Trazado 931091" d="M130.975,7.5H88.058a1.272,1.272,0,0,0-1.272,1.272V32.839h56.838v-17.4Z" transform="translate(-85.527 -6.24)" fill="#dd4fb1"/>
      <path id="Trazado_931092" data-name="Trazado 931092" d="M366.955,56.836l5.036,3.347a3.051,3.051,0,0,1,1.362,2.541V72.17h3.386V54.77Z" transform="translate(-318.642 -45.571)" fill="#c1228d"/>
      <path id="Trazado_931093" data-name="Trazado 931093" d="M349.9,7.5l2.56,9.636a1.062,1.062,0,0,0,1.311.75l8.778-2.447Z" transform="translate(-304.449 -6.24)" fill="#c1228d"/>
      <g id="Grupo_1101490" data-name="Grupo 1101490" transform="translate(0 0)">
        <path id="Trazado_931098" data-name="Trazado 931098" d="M138.054,8.132,125.405.193a1.26,1.26,0,0,0-.67-.193H104.247a1.26,1.26,0,1,0,0,2.519h19.519l2.311,8.7a2.321,2.321,0,0,0,2.867,1.64l7.18-2V25.339H81.806V2.532a.012.012,0,0,1,.012-.012H99.211a1.26,1.26,0,1,0,0-2.519H81.818a2.534,2.534,0,0,0-2.531,2.532V83.458a2.534,2.534,0,0,0,2.531,2.532h54.294a2.535,2.535,0,0,0,2.532-2.532V77.114a1.26,1.26,0,1,0-2.519,0v6.344a.012.012,0,0,1-.012.012H81.818a.012.012,0,0,1-.012-.012v-55.6h54.319v44.22a1.26,1.26,0,0,0,2.519,0V9.2a1.26,1.26,0,0,0-.59-1.067Zm-9.593,2.247-1.688-6.353L134.3,8.75Z" transform="translate(-79.287 0)"/>
        <path id="Trazado_931284" data-name="Trazado 931284" d="M10.464-2.848,8.4-10.511,6.305-2.848q-.244.872-.388,1.251a1.658,1.658,0,0,1-.5.68,1.427,1.427,0,0,1-.95.3,1.562,1.562,0,0,1-.789-.179,1.372,1.372,0,0,1-.5-.506,3.177,3.177,0,0,1-.314-.776q-.122-.449-.218-.833l-2.127-8.6a5.035,5.035,0,0,1-.192-1.142,1.123,1.123,0,0,1,.349-.837,1.188,1.188,0,0,1,.863-.34.979.979,0,0,1,.95.453,5.121,5.121,0,0,1,.427,1.316L4.588-4.6l1.874-6.983A11.243,11.243,0,0,1,6.837-12.8a1.761,1.761,0,0,1,.541-.724,1.57,1.57,0,0,1,1.02-.305,1.488,1.488,0,0,1,1.016.318,1.737,1.737,0,0,1,.5.693q.139.375.375,1.238L12.181-4.6l1.674-7.463a8.91,8.91,0,0,1,.231-.915,1.469,1.469,0,0,1,.375-.593,1.055,1.055,0,0,1,.772-.262,1.2,1.2,0,0,1,.859.336,1.112,1.112,0,0,1,.353.841,5.463,5.463,0,0,1-.192,1.142l-2.127,8.6q-.218.872-.362,1.277a1.7,1.7,0,0,1-.488.711,1.417,1.417,0,0,1-.972.305,1.441,1.441,0,0,1-.95-.3,1.6,1.6,0,0,1-.5-.667Q10.717-1.95,10.464-2.848ZM23.283-4.87H18.627a3.161,3.161,0,0,0,.327,1.43,2.245,2.245,0,0,0,.846.933,2.234,2.234,0,0,0,1.164.314,2.851,2.851,0,0,0,.78-.1,2.541,2.541,0,0,0,.684-.314,5.22,5.22,0,0,0,.61-.458q.279-.244.724-.663a.781.781,0,0,1,.523-.157.862.862,0,0,1,.593.2.717.717,0,0,1,.227.567,1.548,1.548,0,0,1-.253.754,2.993,2.993,0,0,1-.763.828,4.345,4.345,0,0,1-1.282.658,5.52,5.52,0,0,1-1.774.262,4.746,4.746,0,0,1-3.566-1.308,4.87,4.87,0,0,1-1.273-3.548,5.919,5.919,0,0,1,.314-1.957,4.315,4.315,0,0,1,.915-1.547,3.969,3.969,0,0,1,1.482-.99,5.32,5.32,0,0,1,1.953-.344,4.631,4.631,0,0,1,2.393.588,3.871,3.871,0,0,1,1.5,1.521,4,4,0,0,1,.5,1.9q0,.9-.514,1.164A3.205,3.205,0,0,1,23.283-4.87ZM18.627-6.222h4.315a2.893,2.893,0,0,0-.658-1.826,1.97,1.97,0,0,0-1.5-.606,1.9,1.9,0,0,0-1.46.615A3.058,3.058,0,0,0,18.627-6.222Zm9.462-6.251v3.635A5.523,5.523,0,0,1,29.458-9.9a3.646,3.646,0,0,1,1.726-.371,3.821,3.821,0,0,1,2.079.562,3.693,3.693,0,0,1,1.386,1.63,6,6,0,0,1,.493,2.533,6.789,6.789,0,0,1-.275,1.983A4.709,4.709,0,0,1,34.07-2,3.6,3.6,0,0,1,32.8-.978a3.713,3.713,0,0,1-1.643.362,3.946,3.946,0,0,1-1.033-.131,3.03,3.03,0,0,1-.824-.344,3.729,3.729,0,0,1-.58-.44q-.24-.227-.632-.68v.235A1.435,1.435,0,0,1,27.767-.96a1.074,1.074,0,0,1-.82.344,1.017,1.017,0,0,1-.806-.344,1.5,1.5,0,0,1-.3-1.016V-12.368a1.742,1.742,0,0,1,.292-1.094.979.979,0,0,1,.815-.371,1.043,1.043,0,0,1,.846.353A1.525,1.525,0,0,1,28.089-12.472ZM28.2-5.4a3.276,3.276,0,0,0,.65,2.184,2.13,2.13,0,0,0,1.7.763,1.956,1.956,0,0,0,1.547-.78,3.408,3.408,0,0,0,.65-2.236,4.385,4.385,0,0,0-.27-1.622,2.356,2.356,0,0,0-.767-1.051,1.887,1.887,0,0,0-1.16-.371,2.068,2.068,0,0,0-1.212.371,2.462,2.462,0,0,0-.837,1.072A4.167,4.167,0,0,0,28.2-5.4Zm11.618-.41H38.449v3.618a1.69,1.69,0,0,1-.366,1.177,1.2,1.2,0,0,1-.924.4,1.207,1.207,0,0,1-.942-.4,1.686,1.686,0,0,1-.357-1.164v-9.851a1.611,1.611,0,0,1,.392-1.221,1.785,1.785,0,0,1,1.247-.366h2.322a8.705,8.705,0,0,1,2.267.227,3.375,3.375,0,0,1,1.356.724,3.263,3.263,0,0,1,.867,1.238,4.358,4.358,0,0,1,.3,1.648,3.64,3.64,0,0,1-1.2,2.96A5.472,5.472,0,0,1,39.821-5.812Zm-.628-5.859h-.744v3.906h.744a5.208,5.208,0,0,0,1.53-.192,1.783,1.783,0,0,0,.937-.628,1.873,1.873,0,0,0,.323-1.142,1.937,1.937,0,0,0-.5-1.377A3.312,3.312,0,0,0,39.193-11.67Z" transform="translate(4.729 21.243)"/>
        <rect id="Rectángulo_403185" data-name="Rectángulo 403185" width="26" height="18" transform="translate(19.729 43.773)" fill="#9a9ef7"/>
        <path id="Icon_fa-regular-images" data-name="Icon fa-regular-images" d="M9.849,5.2H31.516a.988.988,0,0,1,.985.985V19.978a.988.988,0,0,1-.985.985h-1.3l-6.322-9.67a1.476,1.476,0,0,0-2.475,0L18.2,16.2l-.763-1.04a1.484,1.484,0,0,0-2.388,0l-4.241,5.8h-.96a.988.988,0,0,1-.985-.985V6.19A.988.988,0,0,1,9.849,5.2Zm-3.94.985V19.978a3.943,3.943,0,0,0,3.94,3.94H31.516a3.943,3.943,0,0,0,3.94-3.94V6.19a3.943,3.943,0,0,0-3.94-3.94H9.849A3.943,3.943,0,0,0,5.909,6.19ZM2.955,7.667A1.477,1.477,0,0,0,0,7.667V21.455a8.372,8.372,0,0,0,8.371,8.371h19.7a1.477,1.477,0,0,0,0-2.955H8.371a5.417,5.417,0,0,1-5.417-5.417Zm12.8,1.477a1.97,1.97,0,1,0-1.97,1.97A1.97,1.97,0,0,0,15.758,9.144Z" transform="translate(11.951 39.484)"/>
      </g>
    </g>
  </g>
</svg>
