<svg xmlns="http://www.w3.org/2000/svg" width="122" height="122" viewBox="0 0 122 122">
  <g id="Grupo_1101527" data-name="Grupo 1101527" transform="translate(-724.781 -1923)">
    <g id="Elipse_11514" data-name="Elipse 11514" transform="translate(735.781 1934)" fill="#ffd69b" stroke="#ffeacc" stroke-width="11">
      <circle cx="50" cy="50" r="50" stroke="none"/>
      <circle cx="50" cy="50" r="55.5" fill="none"/>
    </g>
    <g id="_026-pdf" data-name="026-pdf" transform="translate(756.103 1941.005)">
      <path id="Trazado_930896" data-name="Trazado 930896" d="M142.353,216.505H88.059a1.272,1.272,0,0,1-1.272-1.272V158.374h56.838v56.859A1.272,1.272,0,0,1,142.353,216.505Z" transform="translate(-85.527 -131.775)" fill="#f6f1f1"/>
      <path id="Trazado_930897" data-name="Trazado 930897" d="M86.787,158.374v2.981h50.6a2.856,2.856,0,0,1,2.856,2.856v52.294h2.114a1.272,1.272,0,0,0,1.272-1.272V158.374Z" transform="translate(-85.527 -131.775)" fill="#efe7e4"/>
      <path id="Trazado_930898" data-name="Trazado 930898" d="M130.976,7.5H88.059a1.272,1.272,0,0,0-1.272,1.272V32.839h56.838v-17.4Z" transform="translate(-85.527 -6.24)" fill="#dd636e"/>
      <path id="Trazado_930899" data-name="Trazado 930899" d="M366.956,56.836l5.036,3.347a3.051,3.051,0,0,1,1.362,2.541V72.17h3.386V54.77Z" transform="translate(-318.642 -45.571)" fill="#da4a54"/>
      <path id="Trazado_930900" data-name="Trazado 930900" d="M349.9,7.5l2.56,9.636a1.062,1.062,0,0,0,1.311.75l8.778-2.447Z" transform="translate(-304.449 -6.24)" fill="#d82e3d"/>
      <g id="Grupo_1101465" data-name="Grupo 1101465" transform="translate(0 0)">
        <path id="Trazado_930901" data-name="Trazado 930901" d="M255.947,42.328a1.26,1.26,0,0,0,0-2.519H251.1a1.26,1.26,0,0,0-1.26,1.26V53.036a1.26,1.26,0,0,0,2.519,0V48.2h3.206a1.26,1.26,0,0,0,0-2.519h-3.206V42.328Z" transform="translate(-221.193 -33.123)"/>
        <path id="Trazado_930902" data-name="Trazado 930902" d="M181.482,53.376a1.313,1.313,0,0,0,1.283,1.45h0c.1,0,2.461-.01,3.4-.026,3.4-.059,5.865-3.038,5.865-7.083,0-4.252-2.4-7.109-5.984-7.109h-3.313a1.26,1.26,0,0,0-1.26,1.262v.009h0Zm4.573-10.25c2.555,0,3.465,2.371,3.465,4.59,0,2.17-1.061,4.524-3.39,4.564-.481.008-1.367.015-2.109.019,0-1.382-.011-3.541-.011-4.6,0-.881,0-3.141-.006-4.577Z" transform="translate(-164.319 -33.787)"/>
        <path id="Trazado_930903" data-name="Trazado 930903" d="M123.213,39.546a1.262,1.262,0,0,0-1.26,1.26V52.861a1.26,1.26,0,0,0,2.519,0V48.877c.733,0,1.614-.008,2.1-.008a4.662,4.662,0,1,0,0-9.323Zm5.566,4.662a2.206,2.206,0,0,1-2.209,2.143c-.48,0-1.349,0-2.081.008,0-.754-.008-1.658-.008-2.15,0-.415,0-1.355,0-2.143h2.093A2.206,2.206,0,0,1,128.779,44.208Z" transform="translate(-114.787 -32.904)"/>
        <path id="Trazado_930904" data-name="Trazado 930904" d="M146.955,194.271a1.26,1.26,0,0,0-1.26,1.26v43.555a1.26,1.26,0,0,0,1.26,1.26h34.532a1.259,1.259,0,0,0,1.26-1.26V195.531a1.26,1.26,0,0,0-1.26-1.26Zm1.26,27.065v-2.977h32.013v2.977Zm32.013,2.519v2.977H148.214v-2.977Zm-32.013-8.016v-2.977h32.013v2.977Zm15.847-5.5H148.214v-2.977h15.847Zm0-5.5H148.214V201.87h15.847Zm-15.847,24.5h32.013v2.977H148.214Zm32.013-32.562v13.554H166.58V196.79Zm-16.166,0v2.561H148.214V196.79Zm-15.847,41.035v-2.977h32.013v2.977Z" transform="translate(-134.542 -161.644)"/>
        <path id="Trazado_930905" data-name="Trazado 930905" d="M138.054,8.132,125.405.193a1.261,1.261,0,0,0-.67-.193H104.247a1.26,1.26,0,1,0,0,2.519h19.519l2.311,8.7a2.322,2.322,0,0,0,2.867,1.64l7.18-2V25.339H81.806V2.532a.012.012,0,0,1,.012-.012H99.211a1.26,1.26,0,1,0,0-2.519H81.819a2.534,2.534,0,0,0-2.532,2.532V83.458a2.534,2.534,0,0,0,2.532,2.532h54.294a2.535,2.535,0,0,0,2.532-2.532V77.114a1.26,1.26,0,1,0-2.519,0v6.344a.013.013,0,0,1-.012.012H81.819a.012.012,0,0,1-.012-.012v-55.6h54.319v44.22a1.26,1.26,0,1,0,2.519,0V9.2a1.26,1.26,0,0,0-.59-1.067Zm-9.593,2.247-1.688-6.353L134.3,8.75Z" transform="translate(-79.287 0)"/>
      </g>
    </g>
  </g>
</svg>
