<svg xmlns="http://www.w3.org/2000/svg" width="80" height="80" viewBox="0 0 80 80">
  <g id="Grupo_1101286" data-name="Grupo 1101286" transform="translate(-199.84 -1034)">
    <rect id="Image_Place_Holder" data-name="Image Place Holder" width="80" height="80" rx="10" transform="translate(199.84 1034)" fill="#9a9ef7"/>
    <g id="Grupo_1101285" data-name="Grupo 1101285" transform="translate(210.167 1045.354)">
      <path id="Trazado_929069" data-name="Trazado 929069" d="M45.93,3H12V55.78H53.47V10.54Zm1.257,32.673H37.133l1.257-5.027L35.877,25.62l6.283-7.54,6.283,7.54L45.93,30.646Z" transform="translate(2.567 0.257)" fill="#ffc278"/>
      <path id="Trazado_929070" data-name="Trazado 929070" d="M6,24H32.39V44.107H6Z" transform="translate(1.027 5.646)" fill="#ff4c29"/>
      <g id="Grupo_1101284" data-name="Grupo 1101284" transform="translate(2 2)">
        <path id="Trazado_929071" data-name="Trazado 929071" d="M56.925,9.908l-7.54-7.54A1.257,1.257,0,0,0,48.5,2H10.8A1.257,1.257,0,0,0,9.54,3.257V28.39H3.257A1.257,1.257,0,0,0,2,29.646V49.753A1.257,1.257,0,0,0,3.257,51.01H9.54v5.027A1.257,1.257,0,0,0,10.8,57.293h45.24a1.257,1.257,0,0,0,1.257-1.257V10.8a1.256,1.256,0,0,0-.368-.888ZM4.513,30.9H32.16V48.5H4.513ZM54.78,54.78H12.053V51.01H33.416a1.257,1.257,0,0,0,1.257-1.257V29.646a1.257,1.257,0,0,0-1.257-1.257H12.053V4.513H47.976l6.8,6.8Z" transform="translate(-2 -2)" fill="#353535"/>
        <path id="Trazado_929072" data-name="Trazado 929072" d="M14.261,27a1.257,1.257,0,0,0-1.149.747L8.086,39.056l2.3,1.022,1.366-3.073v.048h5.027v-.048l1.365,3.071,2.3-1.02-5.027-11.31A1.257,1.257,0,0,0,14.261,27Zm-1.418,7.54,1.418-3.189,1.418,3.189Z" transform="translate(-0.438 4.416)" fill="#353535"/>
        <path id="Trazado_929073" data-name="Trazado 929073" d="M19,27h2.513V39.567H19Z" transform="translate(2.363 4.416)" fill="#353535"/>
      </g>
      <path id="Trazado_929074" data-name="Trazado 929074" d="M14,16h5.027v5.027H14Z" transform="translate(3.08 3.593)" fill="#ff4c29"/>
      <path id="Trazado_929075" data-name="Trazado 929075" d="M24,7h5.027v5.027H24Z" transform="translate(5.646 1.283)" fill="#ff4c29"/>
      <path id="Trazado_929076" data-name="Trazado 929076" d="M40,11.027a2.513,2.513,0,1,0,0-2.513H33.366V7.257A1.257,1.257,0,0,0,32.109,6H27.082a1.257,1.257,0,0,0-1.257,1.257V8.513H16.68a2.513,2.513,0,1,0,0,2.513h3.3a11.326,11.326,0,0,0-3.923,6.283H14.516a1.257,1.257,0,0,0-1.257,1.257v5.027a1.257,1.257,0,0,0,1.257,1.257h5.027A1.257,1.257,0,0,0,20.8,23.593V18.567a1.257,1.257,0,0,0-1.257-1.257h-.886a8.812,8.812,0,0,1,7.169-6.183v1.156a1.257,1.257,0,0,0,1.257,1.257h5.027a1.257,1.257,0,0,0,1.257-1.257V11.027ZM18.286,22.337H15.773V19.823h2.513Zm12.567-11.31H28.339V8.513h2.513Z" transform="translate(2.564 1.027)" fill="#353535"/>
      <path id="Trazado_929077" data-name="Trazado 929077" d="M43.053,22.232,40.54,27.259H35.513L33,22.232,38.027,16.2Z" transform="translate(7.956 3.645)" fill="#d1d3d4"/>
      <path id="Trazado_929078" data-name="Trazado 929078" d="M35.257,25,34,30.027h7.54L40.283,25Z" transform="translate(8.213 5.903)" fill="#00c3ff"/>
      <path id="Trazado_929079" data-name="Trazado 929079" d="M36.517,13.52l-6.283,8.8a1.257,1.257,0,0,0-.1,1.292l2.3,4.611L31.293,32.8a1.257,1.257,0,0,0,1.22,1.561H42.567A1.257,1.257,0,0,0,43.786,32.8l-1.144-4.577,2.3-4.611a1.257,1.257,0,0,0-.1-1.292l-6.283-8.8a1.3,1.3,0,0,0-2.045,0ZM34.123,31.843l.628-2.513h5.577l.628,2.513Zm6.409-5.027H34.547l-1.828-3.656,3.565-4.989v4.875H38.8V18.172l3.564,4.99Z" transform="translate(7.186 2.83)" fill="#353535"/>
    </g>
  </g>
</svg>
