<svg xmlns="http://www.w3.org/2000/svg" width="505.16" height="348.3" viewBox="0 0 505.16 348.3">
  <g id="Grupo_1101357" data-name="Grupo 1101357" transform="translate(-915 -902.7)">
    <rect id="Image_Place_Holder" data-name="Image Place Holder" width="505.16" height="348.3" transform="translate(915 902.7)" fill="#d6d8fc"/>
    <circle id="Elipse_11541" data-name="Elipse 11541" cx="139" cy="139" r="139" transform="translate(977.813 933)" fill="#9a9ef7"/>
    <g id="Elipse_11542" data-name="Elipse 11542" transform="translate(955.813 911)" fill="none" stroke="#9a9ef7" stroke-width="1">
      <circle cx="160.5" cy="160.5" r="160.5" stroke="none"/>
      <circle cx="160.5" cy="160.5" r="160" fill="none"/>
    </g>
    <g id="_12804869_5072744" data-name="12804869_5072744" transform="translate(915 884.085)">
      <g id="BACKGROUND" transform="translate(0 31.098)">
        <g id="Grupo_1101302" data-name="Grupo 1101302">
          <g id="Grupo_1101301" data-name="Grupo 1101301">
            <g id="Grupo_1101287" data-name="Grupo 1101287" transform="translate(0 234.873)">
              <path id="Trazado_929080" data-name="Trazado 929080" d="M0,464.734H505l-.386-93.84H.266Z" transform="translate(0 -363.79)" fill="#e6e8ef"/>
              <rect id="Rectángulo_403102" data-name="Rectángulo 403102" width="504.531" height="9.285" transform="translate(0.235)" fill="#c3c8d1"/>
            </g>
            <ellipse id="Elipse_11539" data-name="Elipse 11539" cx="223.567" cy="19.414" rx="223.567" ry="19.414" transform="translate(29.053 279.655)" fill="#e8eaef"/>
            <g id="Grupo_1101300" data-name="Grupo 1101300" transform="translate(323.809)">
              <g id="Grupo_1101290" data-name="Grupo 1101290">
                <g id="Grupo_1101288" data-name="Grupo 1101288" transform="translate(0 9.514)">
                  <rect id="Rectángulo_403103" data-name="Rectángulo 403103" width="43.223" height="43.223" fill="#ffe8e6"/>
                  <rect id="Rectángulo_403104" data-name="Rectángulo 403104" width="43.223" height="43.223" fill="none" stroke="#0e1436" stroke-miterlimit="10" stroke-width="4"/>
                  <rect id="Rectángulo_403105" data-name="Rectángulo 403105" width="21.612" height="21.611" transform="translate(10.805 10.805)" fill="#009de0"/>
                </g>
                <g id="Grupo_1101289" data-name="Grupo 1101289" transform="translate(13.938)">
                  <path id="Trazado_929081" data-name="Trazado 929081" d="M269.891,41.082,277.6,31.1l7.635,9.671" transform="translate(-269.891 -31.098)" fill="none" stroke="#0e1436" stroke-linecap="round" stroke-linejoin="round" stroke-miterlimit="10" stroke-width="2"/>
                  <path id="Trazado_929082" data-name="Trazado 929082" d="M281.132,32.787a1.1,1.1,0,1,0-1.1,1.1A1.1,1.1,0,0,0,281.132,32.787Z" transform="translate(-272.363 -31.26)" fill="#354caa"/>
                </g>
              </g>
              <g id="Grupo_1101293" data-name="Grupo 1101293" transform="translate(67.843)">
                <g id="Grupo_1101291" data-name="Grupo 1101291" transform="translate(0 9.514)">
                  <rect id="Rectángulo_403106" data-name="Rectángulo 403106" width="43.223" height="43.223" fill="#ffe8e6"/>
                  <rect id="Rectángulo_403107" data-name="Rectángulo 403107" width="43.223" height="43.223" fill="none" stroke="#0e1436" stroke-miterlimit="10" stroke-width="4"/>
                  <rect id="Rectángulo_403108" data-name="Rectángulo 403108" width="21.611" height="21.611" transform="translate(10.805 10.805)" fill="#ffed00"/>
                </g>
                <g id="Grupo_1101292" data-name="Grupo 1101292" transform="translate(13.938)">
                  <path id="Trazado_929083" data-name="Trazado 929083" d="M363.231,41.082l7.713-9.984,7.635,9.671" transform="translate(-363.231 -31.098)" fill="none" stroke="#0e1436" stroke-linecap="round" stroke-linejoin="round" stroke-miterlimit="10" stroke-width="2"/>
                  <circle id="Elipse_11540" data-name="Elipse 11540" cx="1.096" cy="1.096" r="1.096" transform="translate(6.577 0.431)" fill="#354caa"/>
                </g>
              </g>
              <g id="Grupo_1101296" data-name="Grupo 1101296" transform="translate(29.452 60.336)">
                <g id="Grupo_1101294" data-name="Grupo 1101294" transform="translate(0 9.514)">
                  <rect id="Rectángulo_403109" data-name="Rectángulo 403109" width="43.223" height="43.223" fill="#ffe8e6"/>
                  <rect id="Rectángulo_403110" data-name="Rectángulo 403110" width="43.223" height="43.223" fill="none" stroke="#0e1436" stroke-miterlimit="10" stroke-width="4"/>
                  <rect id="Rectángulo_403111" data-name="Rectángulo 403111" width="21.612" height="21.611" transform="translate(10.805 10.805)" fill="#c4007a"/>
                </g>
                <g id="Grupo_1101295" data-name="Grupo 1101295" transform="translate(13.938)">
                  <path id="Trazado_929084" data-name="Trazado 929084" d="M310.412,124.093l7.713-9.984,7.635,9.671" transform="translate(-310.412 -114.109)" fill="none" stroke="#0e1436" stroke-linecap="round" stroke-linejoin="round" stroke-miterlimit="10" stroke-width="2"/>
                  <path id="Trazado_929085" data-name="Trazado 929085" d="M321.653,115.8a1.1,1.1,0,1,0-1.1,1.1A1.1,1.1,0,0,0,321.653,115.8Z" transform="translate(-312.884 -114.271)" fill="#354caa"/>
                </g>
              </g>
              <g id="Grupo_1101299" data-name="Grupo 1101299" transform="translate(97.119 60.336)">
                <g id="Grupo_1101297" data-name="Grupo 1101297" transform="translate(0 9.514)">
                  <rect id="Rectángulo_403112" data-name="Rectángulo 403112" width="43.223" height="43.223" fill="#ffe8e6"/>
                  <rect id="Rectángulo_403113" data-name="Rectángulo 403113" width="43.223" height="43.223" fill="none" stroke="#0e1436" stroke-miterlimit="10" stroke-width="4"/>
                  <rect id="Rectángulo_403114" data-name="Rectángulo 403114" width="21.611" height="21.611" transform="translate(10.805 10.805)" fill="#141202"/>
                </g>
                <g id="Grupo_1101298" data-name="Grupo 1101298" transform="translate(13.937)">
                  <path id="Trazado_929086" data-name="Trazado 929086" d="M403.508,124.093l7.713-9.984,7.635,9.671" transform="translate(-403.508 -114.109)" fill="none" stroke="#0e1436" stroke-linecap="round" stroke-linejoin="round" stroke-miterlimit="10" stroke-width="2"/>
                  <path id="Trazado_929087" data-name="Trazado 929087" d="M414.75,115.8a1.1,1.1,0,1,0-1.1,1.1A1.1,1.1,0,0,0,414.75,115.8Z" transform="translate(-405.98 -114.271)" fill="#354caa"/>
                </g>
              </g>
            </g>
          </g>
        </g>
      </g>
      <g id="OBJECTS" transform="translate(122.424 78.945)">
        <g id="Grupo_1101356" data-name="Grupo 1101356">
          <g id="Grupo_1101355" data-name="Grupo 1101355">
            <g id="Grupo_1101342" data-name="Grupo 1101342" transform="translate(19.883 25.042)">
              <g id="Grupo_1101310" data-name="Grupo 1101310" transform="translate(0 41.459)">
                <g id="Grupo_1101304" data-name="Grupo 1101304" transform="translate(52.684)">
                  <path id="Trazado_929088" data-name="Trazado 929088" d="M229.745,234.4l-19.862-21.578s-1.688-9.566-7.316-10.411c-4.4-.661-9.132.858-11.887,1.055-1.97.141-4.127,2.315-4.572,2.954l-5.134,9.355s19.062,4.361,23.282,6.049l18.325,27.838,12.928-.156,7.476-3.583-9.034-17.289Z" transform="translate(-180.973 -193.361)" fill="#ffab9f"/>
                  <path id="Trazado_929089" data-name="Trazado 929089" d="M205.6,213.8s-8.37-.633-9.214.141c-.81.742-2.322,2.814,1.688,3.517,4.689.823,7.456,2.6,10.973,1.758" transform="translate(-184.92 -196.451)" fill="none" stroke="#0e1436" stroke-linecap="round" stroke-linejoin="round" stroke-miterlimit="10" stroke-width="0.5"/>
                  <g id="Grupo_1101303" data-name="Grupo 1101303" transform="translate(6.683)">
                    <path id="Trazado_929090" data-name="Trazado 929090" d="M196.457,207.4l13.013-17.022,4.642,3.447L203.42,207.4Z" transform="translate(-191.885 -190.119)" fill="#0e1436"/>
                    <path id="Trazado_929091" data-name="Trazado 929091" d="M214.36,190.281,219,193.728a3.458,3.458,0,0,0-1.547-3.095A3.11,3.11,0,0,0,214.36,190.281Z" transform="translate(-196.776 -190.022)" fill="#1b2f70"/>
                    <path id="Trazado_929092" data-name="Trazado 929092" d="M195.032,213.162l-4.583,5.174-.281.352,7.1.071,1.055-1.055s-3.306-.422-3.517-.844-.914-1.266-.492-1.9A7.276,7.276,0,0,0,195.032,213.162Z" transform="translate(-190.167 -196.343)" fill="#0e1436"/>
                  </g>
                  <path id="Trazado_929093" data-name="Trazado 929093" d="M195.052,205.184a15.851,15.851,0,0,0-6.752,4.924c-4.133,5.241-3.939,6.4-3.939,6.4" transform="translate(-181.898 -194.164)" fill="none" stroke="#0e1436" stroke-linecap="round" stroke-linejoin="round" stroke-miterlimit="10" stroke-width="0.5"/>
                </g>
                <g id="Grupo_1101309" data-name="Grupo 1101309" transform="translate(0 22.415)">
                  <g id="Grupo_1101306" data-name="Grupo 1101306">
                    <path id="Trazado_929094" data-name="Trazado 929094" d="M199.6,254.765c.3.3-12.8-32.5-12.8-32.5l-4.924-1.407H114.489l11.254,33.9,53.017-.007C190.348,254.757,199.551,254.717,199.6,254.765Z" transform="translate(-110.128 -220.861)" fill="#f6cdc7"/>
                    <g id="Grupo_1101305" data-name="Grupo 1101305" transform="translate(0 0.001)">
                      <path id="Trazado_929095" data-name="Trazado 929095" d="M193.6,254.766c1.305-.094-13.083-33.9-13.083-33.9H108.489l11.254,33.9S193.4,254.779,193.6,254.766Z" transform="translate(-108.489 -220.862)" fill="#fb7363"/>
                      <path id="Trazado_929096" data-name="Trazado 929096" d="M159.019,241.846c-12.217-.962-24.4-3.218-34.571-7.572a85.907,85.907,0,0,1-14.01-7.541l9.838,29.636s73.658.015,73.857,0c.433-.031-3.692-9.357-5.616-14.346A218.744,218.744,0,0,1,159.019,241.846Z" transform="translate(-109.021 -222.466)" fill="#fb7363"/>
                    </g>
                    <path id="Trazado_929097" data-name="Trazado 929097" d="M181.452,231.538H116.74l-2.251-6.612H179.2Z" transform="translate(-110.128 -221.971)" fill="#f6cdc7"/>
                  </g>
                  <g id="Grupo_1101307" data-name="Grupo 1101307" transform="translate(7.175 21.946)">
                    <path id="Trazado_929098" data-name="Trazado 929098" d="M123.706,251.055l-5.346,11.958h10.551l5.346-11.4Z" transform="translate(-118.36 -251.055)" fill="#fb7363"/>
                    <path id="Trazado_929099" data-name="Trazado 929099" d="M138.222,251.829l.281,2.392-4.08,9h-1.547Z" transform="translate(-122.325 -251.266)" fill="#f6cdc7"/>
                  </g>
                  <g id="Grupo_1101308" data-name="Grupo 1101308" transform="translate(42.063 21.946)">
                    <path id="Trazado_929100" data-name="Trazado 929100" d="M171.706,251.055l-5.346,11.958h10.551l5.329-11.484Z" transform="translate(-166.36 -251.055)" fill="#fb7363"/>
                    <path id="Trazado_929101" data-name="Trazado 929101" d="M186.174,251.633l.289,2.884-3.861,8.647h-1.875Z" transform="translate(-170.284 -251.213)" fill="#f6cdc7"/>
                  </g>
                </g>
              </g>
              <g id="Grupo_1101340" data-name="Grupo 1101340" transform="translate(19.318)">
                <g id="Grupo_1101314" data-name="Grupo 1101314" transform="translate(87.88 43.205)">
                  <g id="Grupo_1101313" data-name="Grupo 1101313" transform="translate(0 106.541)">
                    <g id="Grupo_1101311" data-name="Grupo 1101311">
                      <path id="Trazado_929102" data-name="Trazado 929102" d="M255.973,415.558h7.7l16.573-71.277h-7.7Z" transform="translate(-255.973 -344.281)" fill="#ffab9f"/>
                      <path id="Trazado_929103" data-name="Trazado 929103" d="M280.816,364.09l4.606-19.809h-7.7L274.929,356.3A30.874,30.874,0,0,1,280.816,364.09Z" transform="translate(-261.151 -344.281)" fill="#e88c82"/>
                    </g>
                    <g id="Grupo_1101312" data-name="Grupo 1101312" transform="translate(62.013)">
                      <path id="Trazado_929104" data-name="Trazado 929104" d="M365.562,415.558h-7.7l-16.572-71.277h7.7Z" transform="translate(-341.291 -344.281)" fill="#ffab9f"/>
                      <path id="Trazado_929105" data-name="Trazado 929105" d="M351.727,359.954c.247-.224.5-.435.754-.653l-3.492-15.019h-7.7l4.969,21.371A54.7,54.7,0,0,1,351.727,359.954Z" transform="translate(-341.291 -344.281)" fill="#e88c82"/>
                    </g>
                  </g>
                  <path id="Trazado_929106" data-name="Trazado 929106" d="M276.618,296.363h66.4V211.205A13.505,13.505,0,0,0,329.513,197.7h-39.39a13.505,13.505,0,0,0-13.505,13.505v85.157Z" transform="translate(-261.612 -197.7)" fill="#4856c1"/>
                  <path id="Trazado_929107" data-name="Trazado 929107" d="M336.374,341.929H272.448v-9h63.926a4.5,4.5,0,0,1,4.5,4.5h0A4.5,4.5,0,0,1,336.374,341.929Z" transform="translate(-260.473 -234.638)" fill="#263382"/>
                </g>
                <g id="Grupo_1101327" data-name="Grupo 1101327" transform="translate(83.266)">
                  <g id="Grupo_1101315" data-name="Grupo 1101315" transform="translate(19.369 40.515)">
                    <path id="Trazado_929108" data-name="Trazado 929108" d="M287.216,198.374l.75,7.878s-10.692,3.564-11.629,3.939,8.628,9.191,24.947,5.44,18.382-12.755,18.382-12.755l-13.318-1.125-3-14.631Z" transform="translate(-276.273 -187.12)" fill="#ffab9f"/>
                    <path id="Trazado_929109" data-name="Trazado 929109" d="M291.289,206.511a15.6,15.6,0,0,0,2.8.22c3.692-.066,7.168-1.643,10.295-3.493a39.363,39.363,0,0,0,5.545-4.006l-2.484-12.112-16.132,11.254.75,7.878Z" transform="translate(-280.375 -187.12)" fill="#ed8d83"/>
                  </g>
                  <g id="Grupo_1101317" data-name="Grupo 1101317" transform="translate(0.674 54.252)">
                    <path id="Trazado_929110" data-name="Trazado 929110" d="M278.97,212.164c-17.163-.422-28.417,13.223-28.417,13.223l11.536,21.383,7.6-5.065-4.424,32.35,53.89.312-2.385-32.379,25.51.375s-17.725-25.979-24.76-32.731-14.068-1.97-14.068-1.97-3.657,5.065-12.942,7.878-12.661-3.095-12.661-3.095" transform="translate(-250.553 -206.019)" fill="#ffb23c"/>
                    <path id="Trazado_929111" data-name="Trazado 929111" d="M349.4,255.517c-1.5-1.125-20.352-.469-20.352-.469a263.113,263.113,0,0,0-27.432,3.191c-3.8-1.6-11.848-2.926-17.455.812-3.366,2.245-8.5,4.5-3.115,4.984,2.6.234,13.392.018,16,.018H347.9S350.9,256.642,349.4,255.517Z" transform="translate(-258.244 -219.36)" fill="#ffab9f"/>
                    <g id="Grupo_1101316" data-name="Grupo 1101316" transform="translate(18.758 0.143)">
                      <path id="Trazado_929112" data-name="Trazado 929112" d="M326.279,206.216s-6.377,0-6.565,6.377,18.945,29.261,18.945,29.261l22.509.563" transform="translate(-288.202 -206.216)" fill="none" stroke="#bc6b00" stroke-linecap="round" stroke-linejoin="round" stroke-miterlimit="10" stroke-width="0.5"/>
                      <line id="Línea_622" data-name="Línea 622" x2="21.946" transform="translate(49.144 33.201)" fill="none" stroke="#bc6b00" stroke-linecap="round" stroke-linejoin="round" stroke-miterlimit="10" stroke-width="0.5"/>
                      <line id="Línea_623" data-name="Línea 623" x1="5.158" y2="24.883" transform="translate(0 10.927)" fill="none" stroke="#bc6b00" stroke-linecap="round" stroke-linejoin="round" stroke-miterlimit="10" stroke-width="0.5"/>
                      <path id="Trazado_929113" data-name="Trazado 929113" d="M283.07,214.861s3.517,6.893,12.942,6.19,13.646-4.783,13.646-4.783" transform="translate(-278.193 -208.577)" fill="none" stroke="#bc6b00" stroke-linecap="round" stroke-linejoin="round" stroke-miterlimit="10" stroke-width="0.5"/>
                    </g>
                  </g>
                  <g id="Grupo_1101326" data-name="Grupo 1101326">
                    <g id="Grupo_1101324" data-name="Grupo 1101324" transform="translate(16.347 14.536)">
                      <g id="Grupo_1101323" data-name="Grupo 1101323">
                        <g id="Grupo_1101318" data-name="Grupo 1101318">
                          <path id="Trazado_929114" data-name="Trazado 929114" d="M278.29,154.466s-8.89,3.165-5.336,16.06,7.768,22.794,17.994,19.5c0,0,8.1-1.5,10.823-9.378s1.964-14.86-.5-19.854S293.774,146.536,278.29,154.466Z" transform="translate(-272.116 -151.378)" fill="#ffab9f"/>
                          <path id="Trazado_929115" data-name="Trazado 929115" d="M318.606,177.892c-.972,3.832-4.019,6.366-6.807,5.659s-4.259-4.386-3.287-8.219,4.019-6.366,6.807-5.659S319.578,174.06,318.606,177.892Z" transform="translate(-281.976 -156.343)" fill="#ffab9f"/>
                        </g>
                        <g id="Grupo_1101322" data-name="Grupo 1101322" transform="translate(2.649 11.966)">
                          <g id="Grupo_1101320" data-name="Grupo 1101320">
                            <g id="Grupo_1101319" data-name="Grupo 1101319">
                              <path id="Trazado_929116" data-name="Trazado 929116" d="M281.165,169.99a4.931,4.931,0,0,0-2.944.268,5.8,5.8,0,0,0-1.471.877,2.769,2.769,0,0,0-.949,1.387,1.077,1.077,0,0,0,1.581,1.2c.14-.1.259-.17.4-.283-.288.233-.034.036.031-.01a5.012,5.012,0,0,0,.4-.335l.033-.031a4.924,4.924,0,0,1,.445-.286c.081-.044.162-.086.245-.125l.015-.007a5.352,5.352,0,0,1,.517-.168c.089-.023.179-.042.269-.059l.025-.005a4.762,4.762,0,0,1,.529-.017,2.691,2.691,0,0,0,.274.02l-.034-.005c.1.015.2.03.306.039a1.25,1.25,0,0,0,.9-.375,1.294,1.294,0,0,0,.337-.712A1.246,1.246,0,0,0,281.165,169.99Z" transform="translate(-275.76 -168.396)" fill="#0e1436"/>
                              <path id="Trazado_929117" data-name="Trazado 929117" d="M304.517,171.583a1.273,1.273,0,0,1-1.75-.156l-.012-.012-.007,0c-.065-.049-.124-.105-.188-.156-.115-.09-.234-.176-.355-.257s-.222-.135-.332-.2l-.009-.006-.014-.007c-.059-.029-.117-.058-.176-.086a5.924,5.924,0,0,0-.821-.312l-.158-.044-.057-.013q-.192-.038-.386-.065a8.018,8.018,0,0,0-.876-.055l-.242-.006h-.016c-.135.01-.27.019-.4.036a6,6,0,0,0-.807.168c-.023.007-.266.064-.153.039.086-.02-.225.065-.267.074-.062.015-.124.03-.187.043a.715.715,0,0,1-1.128-.637,1.743,1.743,0,0,1,.639-1.212,3.644,3.644,0,0,1,1.111-.536,6.247,6.247,0,0,1,2.429-.32,6.992,6.992,0,0,1,4.323,1.976A1.255,1.255,0,0,1,304.517,171.583Z" transform="translate(-281.334 -167.84)" fill="#0e1436"/>
                              <path id="Trazado_929118" data-name="Trazado 929118" d="M282.386,177.806c.218.8.025,1.554-.432,1.678s-1-.426-1.222-1.228-.025-1.554.432-1.678S282.168,177,282.386,177.806Z" transform="translate(-277.094 -170.222)" fill="#0e1436"/>
                              <path id="Trazado_929119" data-name="Trazado 929119" d="M300.718,176.589c.138.821-.128,1.549-.595,1.627s-.957-.523-1.1-1.342.128-1.549.595-1.627S300.58,175.769,300.718,176.589Z" transform="translate(-282.106 -169.862)" fill="#0e1436"/>
                            </g>
                            <path id="Trazado_929120" data-name="Trazado 929120" d="M294.135,191.089a9.174,9.174,0,0,1-10.209.69" transform="translate(-277.991 -174.191)" fill="none" stroke="#0e1436" stroke-linecap="round" stroke-linejoin="round" stroke-miterlimit="10" stroke-width="0.5"/>
                            <path id="Trazado_929121" data-name="Trazado 929121" d="M297.15,190.055a2.357,2.357,0,0,1,1.192,1.492" transform="translate(-281.603 -173.909)" fill="none" stroke="#0e1436" stroke-linecap="round" stroke-linejoin="round" stroke-miterlimit="10" stroke-width="0.5"/>
                            <path id="Trazado_929122" data-name="Trazado 929122" d="M289.288,184.669a1.638,1.638,0,0,0-1.58-.661,1.169,1.169,0,0,0-.913,1.337" transform="translate(-278.767 -172.249)" fill="none" stroke="#0e1436" stroke-linecap="round" stroke-linejoin="round" stroke-miterlimit="10" stroke-width="0.5"/>
                          </g>
                          <g id="Grupo_1101321" data-name="Grupo 1101321" transform="translate(26.427 3.054)">
                            <path id="Trazado_929123" data-name="Trazado 929123" d="M312.118,179.8c.539-2.709.893-4.98,1.668-5.975a4.413,4.413,0,0,1,3.205-1.78" transform="translate(-312.118 -172.042)" fill="none" stroke="#0e1436" stroke-linecap="round" stroke-linejoin="round" stroke-miterlimit="10" stroke-width="0.5"/>
                            <path id="Trazado_929124" data-name="Trazado 929124" d="M315.284,178.68a2.151,2.151,0,0,0-1.567-2.9" transform="translate(-312.555 -173.064)" fill="none" stroke="#0e1436" stroke-linecap="round" stroke-linejoin="round" stroke-miterlimit="10" stroke-width="0.5"/>
                          </g>
                        </g>
                      </g>
                    </g>
                    <g id="Grupo_1101325" data-name="Grupo 1101325">
                      <path id="Trazado_929125" data-name="Trazado 929125" d="M306.4,162.643l.025,0A10.079,10.079,0,0,0,316,152.388c-2.1,1.906-4.886,3.978-7.725,2.811-.189-.078-.2-.384.008-.415-.067-.012-.132-.011-.2-.025,3.365-1.418,6.355-3.55,7.028-7.468a1.438,1.438,0,0,0-.039-.62,14.284,14.284,0,0,1-3.333,2.513,8.2,8.2,0,0,1-3.572,1.023,5.525,5.525,0,0,1-1.292-.142c-4-.025-4.785-4.964-6.116-7.892-1.237-2.724-2.66-5.943-4.974-7.941-2.289-1.976-5.621-2.365-8.5-2.712a16.921,16.921,0,0,0-15.256,5.621,16.505,16.505,0,0,0-2.934,5.177c-2.171-.552-4.541.54-6.173,2.044-2.552,2.351-3.417,5.388-3.717,8.738a11.763,11.763,0,0,1-.913,4.606c-.059,1.646-2.147,2.754-3.366,3.493a9.539,9.539,0,0,1-5.3,1.713,2.245,2.245,0,0,0,1.036,2.065,10.052,10.052,0,0,0,5.944,1.35c.083-.053.163-.113.25-.158a.25.25,0,0,1,.363.279c-.217.833-1.164,1.393-1.848,1.813a20.029,20.029,0,0,1-2.338,1.36c-.195.086-1.119.259-1.2.422-.166.339.4.772.656.9a3.332,3.332,0,0,0,1.16.262,21.326,21.326,0,0,0,6.034,0c.672-.132,1.246-.634,1.82-.76a4.4,4.4,0,0,1,.07,2.537c-.09.28-1.726,3.849-2.085,3.689a1.443,1.443,0,0,0,.534.132,7.657,7.657,0,0,0,7.4-5.288,15.954,15.954,0,0,0,.564-7.26c-.06-.571-1.1-7.075-.727-7.08a15.052,15.052,0,0,0,12.991-8.093c.923,1.025,1.768,2.13,2.509,3.051,3.128,3.894,5.123,8.811,8.745,12.3,4.459,4.288,16.737,7.784,19.924.587a2.526,2.526,0,0,0,.5-1.827,1.973,1.973,0,0,1-.98.177,4.707,4.707,0,0,1-1.252.026c-.172.02-.342.021-.513.028-.005.012-.009.026-.013.039-.026-.01-.065-.022-.1-.033a7.191,7.191,0,0,1-2.754-.476.151.151,0,0,1-.07-.243l-.11-.041c.074,0,.146-.012.219-.015C306.374,162.65,306.385,162.64,306.4,162.643Z" transform="translate(-249.625 -131.379)" fill="#0e1436"/>
                      <path id="Trazado_929126" data-name="Trazado 929126" d="M326,165.335a.505.505,0,0,0-.669.04,12.441,12.441,0,0,1-.932.976,1,1,0,0,0-.382.139c-4.641,2.811-12.111-.126-15.664-3.466-3.053-2.87-4.591-7.162-7.258-10.375a9.749,9.749,0,0,0-6.3-3.562c-1.623-.1-4.53,1.579-4.653,3.559a7.711,7.711,0,0,1,.495.743,6.331,6.331,0,0,1,.451.974,7.9,7.9,0,0,1,2.545,2.758c.832,1.4,1.467,2.921,2.247,4.355a30.209,30.209,0,0,0,5.6,7.582,19.823,19.823,0,0,0,13.145,5.286c5.921.026,9.268-3.212,11.508-8.354A.518.518,0,0,0,326,165.335Z" transform="translate(-260.691 -136.215)" fill="#354caa"/>
                    </g>
                    <path id="Trazado_929127" data-name="Trazado 929127" d="M293.449,163.813a8.7,8.7,0,0,0-8.644,7.835,3.659,3.659,0,0,0-1,.092,8.684,8.684,0,1,0-.121,2.391,1.618,1.618,0,0,1,1.191-.273,8.682,8.682,0,1,0,8.569-10.046ZM275.16,179.006a6.506,6.506,0,1,1,6.507-6.507A6.514,6.514,0,0,1,275.16,179.006Zm18.289,0a6.506,6.506,0,1,1,6.507-6.507A6.514,6.514,0,0,1,293.449,179.006Z" transform="translate(-254.227 -140.238)" fill="#ed1b43"/>
                  </g>
                </g>
                <g id="Grupo_1101339" data-name="Grupo 1101339" transform="translate(0 116.373)">
                  <g id="Grupo_1101333" data-name="Grupo 1101333">
                    <g id="Grupo_1101330" data-name="Grupo 1101330" transform="translate(0 75.62)">
                      <path id="Trazado_929128" data-name="Trazado 929128" d="M175.821,402.4l-2.174,7.848,10.4,5.464,4.178-6.41Z" transform="translate(-145.605 -402.405)" fill="#ffab9f"/>
                      <g id="Grupo_1101329" data-name="Grupo 1101329" transform="translate(0 1.337)">
                        <path id="Trazado_929129" data-name="Trazado 929129" d="M163.611,409.447s.557,3.762,10.692,6.206l-4.086,9.833a4.451,4.451,0,0,1-6.309,2.234l-26.606-14.7a4.279,4.279,0,0,1-2.2-4.308c.367-2.637,2.05-5.625,8.351-3.187A62.265,62.265,0,0,0,163.611,409.447Z" transform="translate(-135.067 -404.348)" fill="#0e1436"/>
                        <g id="Grupo_1101328" data-name="Grupo 1101328" transform="translate(4.373)">
                          <path id="Trazado_929130" data-name="Trazado 929130" d="M141.083,404.244a5.3,5.3,0,0,1,1.306,6.99l-.784,1,29.413,14.434" transform="translate(-141.083 -404.244)" fill="none" stroke="#a9b6ed" stroke-linecap="round" stroke-linejoin="round" stroke-miterlimit="10" stroke-width="0.5"/>
                          <path id="Trazado_929131" data-name="Trazado 929131" d="M153.524,408.3s4.149,3.276,2.192,6.086" transform="translate(-144.481 -405.352)" fill="none" stroke="#a9b6ed" stroke-linecap="round" stroke-linejoin="round" stroke-miterlimit="10" stroke-width="0.5"/>
                          <path id="Trazado_929132" data-name="Trazado 929132" d="M158.488,409.1s4.748,3.273,3,6.281" transform="translate(-145.837 -405.57)" fill="none" stroke="#a9b6ed" stroke-linecap="round" stroke-linejoin="round" stroke-miterlimit="10" stroke-width="0.5"/>
                          <path id="Trazado_929133" data-name="Trazado 929133" d="M166.071,410.3s3.943,2.878,2.189,5.886" transform="translate(-147.909 -405.897)" fill="none" stroke="#a9b6ed" stroke-linecap="round" stroke-linejoin="round" stroke-miterlimit="10" stroke-width="0.5"/>
                        </g>
                      </g>
                    </g>
                    <g id="Grupo_1101332" data-name="Grupo 1101332" transform="translate(20.916)">
                      <path id="Trazado_929134" data-name="Trazado 929134" d="M295.238,299.852s3.751,17.819-10.036,24.76c-11.339,5.709-56.084,4.783-56.084,4.783l-37.7,55.99-27.573-12.661s42.767-62.461,52.614-70.058S295.238,299.852,295.238,299.852Z" transform="translate(-163.843 -298.366)" fill="#fc755f"/>
                      <g id="Grupo_1101331" data-name="Grupo 1101331" transform="translate(3.189 1.111)">
                        <path id="Trazado_929135" data-name="Trazado 929135" d="M297.181,300.152s-1.313,15.381-14.631,16.882c-19.061,2.148-39.953.563-50.082,6.565s-35.076,55.146-35.076,55.146" transform="translate(-176.197 -299.964)" fill="none" stroke="#bf2b1b" stroke-miterlimit="10" stroke-width="0.5"/>
                        <line id="Línea_624" data-name="Línea 624" x2="27.01" y2="12.755" transform="translate(0 68.838)" fill="none" stroke="#bf2b1b" stroke-miterlimit="10" stroke-width="0.5"/>
                        <path id="Trazado_929136" data-name="Trazado 929136" d="M315.07,299.894s-.188,6.94,11.442,8.253" transform="translate(-208.341 -299.894)" fill="none" stroke="#bf2b1b" stroke-miterlimit="10" stroke-width="0.5"/>
                      </g>
                    </g>
                  </g>
                  <g id="Grupo_1101338" data-name="Grupo 1101338" transform="translate(77.098 28.565)">
                    <g id="Grupo_1101336" data-name="Grupo 1101336" transform="translate(5.657 58.594)">
                      <path id="Trazado_929137" data-name="Trazado 929137" d="M274.683,422.032l3.939,7.128,11.254-3.377-1.5-7.5Z" transform="translate(-255.959 -418.281)" fill="#ffab9f"/>
                      <g id="Grupo_1101335" data-name="Grupo 1101335" transform="translate(0 6.471)">
                        <path id="Trazado_929138" data-name="Trazado 929138" d="M270.956,430.232s3.031,2.3,11.981-3.048l3.962,9.884a4.451,4.451,0,0,1-2.944,6.011L254.662,451.2a4.279,4.279,0,0,1-4.583-1.542c-1.583-2.141-2.472-5.453,3.735-8.12A62.281,62.281,0,0,0,270.956,430.232Z" transform="translate(-248.923 -427.184)" fill="#0e1436"/>
                        <g id="Grupo_1101334" data-name="Grupo 1101334" transform="translate(1.197 6.691)">
                          <path id="Trazado_929139" data-name="Trazado 929139" d="M250.57,447.786a5.3,5.3,0,0,1,5.825,4.08l.142,1.266,31.112-10.27" transform="translate(-250.57 -438.158)" fill="none" stroke="#a9b6ed" stroke-linecap="round" stroke-linejoin="round" stroke-miterlimit="10" stroke-width="0.5"/>
                          <path id="Trazado_929140" data-name="Trazado 929140" d="M262.3,443.816s5.257-.563,5.825,2.814" transform="translate(-253.773 -438.409)" fill="none" stroke="#a9b6ed" stroke-linecap="round" stroke-linejoin="round" stroke-miterlimit="10" stroke-width="0.5"/>
                          <path id="Trazado_929141" data-name="Trazado 929141" d="M266.4,440.876s5.682-.985,6.535,2.391" transform="translate(-254.895 -437.579)" fill="none" stroke="#a9b6ed" stroke-linecap="round" stroke-linejoin="round" stroke-miterlimit="10" stroke-width="0.5"/>
                          <path id="Trazado_929142" data-name="Trazado 929142" d="M272.656,436.451s4.831-.7,5.682,2.673" transform="translate(-256.603 -436.39)" fill="none" stroke="#a9b6ed" stroke-linecap="round" stroke-linejoin="round" stroke-miterlimit="10" stroke-width="0.5"/>
                        </g>
                      </g>
                    </g>
                    <g id="Grupo_1101337" data-name="Grupo 1101337">
                      <path id="Trazado_929143" data-name="Trazado 929143" d="M286.434,395.557c-.518-.173-16.8-44.446-19.357-51.413l.038.018,9.941-4.314c-7.566-2.819-17-2.235-20.621-1.868a19.312,19.312,0,0,0-9.39,1.68c-10.358,4.418-3.939,20.07-3.939,20.07l15.944,43.7S287,395.744,286.434,395.557Z" transform="translate(-241.139 -337.666)" fill="#f75f4f"/>
                      <line id="Línea_625" data-name="Línea 625" y1="8.065" x2="26.635" transform="translate(16.784 53.577)" fill="none" stroke="#bf2b1b" stroke-miterlimit="10" stroke-width="0.5"/>
                    </g>
                  </g>
                </g>
              </g>
              <g id="Grupo_1101341" data-name="Grupo 1101341" transform="translate(83.704 70.376)">
                <rect id="Rectángulo_403115" data-name="Rectángulo 403115" width="20.539" height="1.592" transform="translate(47.784 25.275)" fill="#152c77"/>
                <path id="Trazado_929144" data-name="Trazado 929144" d="M277.029,257.4l-45.527.006-7.852-26.871h45.513Z" transform="translate(-223.65 -230.539)" fill="#354caa"/>
                <path id="Trazado_929145" data-name="Trazado 929145" d="M263.823,251.344a31.911,31.911,0,0,1-18.724-1.7,59.724,59.724,0,0,1-14.841-9.414,31.935,31.935,0,0,1-5.393-5.535l6.969,23.849,45.527-.006-3.317-11.33A34.276,34.276,0,0,1,263.823,251.344Z" transform="translate(-223.982 -231.674)" fill="#274091"/>
                <path id="Trazado_929146" data-name="Trazado 929146" d="M262.752,248.571a6.925,6.925,0,0,0-6.331-5.065,3.824,3.824,0,0,0-3.8,5.065,6.925,6.925,0,0,0,6.331,5.065A3.824,3.824,0,0,0,262.752,248.571Z" transform="translate(-231.521 -234.081)" fill="#849ff4"/>
              </g>
            </g>
            <g id="Grupo_1101343" data-name="Grupo 1101343" transform="translate(0 118.985)">
              <rect id="Rectángulo_403116" data-name="Rectángulo 403116" width="222.554" height="15.341" transform="translate(4.127)" fill="#3d2532"/>
              <rect id="Rectángulo_403117" data-name="Rectángulo 403117" width="203.422" height="8.708" transform="translate(13.693 14.926)" fill="#260f1d"/>
              <path id="Trazado_929147" data-name="Trazado 929147" d="M90.887,409.975H81.134l29.074-110.6h9.754Z" transform="translate(-81.134 -276.213)" fill="#0c0209"/>
              <path id="Trazado_929148" data-name="Trazado 929148" d="M375.756,409.975h9.754l-29.074-110.6h-9.754Z" transform="translate(-153.671 -276.213)" fill="#0c0209"/>
            </g>
            <g id="Grupo_1101354" data-name="Grupo 1101354" transform="translate(16.132)">
              <path id="Trazado_929149" data-name="Trazado 929149" d="M173.855,132.189A35.263,35.263,0,1,0,130.1,166.416l8.61,14.729,8.317-14.716A35.271,35.271,0,0,0,173.855,132.189Z" transform="translate(-103.328 -96.926)" fill="#ffe8e6"/>
              <g id="Grupo_1101353" data-name="Grupo 1101353" transform="translate(9.109 13.412)">
                <g id="Grupo_1101346" data-name="Grupo 1101346" transform="translate(13.177 3.957)">
                  <g id="Grupo_1101344" data-name="Grupo 1101344">
                    <path id="Trazado_929150" data-name="Trazado 929150" d="M148.057,120.822v18.745s2.626.416,2.439,5c-.121,2.954-2.032,3.654-3.376,3.781-1.345-.126-3.256-.826-3.376-3.781-.188-4.582,2.439-5,2.439-5V120.822c-3.189,15.621-12.192,18.745-12.192,18.745l6.752,16.037H153.5l6.752-16.037S151.246,136.443,148.057,120.822Z" transform="translate(-133.989 -120.822)" fill="#579dfd"/>
                    <path id="Trazado_929151" data-name="Trazado 929151" d="M154.74,146.187a25.182,25.182,0,0,1-5.012,1.207,6.3,6.3,0,0,1,.768,3.714c-.121,2.954-2.032,3.654-3.376,3.781-1.345-.126-3.256-.826-3.376-3.781a7.325,7.325,0,0,1,.411-3,10.235,10.235,0,0,1-6.375-1.515,8.978,8.978,0,0,1-1.731-.932c-.161-.113-.31-.243-.463-.367a9.3,9.3,0,0,1-1.6.819l6.752,16.037H153.5l6.752-16.037a10.816,10.816,0,0,1-2.375-1.336A23.847,23.847,0,0,1,154.74,146.187Z" transform="translate(-133.989 -127.365)" fill="#1c7aea"/>
                  </g>
                  <g id="Grupo_1101345" data-name="Grupo 1101345" transform="translate(5.625 34.782)">
                    <rect id="Rectángulo_403118" data-name="Rectángulo 403118" width="14.818" height="9.373" transform="translate(0.002)" fill="#1569bc"/>
                    <path id="Trazado_929152" data-name="Trazado 929152" d="M154.77,174.589a3.42,3.42,0,0,1-1.237-.9,3.307,3.307,0,0,1-.281-.4,5.349,5.349,0,0,1-.691.907,4.826,4.826,0,0,1-2.721,1.462,3.538,3.538,0,0,1-1.53-.1c-.063-.019-.126-.039-.188-.062-.028-.011-.139-.062-.172-.076l.013.007c-.031-.015-.028-.013-.013-.007a4.235,4.235,0,0,1-.388-.2,2.654,2.654,0,0,1-.666-.531,4.459,4.459,0,0,1-.665-1.153,3.11,3.11,0,0,1-1.074,1.4,2.08,2.08,0,0,1-1.595.292c-.055,0-.109.011-.164.007a2.114,2.114,0,0,1-1.578-.991l-.094-.094v5.151h14.818v-4.221A2.1,2.1,0,0,1,154.77,174.589Z" transform="translate(-141.728 -169.938)" fill="#07518e"/>
                  </g>
                </g>
                <g id="Grupo_1101352" data-name="Grupo 1101352">
                  <g id="Grupo_1101347" data-name="Grupo 1101347" transform="translate(24.619)">
                    <rect id="Rectángulo_403119" data-name="Rectángulo 403119" width="3.001" height="3.333" fill="#579dfd"/>
                    <rect id="Rectángulo_403120" data-name="Rectángulo 403120" width="1.313" height="1.458" transform="translate(0.844 0.937)" fill="#1d5aa3"/>
                  </g>
                  <g id="Grupo_1101348" data-name="Grupo 1101348" transform="translate(0 31.163)">
                    <rect id="Rectángulo_403121" data-name="Rectángulo 403121" width="3.001" height="3.333" fill="#579dfd"/>
                    <rect id="Rectángulo_403122" data-name="Rectángulo 403122" width="1.313" height="1.458" transform="translate(0.844 0.937)" fill="#1d5aa3"/>
                  </g>
                  <g id="Grupo_1101349" data-name="Grupo 1101349" transform="translate(51.558 31.163)">
                    <rect id="Rectángulo_403123" data-name="Rectángulo 403123" width="3.001" height="3.333" fill="#579dfd"/>
                    <rect id="Rectángulo_403124" data-name="Rectángulo 403124" width="1.313" height="1.458" transform="translate(0.845 0.937)" fill="#1d5aa3"/>
                  </g>
                  <g id="Grupo_1101350" data-name="Grupo 1101350" transform="translate(43.329 0.234)">
                    <rect id="Rectángulo_403125" data-name="Rectángulo 403125" width="3.001" height="3.333" fill="#579dfd"/>
                    <rect id="Rectángulo_403126" data-name="Rectángulo 403126" width="1.313" height="1.458" transform="translate(0.844 0.937)" fill="#1d5aa3"/>
                  </g>
                  <g id="Grupo_1101351" data-name="Grupo 1101351" transform="translate(7.034 0.234)">
                    <rect id="Rectángulo_403127" data-name="Rectángulo 403127" width="3.001" height="3.333" fill="#579dfd"/>
                    <rect id="Rectángulo_403128" data-name="Rectángulo 403128" width="1.313" height="1.458" transform="translate(0.845 0.937)" fill="#1d5aa3"/>
                  </g>
                  <path id="Trazado_929153" data-name="Trazado 929153" d="M117.892,148.84c-1.758-34.418,24.548-31.033,24.548-31.033s27.925-3.671,27.01,31.033" transform="translate(-116.392 -116.011)" fill="none" stroke="#1d5aa3" stroke-miterlimit="10" stroke-width="1"/>
                  <path id="Trazado_929154" data-name="Trazado 929154" d="M127.7,117.849h35.943" transform="translate(-119.094 -116.053)" fill="none" stroke="#1d5aa3" stroke-miterlimit="10" stroke-width="1"/>
                </g>
              </g>
            </g>
          </g>
        </g>
      </g>
    </g>
  </g>
</svg>
