<svg xmlns="http://www.w3.org/2000/svg" width="122" height="122" viewBox="0 0 122 122">
  <g id="Grupo_1100748" data-name="Grupo 1100748" transform="translate(-724.781 -1923)">
    <g id="Elipse_11514" data-name="Elipse 11514" transform="translate(735.781 1934)" fill="#ffd69b" stroke="#ffeacc" stroke-width="11">
      <circle cx="50" cy="50" r="50" stroke="none"/>
      <circle cx="50" cy="50" r="55.5" fill="none"/>
    </g>
    <g id="_029-obj" data-name="029-obj" transform="translate(756.103 1941.005)">
      <path id="Trazado_930943" data-name="Trazado 930943" d="M142.352,216.505H88.058a1.272,1.272,0,0,1-1.272-1.272V158.374h56.838v56.859A1.272,1.272,0,0,1,142.352,216.505Z" transform="translate(-85.527 -131.775)" fill="#f6f1f1"/>
      <path id="Trazado_930944" data-name="Trazado 930944" d="M86.787,158.374v2.981h50.6a2.856,2.856,0,0,1,2.856,2.856v52.294h2.114a1.272,1.272,0,0,0,1.272-1.272V158.374Z" transform="translate(-85.527 -131.775)" fill="#efe7e4"/>
      <path id="Trazado_930945" data-name="Trazado 930945" d="M130.975,7.5H88.058a1.272,1.272,0,0,0-1.272,1.272V32.839h56.838v-17.4Z" transform="translate(-85.527 -6.24)" fill="#78d0b1"/>
      <path id="Trazado_930946" data-name="Trazado 930946" d="M366.955,56.836l5.036,3.347a3.051,3.051,0,0,1,1.362,2.541V72.17h3.386V54.77Z" transform="translate(-318.642 -45.571)" fill="#66b49d"/>
      <path id="Trazado_930947" data-name="Trazado 930947" d="M349.9,7.5l2.56,9.636a1.062,1.062,0,0,0,1.311.75l8.778-2.447Z" transform="translate(-304.449 -6.24)" fill="#5493a2"/>
      <g id="Grupo_1101470" data-name="Grupo 1101470" transform="translate(9.886 37.962)">
        <path id="Trazado_930948" data-name="Trazado 930948" d="M243.281,226.035l-11.969,20.732h23.939Z" transform="translate(-215.666 -226.035)" fill="#78d0b1"/>
        <path id="Trazado_930949" data-name="Trazado 930949" d="M292.052,226.035l-2.125,3.681,9.844,17.051h4.251Z" transform="translate(-264.436 -226.035)" fill="#66b49d"/>
        <ellipse id="Elipse_11550" data-name="Elipse 11550" cx="11.097" cy="11.097" rx="11.097" ry="11.097" transform="translate(0 2.915)" fill="#dd636e"/>
        <path id="Trazado_930950" data-name="Trazado 930950" d="M194.9,243.394a11.149,11.149,0,0,0-1.881.162,11.095,11.095,0,0,1,0,21.869,11.1,11.1,0,1,0,1.881-22.031Z" transform="translate(-183.805 -240.479)" fill="#da4a54"/>
        <path id="Trazado_930951" data-name="Trazado 930951" d="M197.985,315.34h20.406v20.406H197.985Z" transform="translate(-187.936 -300.341)" fill="#80b4fb"/>
        <path id="Trazado_930952" data-name="Trazado 930952" d="M298.433,315.34h3.535v20.406h-3.535Z" transform="translate(-271.514 -300.341)" fill="#61a2f9"/>
      </g>
      <g id="Grupo_1101471" data-name="Grupo 1101471" transform="translate(0 0)">
        <path id="Trazado_930953" data-name="Trazado 930953" d="M138.054,8.132,125.405.193a1.261,1.261,0,0,0-.67-.193H104.247a1.26,1.26,0,1,0,0,2.519h19.519l2.311,8.7a2.321,2.321,0,0,0,2.867,1.64l7.18-2V25.339H81.806V2.531a.012.012,0,0,1,.012-.012H99.211a1.26,1.26,0,1,0,0-2.519H81.818a2.534,2.534,0,0,0-2.531,2.531V83.458a2.534,2.534,0,0,0,2.531,2.532h54.294a2.535,2.535,0,0,0,2.532-2.532V77.114a1.26,1.26,0,1,0-2.519,0v6.344a.013.013,0,0,1-.012.012H81.818a.012.012,0,0,1-.012-.012v-55.6h54.319v44.22a1.26,1.26,0,1,0,2.519,0V9.2a1.26,1.26,0,0,0-.59-1.067Zm-9.593,2.247-1.688-6.352L134.3,8.75Z" transform="translate(-79.287 0)"/>
        <path id="Trazado_930957" data-name="Trazado 930957" d="M161.1,253.94H150.47a1.26,1.26,0,1,0,0,2.519h11.893a1.259,1.259,0,0,0,1.26-1.26V241.787h7.871a1.26,1.26,0,0,0,1.091-1.889l-11.97-20.732a1.26,1.26,0,0,0-2.182,0l-4.811,8.332A12.353,12.353,0,1,0,140.7,245.947V255.2a1.259,1.259,0,0,0,1.26,1.26h3.354a1.26,1.26,0,0,0,0-2.519h-2.094V236.054H161.1V253.94Zm-19.146-20.406a1.259,1.259,0,0,0-1.26,1.26v8.576a9.837,9.837,0,1,1,12.137-9.836Zm13.4,0a12.309,12.309,0,0,0-.483-3.161l4.652-8.058,9.788,16.953h-5.689v-4.473a1.259,1.259,0,0,0-1.26-1.26Z" transform="translate(-122.022 -181.833)"/>
        <path id="Trazado_931272" data-name="Trazado 931272" d="M13.072-4.3a3.626,3.626,0,0,1-.32,1.406,5.07,5.07,0,0,1-1.007,1.484A5.136,5.136,0,0,1,9.992-.223,6.3,6.3,0,0,1,7.505.232a8.688,8.688,0,0,1-1.958-.2,5.5,5.5,0,0,1-1.6-.635A5.4,5.4,0,0,1,2.625-1.744a6.754,6.754,0,0,1-.918-1.433,7.474,7.474,0,0,1-.571-1.693,9.229,9.229,0,0,1-.19-1.911,8.478,8.478,0,0,1,.478-2.941,6.273,6.273,0,0,1,1.368-2.222A5.969,5.969,0,0,1,4.88-13.35a6.759,6.759,0,0,1,2.551-.482,6.374,6.374,0,0,1,2.941.659,5.323,5.323,0,0,1,1.976,1.628,3.215,3.215,0,0,1,.687,1.832,1.194,1.194,0,0,1-.334.835,1.059,1.059,0,0,1-.807.362,1.115,1.115,0,0,1-.793-.25,3.469,3.469,0,0,1-.589-.863,4.15,4.15,0,0,0-1.266-1.512,3.092,3.092,0,0,0-1.8-.5,3.253,3.253,0,0,0-2.7,1.29A5.84,5.84,0,0,0,3.739-6.689,6.805,6.805,0,0,0,4.184-4.05,3.332,3.332,0,0,0,5.446-2.477a3.483,3.483,0,0,0,1.911.52,3.355,3.355,0,0,0,2.009-.589A3.558,3.558,0,0,0,10.6-4.277a2.936,2.936,0,0,1,.436-.877.986.986,0,0,1,.835-.339,1.167,1.167,0,0,1,.844.343A1.143,1.143,0,0,1,13.072-4.3Zm10.8,2.755-.649-1.707H17.692L17.043-1.5a6.106,6.106,0,0,1-.649,1.378,1.032,1.032,0,0,1-.881.357,1.292,1.292,0,0,1-.918-.38,1.165,1.165,0,0,1-.4-.863,1.924,1.924,0,0,1,.093-.575q.093-.3.306-.826l3.479-8.832.357-.914a4.62,4.62,0,0,1,.445-.886,1.809,1.809,0,0,1,.622-.571,1.905,1.905,0,0,1,.951-.218,1.926,1.926,0,0,1,.96.218,1.846,1.846,0,0,1,.622.561,3.937,3.937,0,0,1,.4.738q.162.394.413,1.053l3.553,8.776a4.411,4.411,0,0,1,.417,1.457,1.206,1.206,0,0,1-.394.867,1.3,1.3,0,0,1-.951.394A1.233,1.233,0,0,1,24.91.116,1.14,1.14,0,0,1,24.52-.2a2.9,2.9,0,0,1-.339-.612Q24-1.225,23.871-1.54ZM18.416-5.316h4.063l-2.05-5.613ZM30.161-13.6h3.59a9.68,9.68,0,0,1,2.4.26,4.417,4.417,0,0,1,1.818.974Q40.1-10.548,40.1-6.837A10.849,10.849,0,0,1,39.884-4.6a6.6,6.6,0,0,1-.659,1.823,5.665,5.665,0,0,1-1.141,1.452,4.72,4.72,0,0,1-1.2.789,5.42,5.42,0,0,1-1.4.417A10.629,10.629,0,0,1,33.807,0h-3.59a2.247,2.247,0,0,1-1.132-.227,1.057,1.057,0,0,1-.5-.64,4.068,4.068,0,0,1-.116-1.072v-9.973a1.769,1.769,0,0,1,.4-1.29A1.769,1.769,0,0,1,30.161-13.6Zm1.067,2.18v9.231h2.087q.687,0,1.076-.037a3.363,3.363,0,0,0,.807-.186,2.2,2.2,0,0,0,.724-.417Q37.3-4,37.3-6.856A5.931,5.931,0,0,0,36.7-9.871a2.705,2.705,0,0,0-1.5-1.276,7.391,7.391,0,0,0-2.152-.274Z" transform="translate(5.106 20.21)"/>
      </g>
    </g>
  </g>
</svg>
