<svg xmlns="http://www.w3.org/2000/svg" width="122" height="122" viewBox="0 0 122 122">
  <g id="Grupo_1100748" data-name="Grupo 1100748" transform="translate(-724.781 -1923)">
    <g id="Elipse_11514" data-name="Elipse 11514" transform="translate(735.781 1934)" fill="#ffd69b" stroke="#ffeacc" stroke-width="11">
      <circle cx="50" cy="50" r="50" stroke="none"/>
      <circle cx="50" cy="50" r="55.5" fill="none"/>
    </g>
    <g id="_022-dwg" data-name="022-dwg" transform="translate(756.103 1941.005)">
      <path id="Trazado_930840" data-name="Trazado 930840" d="M142.352,216.505H88.058a1.272,1.272,0,0,1-1.272-1.272V158.374h56.838v56.859A1.272,1.272,0,0,1,142.352,216.505Z" transform="translate(-85.527 -131.775)" fill="#f6f1f1"/>
      <path id="Trazado_930841" data-name="Trazado 930841" d="M86.787,158.374v2.981h50.6a2.856,2.856,0,0,1,2.856,2.856v52.294h2.114a1.272,1.272,0,0,0,1.272-1.272V158.374Z" transform="translate(-85.527 -131.775)" fill="#efe7e4"/>
      <path id="Trazado_930842" data-name="Trazado 930842" d="M130.975,7.5H88.058a1.272,1.272,0,0,0-1.272,1.272V32.839h56.838v-17.4Z" transform="translate(-85.527 -6.24)" fill="#80b4fb"/>
      <path id="Trazado_930843" data-name="Trazado 930843" d="M366.955,56.836l5.036,3.347a3.051,3.051,0,0,1,1.362,2.541V72.17h3.386V54.77Z" transform="translate(-318.642 -45.571)" fill="#61a2f9"/>
      <path id="Trazado_930844" data-name="Trazado 930844" d="M349.9,7.5l2.56,9.636a1.062,1.062,0,0,0,1.311.75l8.778-2.447Z" transform="translate(-304.449 -6.24)" fill="#3b66c1"/>
      <g id="Grupo_1101455" data-name="Grupo 1101455" transform="translate(0 0)">
        <path id="Trazado_930845" data-name="Trazado 930845" d="M138.054,8.132,125.405.193a1.26,1.26,0,0,0-.67-.193H104.247a1.26,1.26,0,1,0,0,2.519h19.519l2.311,8.7a2.321,2.321,0,0,0,2.867,1.64l7.18-2V25.339H81.806V2.532a.012.012,0,0,1,.012-.012H99.211a1.26,1.26,0,1,0,0-2.519H81.818a2.534,2.534,0,0,0-2.531,2.532V83.458a2.534,2.534,0,0,0,2.531,2.531h54.294a2.534,2.534,0,0,0,2.532-2.531V77.114a1.26,1.26,0,1,0-2.519,0v6.344a.012.012,0,0,1-.012.012H98c.021-11.364.02-22.853,0-34.18h3.776a1.259,1.259,0,0,0,1.26-1.26V44.255c11.158.01,21.939.011,33.087,0V72.078a1.26,1.26,0,1,0,2.519,0V9.2a1.26,1.26,0,0,0-.59-1.067Zm-9.593,2.247-1.688-6.353L134.3,8.751ZM95.488,27.858c.014,2.918.015,5.881,0,8.841H91.706a1.259,1.259,0,0,0-1.26,1.26v3.781c-2.9.006-5.792.006-8.64,0V27.858Zm0,55.612H81.818a.012.012,0,0,1-.012-.012v-39.2c3.158.008,5.767.007,8.64,0v3.773a1.259,1.259,0,0,0,1.26,1.26h3.777C95.505,60.617,95.506,72.106,95.485,83.47Zm5.034-36.7H92.966V39.218h7.554Zm2.519-5.036V37.959a1.259,1.259,0,0,0-1.26-1.26h-3.77c.013-2.959.013-5.922,0-8.841h38.117V41.736c-10.942.01-22.06.01-33.087,0Z" transform="translate(-79.287 0)"/>
        <path id="Trazado_930846" data-name="Trazado 930846" d="M112.228,53.807a1.311,1.311,0,0,0,1.283,1.446h0c.1,0,2.416-.009,3.341-.026,3.349-.058,5.78-2.992,5.78-6.976,0-4.188-2.37-7-5.9-7h-3.252a1.26,1.26,0,0,0-1.26,1.262v.009h0ZM116.74,43.77c2.49,0,3.378,2.315,3.378,4.482,0,2.119-1.034,4.417-3.3,4.457-.467.008-1.323.015-2.047.019,0-1.357-.014-7.547-.017-8.958Z" transform="translate(-106.696 -34.323)"/>
        <path id="Trazado_930847" data-name="Trazado 930847" d="M274.644,42.726a4.632,4.632,0,0,1,2.6.795,1.26,1.26,0,0,0,1.41-2.088,7.177,7.177,0,1,0-4.013,13.126c3.749,0,6.367-2.951,6.367-7.176a1.259,1.259,0,0,0-1.26-1.26h-3.54a1.26,1.26,0,1,0,0,2.519h2.163c-.338,1.761-1.436,3.4-3.73,3.4a4.657,4.657,0,1,1,0-9.314Z" transform="translate(-235.863 -33.454)"/>
        <path id="Trazado_930848" data-name="Trazado 930848" d="M179.749,48.985l-1.536-7.763a1.26,1.26,0,0,0-2.471.489l2.306,11.656a1.526,1.526,0,0,0,2.943.125l2.4-7.744c2.514,8.158,2.385,7.744,2.4,7.8a1.54,1.54,0,0,0,1.449,1.016,1.524,1.524,0,0,0,1.478-1.195l2.315-11.63a1.26,1.26,0,1,0-2.471-.492l-1.541,7.742-2.43-7.889a1.26,1.26,0,0,0-2.439.123Z" transform="translate(-159.523 -33.454)"/>
        <path id="Trazado_930849" data-name="Trazado 930849" d="M176.979,249.515a1.259,1.259,0,0,0,1.26-1.26v-.761a1.26,1.26,0,1,0-2.519,0v.761A1.26,1.26,0,0,0,176.979,249.515Z" transform="translate(-159.523 -204.879)"/>
      </g>
    </g>
  </g>
</svg>
