<svg xmlns="http://www.w3.org/2000/svg" width="166" height="144" viewBox="0 0 166 144">
  <g id="Grupo_1101374" data-name="Grupo 1101374" transform="translate(-622 -1986)">
    <rect id="Image_Place_Holder" data-name="Image Place Holder" width="166" height="144" rx="10" transform="translate(622 1986)" fill="#ff9a09"/>
    <circle id="Elipse_11543" data-name="Elipse 11543" cx="53.5" cy="53.5" r="53.5" transform="translate(668.813 2000)" fill="#d6d8fc"/>
    <g id="Elipse_11544" data-name="Elipse 11544" transform="translate(638.813 2020)" fill="none" stroke="#d6d8fc" stroke-width="1">
      <circle cx="31" cy="31" r="31" stroke="none"/>
      <circle cx="31" cy="31" r="30.5" fill="none"/>
    </g>
    <circle id="Elipse_11545" data-name="Elipse 11545" cx="20" cy="20" r="20" transform="translate(695.813 2035)" fill="#fff"/>
    <g id="Grupo_1101359" data-name="Grupo 1101359" transform="translate(618.727 2012.963)">
      <g id="Grupo_1101365" data-name="Grupo 1101365" transform="translate(51.36 14.053)">
        <path id="Trazado_929915" data-name="Trazado 929915" d="M100.8,448.943v-2.28a9.245,9.245,0,0,0-9.245-9.245H69.33a9.245,9.245,0,0,0-9.245,9.245v2.552H99.76Z" transform="translate(-59.637 -374.514)" fill="#2abcc8"/>
        <path id="Trazado_929916" data-name="Trazado 929916" d="M236.168,437.417h-3.122a9.245,9.245,0,0,1,9.245,9.245v2.552h3.122v-2.552A9.245,9.245,0,0,0,236.168,437.417Z" transform="translate(-202.168 -374.513)" fill="#0cacba"/>
        <path id="Trazado_929917" data-name="Trazado 929917" d="M155.559,351.02h-9.391v10.84l-1.891,2.13v2.879a6.586,6.586,0,1,0,13.172,0v-2.861l-1.891-2.148V351.02Z" transform="translate(-129.017 -303.316)" fill="#ffb09e"/>
        <path id="Trazado_929918" data-name="Trazado 929918" d="M144.277,351.02v12.971a16.107,16.107,0,0,0,13.172.018V351.02Z" transform="translate(-129.017 -303.316)" fill="#ffa78f"/>
        <path id="Trazado_929919" data-name="Trazado 929919" d="M300.332,422.388h-6.883v14.441h5.842l1.041-.4Z" transform="translate(-251.944 -362.128)" fill="#ffcebf"/>
        <path id="Trazado_929920" data-name="Trazado 929920" d="M328.16,328.945a2.471,2.471,0,0,0-1.432,2.241v16.937h3.905V331.186a2.471,2.471,0,0,0-1.432-2.241Z" transform="translate(-279.368 -285.125)" fill="#ffcebf"/>
        <path id="Trazado_929921" data-name="Trazado 929921" d="M201.125,206.247l1.428-16.2A6.575,6.575,0,0,0,196,182.9H183.509v23.35Z" transform="translate(-161.347 -164.772)" fill="#444"/>
        <path id="Trazado_929922" data-name="Trazado 929922" d="M231.4,278.461h7.726a5.378,5.378,0,0,1,5.378,5.378v.033a5.378,5.378,0,0,1-5.378,5.378H231.4Z" transform="translate(-200.813 -243.523)" fill="#ffa78f"/>
        <path id="Trazado_929923" data-name="Trazado 929923" d="M70.644,289.252H62.918a5.378,5.378,0,0,1-5.378-5.378v-.033a5.378,5.378,0,0,1,5.378-5.378h7.726Z" transform="translate(-57.54 -243.524)" fill="#ffa78f"/>
        <g id="Grupo_1101359-2" data-name="Grupo 1101359" transform="translate(5.975 21.717)">
          <path id="Trazado_929924" data-name="Trazado 929924" d="M122.247,224.727v-5.615a15.379,15.379,0,1,0-30.746,0v5.615a15.379,15.379,0,1,0,30.746,0Z" transform="translate(-91.501 -203.316)" fill="#ffcebf"/>
        </g>
        <path id="Trazado_929925" data-name="Trazado 929925" d="M155.024,352.178a4.7,4.7,0,0,0,9.391,0Z" transform="translate(-137.873 -304.271)" fill="#ffa799"/>
        <g id="Grupo_1101360" data-name="Grupo 1101360" transform="translate(29.033 46.606)">
          <path id="Trazado_929926" data-name="Trazado 929926" d="M226.75,347.385h-2.89a1.3,1.3,0,1,1,0-2.6h2.89a1.3,1.3,0,1,1,0,2.6Z" transform="translate(-222.559 -344.783)" fill="#fe8f83"/>
        </g>
        <path id="Trazado_929927" data-name="Trazado 929927" d="M174.747,203.1a15.84,15.84,0,0,1,14.679,15.8v5.615a15.827,15.827,0,0,1-14.72,15.795,15.852,15.852,0,0,0,17.149-15.795V218.9A15.851,15.851,0,0,0,174.747,203.1Z" transform="translate(-154.092 -181.388)" fill="#ffb09e"/>
        <g id="Grupo_1101361" data-name="Grupo 1101361" transform="translate(9.217 46.606)">
          <path id="Trazado_929928" data-name="Trazado 929928" d="M111.23,347.385h2.89a1.3,1.3,0,1,0,0-2.6h-2.89a1.3,1.3,0,1,0,0,2.6Z" transform="translate(-109.929 -344.783)" fill="#fe8f83"/>
        </g>
        <path id="Trazado_929929" data-name="Trazado 929929" d="M293.449,422.388h7.924v14.441h-7.924Z" transform="translate(-251.944 -362.128)" fill="#ffcebf"/>
        <path id="Trazado_929930" data-name="Trazado 929930" d="M326.655,422.388h2.081v14.441h-2.081Z" transform="translate(-279.308 -362.128)" fill="#ffb09e"/>
        <path id="Trazado_929931" data-name="Trazado 929931" d="M335.91,327.627a2.458,2.458,0,0,0-1.041.232A2.471,2.471,0,0,1,336.3,330.1v16.937h2.081V330.1A2.473,2.473,0,0,0,335.91,327.627Z" transform="translate(-286.077 -284.039)" fill="#ffb09e"/>
        <path id="Trazado_929932" data-name="Trazado 929932" d="M94.069,155.079H82.549A10.718,10.718,0,0,0,71.831,165.8v10.98H91.149A10.849,10.849,0,0,0,102,165.928v-2.921A7.928,7.928,0,0,0,94.069,155.079Z" transform="translate(-69.317 -141.848)" fill="#5a5a5a"/>
        <path id="Trazado_929933" data-name="Trazado 929933" d="M178.857,155.079h-4.163a7.928,7.928,0,0,1,7.929,7.929v2.921a10.849,10.849,0,0,1-10.849,10.849h4.163a10.849,10.849,0,0,0,10.849-10.849v-2.921A7.929,7.929,0,0,0,178.857,155.079Z" transform="translate(-151.675 -141.848)" fill="#444"/>
        <path id="Trazado_929934" data-name="Trazado 929934" d="M290.2,394.45H278.62a2.089,2.089,0,0,0-.153.781V404.5a2.082,2.082,0,0,0,2.081,2.081h8.234a2.081,2.081,0,0,0,2.08-2.081v-9.39A.664.664,0,0,0,290.2,394.45Z" transform="translate(-239.598 -339.106)" fill="#ffcebf"/>
        <path id="Trazado_929935" data-name="Trazado 929935" d="M292.62,398.41v-9.274a2.082,2.082,0,0,0-2.081-2.081h-9.274a2.081,2.081,0,0,0-1.929,1.3h10.539a.664.664,0,0,1,.664.664v9.39a2.082,2.082,0,0,1-2.081,2.081h2.081A2.089,2.089,0,0,0,292.62,398.41Z" transform="translate(-240.314 -333.012)" fill="#ffb09e"/>
        <g id="Grupo_1101364" data-name="Grupo 1101364" transform="translate(37.128)">
          <path id="Trazado_929936" data-name="Trazado 929936" d="M297.812,244.308a5.393,5.393,0,1,0,10.78-.322v-.671H298.145v.671Z" transform="translate(-292.667 -214.561)" fill="#bfbfbf"/>
          <path id="Trazado_929937" data-name="Trazado 929937" d="M302.471,206.661H292.44a1.612,1.612,0,0,0,0,3.224h10.031a1.612,1.612,0,1,0,0-3.224Z" transform="translate(-286.912 -184.355)" fill="#cecece"/>
          <path id="Trazado_929938" data-name="Trazado 929938" d="M302.471,224.988H292.44a1.612,1.612,0,0,0,0,3.224h10.031a1.612,1.612,0,1,0,0-3.224Z" transform="translate(-286.912 -199.458)" fill="#cecece"/>
          <path id="Trazado_929939" data-name="Trazado 929939" d="M277.889,80.307a10.557,10.557,0,0,0-7.94,15.665,50.861,50.861,0,0,1,3.383,7.1h10.176a54.218,54.218,0,0,1,3.413-7.155A10.472,10.472,0,0,0,277.889,80.307Z" transform="translate(-268.569 -80.231)" fill="#fff0ad"/>
          <path id="Trazado_929940" data-name="Trazado 929940" d="M321.54,79.953a10.544,10.544,0,0,1,7.991,15.613,54.265,54.265,0,0,0-3.413,7.155h2.428a54.223,54.223,0,0,1,3.413-7.155A10.548,10.548,0,0,0,321.54,79.953Z" transform="translate(-312.221 -79.877)" fill="#ffe177"/>
          <path id="Trazado_929941" data-name="Trazado 929941" d="M345.633,206.661h-2.428a1.612,1.612,0,0,1,1.612,1.612c0,.89,1.3,1.612.408,1.612h.408a1.612,1.612,0,0,0,0-3.224Z" transform="translate(-330.074 -184.355)" fill="#bfbfbf"/>
          <path id="Trazado_929942" data-name="Trazado 929942" d="M306.463,230.89c-9.048,0-8.423-.021-8.709.05,0,3.106,0,2.891.01,3.126.279.068-.348.048,8.686.048a5.57,5.57,0,0,1-4.341,5.065,5.568,5.568,0,0,0,6.778-5.23c.007-.2.005.117.005-2.892Z" transform="translate(-292.619 -204.319)" fill="#acacac"/>
          <path id="Trazado_929943" data-name="Trazado 929943" d="M345.633,224.986h-.408c.89,0-.408.722-.408,1.612a1.612,1.612,0,0,1-1.612,1.612h2.428a1.612,1.612,0,0,0,0-3.224Z" transform="translate(-330.074 -199.456)" fill="#bfbfbf"/>
          <g id="Grupo_1101362" data-name="Grupo 1101362" transform="translate(3.916 22.306)">
            <path id="Trazado_929944" data-name="Trazado 929944" d="M301.656,208.273a1.612,1.612,0,0,0-1.612-1.612h-7.6a1.612,1.612,0,0,0,0,3.224h7.6A1.612,1.612,0,0,0,301.656,208.273Z" transform="translate(-290.829 -206.661)" fill="#cecece"/>
          </g>
          <g id="Grupo_1101363" data-name="Grupo 1101363" transform="translate(3.916 25.53)">
            <path id="Trazado_929945" data-name="Trazado 929945" d="M301.657,226.6a1.612,1.612,0,0,0-1.612-1.612h-7.6a1.612,1.612,0,0,0,0,3.224h7.6A1.612,1.612,0,0,0,301.657,226.6Z" transform="translate(-290.83 -224.988)" fill="#cecece"/>
          </g>
        </g>
      </g>
      <g id="Grupo_1101373" data-name="Grupo 1101373" transform="translate(50.04)">
        <path id="Trazado_929946" data-name="Trazado 929946" d="M158.373,344.678h-9.391a1.32,1.32,0,0,0-1.32,1.32,6.015,6.015,0,1,0,12.03,0A1.319,1.319,0,0,0,158.373,344.678Zm-4.7,4.7a3.381,3.381,0,0,1-3.107-2.056h6.215A3.381,3.381,0,0,1,153.678,349.374Z" transform="translate(-130.488 -284.037)"/>
        <path id="Trazado_929947" data-name="Trazado 929947" d="M219.773,299.8a1.32,1.32,0,0,0-1.32,1.32v2.927a1.32,1.32,0,1,0,2.639,0v-2.927A1.32,1.32,0,0,0,219.773,299.8Z" transform="translate(-188.823 -247.053)"/>
        <path id="Trazado_929948" data-name="Trazado 929948" d="M131.57,299.8a1.32,1.32,0,0,0-1.32,1.32v2.927a1.32,1.32,0,1,0,2.639,0v-2.927A1.32,1.32,0,0,0,131.57,299.8Z" transform="translate(-116.138 -247.053)"/>
        <g id="Grupo_1101372" data-name="Grupo 1101372">
          <path id="Trazado_929949" data-name="Trazado 929949" d="M98.864,72.407A11.914,11.914,0,0,0,87.175,84.2a13.137,13.137,0,0,0,2.191,7.08,8.167,8.167,0,0,0-2.648-.713,9.255,9.255,0,0,0-8.177-4.935H64.592a12.074,12.074,0,0,0-5.48,1.317h0a12,12,0,0,0-6.555,10.719v2.475a1.32,1.32,0,1,0,2.639,0V97.669a9.368,9.368,0,0,1,5.119-8.37h0a9.3,9.3,0,0,1,4.278-1.027H78.54A6.618,6.618,0,0,1,85.059,93.8a27.252,27.252,0,0,1-.152,6.13,9.551,9.551,0,0,1-9.287,7.4H55.193V106.3a1.32,1.32,0,1,0-2.639,0c0,2.472-.006,2.365.01,2.5a6.687,6.687,0,0,0-2.524,5.233v.033a6.705,6.705,0,0,0,6.425,6.691A17.227,17.227,0,0,0,65.3,132.091V135.3H61.052a10.577,10.577,0,0,0-10.565,10.565v2.552a1.32,1.32,0,0,0,1.32,1.32H80.23a1.32,1.32,0,1,0,0-2.639h-27.1v-1.232a7.934,7.934,0,0,1,7.926-7.926h4.276a7.9,7.9,0,0,0,15.753,0h4.278a7.906,7.906,0,0,1,3.549.839,3.366,3.366,0,0,0,2.636,3.651V147.1H86.387a1.32,1.32,0,0,0,0,2.639h14.4a1.319,1.319,0,0,0,1.32-1.32v-5.946a3.4,3.4,0,0,0,2.877-3.357v-9.274s0,0,0,0V119.781a3.792,3.792,0,1,0-7.585,0v6.663h-5.09a3.4,3.4,0,0,0-3.4,3.4v6.073a10.556,10.556,0,0,0-3.549-.614H81.111v-3.183a17.174,17.174,0,0,0,8.882-11.362,6.717,6.717,0,0,0,3.079-12.491l.149-1.69a6.887,6.887,0,0,0,12.857-3.607,2.923,2.923,0,0,0,.415-3.72,2.925,2.925,0,0,0-.024-3.258c2.532-6.136,4.416-7.2,4.416-11.731A11.856,11.856,0,0,0,98.864,72.407Zm.6,74.695H94.184V142.52h5.285Zm.57-27.32a1.153,1.153,0,1,1,2.307,0v6.749a3.6,3.6,0,0,0-.762-.086h-1.545v-6.663Zm-8.491,10.064a.763.763,0,0,1,.762-.762h9.274a.763.763,0,0,1,.762.762s0,0,0,0v9.27a.763.763,0,0,1-.762.762H92.31a.763.763,0,0,1-.762-.762Zm12.573-32.488a.292.292,0,0,1-.074.575,1.32,1.32,0,1,0,0,2.639.292.292,0,0,1,.131.553.338.338,0,0,1-.067.025c-.073.018-10.063,0-10.159,0a.292.292,0,0,1,.063-.577,1.32,1.32,0,1,0,0-2.639.29.29,0,0,1-.122-.028c-.011-.168-.028-.334-.05-.5a.15.15,0,0,1,.045-.027C94.326,97.324,104.077,97.345,104.121,97.357ZM56.059,118.071a4.065,4.065,0,0,1-3.38-4v-.033a4.065,4.065,0,0,1,3.378-4c-.071,1.013-.058,7.148,0,7.994C56.057,118.043,56.058,118.057,56.059,118.071ZM78.473,133.2v4.07a5.267,5.267,0,0,1-10.533,0v-4.079A17.351,17.351,0,0,0,78.473,133.2Zm-4.226-1.879a14.528,14.528,0,0,1-15.41-12.185,15.308,15.308,0,0,1-.183-2.292v-5.615c0-.358.014-.777.056-1.265H75.62a12.218,12.218,0,0,0,10.36-5.786,15.333,15.333,0,0,1,1.632,4.7c.244,1.5.19,1.956.19,7.962A14.581,14.581,0,0,1,74.247,131.325ZM90.4,118.063c.027-.381.043-.856.043-1.215v-5.615c0-.384-.018-.846-.041-1.191a4.079,4.079,0,0,1,0,8.021ZM90,107.347a16.851,16.851,0,0,0-1.389-3.833,16.284,16.284,0,0,0-1.337-2.216,12.019,12.019,0,0,0,.5-2.912,43.4,43.4,0,0,0-.093-4.922l0-.018A5.174,5.174,0,0,1,89.9,94.87a5.249,5.249,0,0,1,1.227,2.312,4.447,4.447,0,0,1,.143,1.47c-.009.2.052-.521-.764,8.738l-.039,0C90.309,107.368,90.155,107.354,90,107.347Zm9.191.049a4.256,4.256,0,0,1-4.2-3.6c1.171.005,3.075,0,8.4,0A4.256,4.256,0,0,1,99.191,107.4Zm4.955-12.687c-.073,0-1.377,0-1.454,0l1.011-5.2a1.32,1.32,0,0,0-2.591-.5L100,94.7l-1.947,0-1.108-5.691a1.32,1.32,0,0,0-2.591.5l1.01,5.188c-.012,0-1.4.012-1.449.013-2.533-6.122-4.124-6.737-4.1-10.5A9.261,9.261,0,0,1,98.9,75.045a9.217,9.217,0,0,1,9.347,9.216C108.248,87.958,106.685,88.629,104.146,94.709Z" transform="translate(-50.04 -59.667)"/>
          <g id="Grupo_1101371" data-name="Grupo 1101371" transform="translate(25.516)">
            <g id="Grupo_1101366" data-name="Grupo 1101366" transform="translate(22.156)">
              <path id="Trazado_929950" data-name="Trazado 929950" d="M322.32,8.911A1.319,1.319,0,0,1,321,7.592V1.32a1.32,1.32,0,1,1,2.639,0V7.592A1.319,1.319,0,0,1,322.32,8.911Z" transform="translate(-321)"/>
            </g>
            <g id="Grupo_1101367" data-name="Grupo 1101367" transform="translate(38.038 21.03)">
              <path id="Trazado_929951" data-name="Trazado 929951" d="M418.869,122.169H412.6a1.32,1.32,0,0,1,0-2.639h6.272a1.32,1.32,0,0,1,0,2.639Z" transform="translate(-411.277 -119.53)"/>
            </g>
            <g id="Grupo_1101368" data-name="Grupo 1101368" transform="translate(0 21.03)">
              <path id="Trazado_929952" data-name="Trazado 929952" d="M202.662,122.169H196.39a1.32,1.32,0,0,1,0-2.639h6.273a1.32,1.32,0,1,1,0,2.639Z" transform="translate(-195.07 -119.53)"/>
            </g>
            <g id="Grupo_1101369" data-name="Grupo 1101369" transform="translate(6.489 6.489)">
              <path id="Trazado_929953" data-name="Trazado 929953" d="M236.777,43.572l-4.435-4.435a1.319,1.319,0,1,1,1.866-1.866l4.435,4.435a1.32,1.32,0,1,1-1.866,1.866Z" transform="translate(-231.955 -36.884)"/>
            </g>
            <g id="Grupo_1101370" data-name="Grupo 1101370" transform="translate(33.386 6.489)">
              <path id="Trazado_929954" data-name="Trazado 929954" d="M385.221,43.572a1.319,1.319,0,0,1,0-1.866l4.435-4.435a1.319,1.319,0,1,1,1.866,1.866l-4.435,4.435A1.32,1.32,0,0,1,385.221,43.572Z" transform="translate(-384.834 -36.884)"/>
            </g>
          </g>
        </g>
      </g>
    </g>
    <path id="Polígono_1" data-name="Polígono 1" d="M5.143,1.429a1,1,0,0,1,1.715,0l4.234,7.056A1,1,0,0,1,10.234,10H1.766A1,1,0,0,1,.909,8.486Z" transform="translate(745.813 2092)" fill="#9a9ef7"/>
    <path id="Polígono_2" data-name="Polígono 2" d="M5.143,1.429a1,1,0,0,1,1.715,0l4.234,7.056A1,1,0,0,1,10.234,10H1.766A1,1,0,0,1,.909,8.486Z" transform="translate(663.813 2000)" fill="#9a9ef7"/>
    <path id="Polígono_3" data-name="Polígono 3" d="M5.143,1.429a1,1,0,0,1,1.715,0l4.234,7.056A1,1,0,0,1,10.234,10H1.766A1,1,0,0,1,.909,8.486Z" transform="translate(646.813 2100)" fill="#9a9ef7"/>
    <path id="Polígono_4" data-name="Polígono 4" d="M5.143,1.429a1,1,0,0,1,1.715,0l4.234,7.056A1,1,0,0,1,10.234,10H1.766A1,1,0,0,1,.909,8.486Z" transform="translate(678.813 2018)" fill="#fff"/>
    <path id="Polígono_5" data-name="Polígono 5" d="M5.143,1.429a1,1,0,0,1,1.715,0l4.234,7.056A1,1,0,0,1,10.234,10H1.766A1,1,0,0,1,.909,8.486Z" transform="translate(751.813 2034)" fill="#fff"/>
  </g>
</svg>
