<svg xmlns="http://www.w3.org/2000/svg" width="122" height="122" viewBox="0 0 122 122">
  <g id="Grupo_1100748" data-name="Grupo 1100748" transform="translate(-724.781 -1923)">
    <g id="Elipse_11514" data-name="Elipse 11514" transform="translate(735.781 1934)" fill="#ffd69b" stroke="#ffeacc" stroke-width="11">
      <circle cx="50" cy="50" r="50" stroke="none"/>
      <circle cx="50" cy="50" r="55.5" fill="none"/>
    </g>
    <g id="_021-bmp" data-name="021-bmp" transform="translate(756.103 1941.005)">
      <path id="Trazado_930826" data-name="Trazado 930826" d="M142.352,216.505H88.058a1.272,1.272,0,0,1-1.272-1.272V158.374h56.838v56.859A1.272,1.272,0,0,1,142.352,216.505Z" transform="translate(-85.527 -131.775)" fill="#f6f1f1"/>
      <path id="Trazado_930827" data-name="Trazado 930827" d="M86.787,158.374v2.981h50.6a2.856,2.856,0,0,1,2.856,2.856v52.294h2.114a1.272,1.272,0,0,0,1.272-1.272V158.374Z" transform="translate(-85.527 -131.775)" fill="#efe7e4"/>
      <path id="Trazado_930828" data-name="Trazado 930828" d="M130.975,7.5H88.058a1.272,1.272,0,0,0-1.272,1.272V32.839h56.838v-17.4Z" transform="translate(-85.527 -6.24)" fill="#ac80dd"/>
      <path id="Trazado_930829" data-name="Trazado 930829" d="M366.955,56.836l5.036,3.347a3.051,3.051,0,0,1,1.362,2.541V72.17h3.386V54.77Z" transform="translate(-318.642 -45.571)" fill="#9d66d5"/>
      <path id="Trazado_930830" data-name="Trazado 930830" d="M349.9,7.5l2.56,9.636a1.062,1.062,0,0,0,1.311.75l8.778-2.447Z" transform="translate(-304.449 -6.24)" fill="#8659b9"/>
      <g id="Grupo_1101453" data-name="Grupo 1101453" transform="translate(9.2 40.494)">
        <path id="Trazado_930831" data-name="Trazado 930831" d="M173.8,271.451H135.281a1.218,1.218,0,0,1-1.218-1.218V242.328a1.218,1.218,0,0,1,1.218-1.218H173.8a1.218,1.218,0,0,1,1.218,1.218v27.905A1.218,1.218,0,0,1,173.8,271.451Z" transform="translate(-134.063 -241.11)" fill="#80b4fb"/>
        <path id="Trazado_930832" data-name="Trazado 930832" d="M353.417,241.111h-3.486a1.218,1.218,0,0,1,1.218,1.218v27.905a1.218,1.218,0,0,1-1.218,1.218h3.486a1.218,1.218,0,0,0,1.218-1.218V242.328A1.217,1.217,0,0,0,353.417,241.111Z" transform="translate(-313.676 -241.111)" fill="#61a2f9"/>
        <path id="Trazado_930833" data-name="Trazado 930833" d="M198.666,291.093H179.081a1.019,1.019,0,0,1-1.019-1.019v-7.229a1.019,1.019,0,0,1,1.019-1.019h19.585a1.019,1.019,0,0,1,1.019,1.019v7.229A1.019,1.019,0,0,1,198.666,291.093Z" transform="translate(-170.672 -274.988)" fill="#f6e266"/>
        <ellipse id="Elipse_11548" data-name="Elipse 11548" cx="6.279" cy="6.279" rx="6.279" ry="6.279" transform="translate(22.733 11.067)" fill="#ac80dd"/>
      </g>
      <g id="Grupo_1101454" data-name="Grupo 1101454" transform="translate(0 0)">
        <path id="Trazado_930834" data-name="Trazado 930834" d="M138.054,8.132,125.405.193a1.26,1.26,0,0,0-.67-.193H104.247a1.26,1.26,0,1,0,0,2.519h19.519l2.311,8.7a2.321,2.321,0,0,0,2.867,1.64l7.18-2V25.339H81.806V2.532a.012.012,0,0,1,.012-.012H99.211a1.26,1.26,0,1,0,0-2.519H81.818a2.534,2.534,0,0,0-2.531,2.532V83.458a2.534,2.534,0,0,0,2.531,2.532h54.294a2.535,2.535,0,0,0,2.532-2.532V77.114a1.26,1.26,0,1,0-2.519,0v6.344a.012.012,0,0,1-.012.012H81.818a.012.012,0,0,1-.012-.012v-55.6h54.319v44.22a1.26,1.26,0,0,0,2.519,0V9.2a1.26,1.26,0,0,0-.59-1.067Zm-9.593,2.247-1.688-6.353L134.3,8.751Z" transform="translate(-79.287 0)"/>
        <path id="Trazado_930835" data-name="Trazado 930835" d="M186.944,41.462l-2.08,11.523a1.26,1.26,0,0,0,2.479.447l1.335-7.4,2.2,7.443c0,.015.009.03.014.044a1.524,1.524,0,0,0,1.448,1.041h.008a1.524,1.524,0,0,0,1.445-1.056c0-.014.009-.029.013-.043l2.12-7.438,1.418,7.421a1.26,1.26,0,1,0,2.474-.473l-2.206-11.543a1.527,1.527,0,0,0-2.948-.166c0,.014-.009.029-.013.043l-2.327,8.164L189.908,41.3c0-.015-.009-.03-.014-.045a1.527,1.527,0,0,0-2.95.213Z" transform="translate(-167.116 -33.456)"/>
        <path id="Trazado_930836" data-name="Trazado 930836" d="M120.279,40.208h-3.437a1.259,1.259,0,0,0-1.26,1.26V53.3a1.259,1.259,0,0,0,1.26,1.26h.006s3.161-.014,4.032-.014a4.443,4.443,0,0,0,2.627-8.027,3.979,3.979,0,0,0-3.227-6.311Zm0,2.519a1.463,1.463,0,1,1,0,2.926l-2.178,0v-2.93Zm.6,9.3c-.508,0-1.792,0-2.778.009V48.18l2.778,0a1.926,1.926,0,1,1,0,3.851Z" transform="translate(-109.486 -33.455)"/>
        <path id="Trazado_930837" data-name="Trazado 930837" d="M289.548,53.3V49.414c.715,0,1.566-.008,2.035-.008a4.6,4.6,0,1,0,0-9.2h-3.295a1.261,1.261,0,0,0-1.26,1.26V53.3a1.26,1.26,0,1,0,2.519,0Zm2.035-10.574a2.081,2.081,0,1,1,0,4.16c-.466,0-1.306,0-2.019.008,0-.735-.01-3.4-.012-4.167Z" transform="translate(-252.139 -33.455)"/>
        <path id="Trazado_930838" data-name="Trazado 930838" d="M192.426,274.326H172.841a2.281,2.281,0,0,0-2.278,2.278v7.229a2.281,2.281,0,0,0,2.278,2.278h13.065a7.539,7.539,0,1,0,8.8-7.45V276.6A2.281,2.281,0,0,0,192.426,274.326Zm-19.344,2.519h19.1v1.817a7.562,7.562,0,0,0-5.851,4.931H173.082Zm25.383,9.249a5.02,5.02,0,1,1-5.02-5.02A5.025,5.025,0,0,1,198.465,286.094Z" transform="translate(-155.233 -228.253)"/>
        <path id="Trazado_930839" data-name="Trazado 930839" d="M140.791,233.61h-11.75a2.48,2.48,0,0,0-2.477,2.477v27.905a2.48,2.48,0,0,0,2.477,2.477h38.523a2.48,2.48,0,0,0,2.477-2.477V236.087a2.48,2.48,0,0,0-2.477-2.477H145.827a1.26,1.26,0,0,0,0,2.519h21.695V263.95H129.083V236.129h11.708a1.26,1.26,0,0,0,0-2.519Z" transform="translate(-118.624 -194.376)"/>
      </g>
    </g>
  </g>
</svg>
