<svg xmlns="http://www.w3.org/2000/svg" width="122" height="122" viewBox="0 0 122 122">
  <g id="Grupo_1100748" data-name="Grupo 1100748" transform="translate(-724.781 -1923)">
    <g id="Elipse_11514" data-name="Elipse 11514" transform="translate(735.781 1934)" fill="#ffd69b" stroke="#ffeacc" stroke-width="11">
      <circle cx="50" cy="50" r="50" stroke="none"/>
      <circle cx="50" cy="50" r="55.5" fill="none"/>
    </g>
    <g id="Grupo_1101515" data-name="Grupo 1101515" transform="translate(3033.01 11824)">
      <path id="Trazado_930826" data-name="Trazado 930826" d="M142.352,216.505H88.058a1.272,1.272,0,0,1-1.272-1.272V158.374h56.838v56.859A1.272,1.272,0,0,1,142.352,216.505Z" transform="translate(-2362.434 -10014.77)" fill="#f6f1f1"/>
      <path id="Trazado_930827" data-name="Trazado 930827" d="M86.787,158.374v2.981h50.6a2.856,2.856,0,0,1,2.856,2.856v52.294h2.114a1.272,1.272,0,0,0,1.272-1.272V158.374Z" transform="translate(-2362.435 -10014.77)" fill="#efe7e4"/>
      <path id="Trazado_930828" data-name="Trazado 930828" d="M130.975,7.5H88.058a1.272,1.272,0,0,0-1.272,1.272V32.839h56.838v-17.4Z" transform="translate(-2362.434 -9889.234)" fill="#ff7650"/>
      <path id="Trazado_930829" data-name="Trazado 930829" d="M366.955,56.836l5.036,3.347a3.051,3.051,0,0,1,1.362,2.541V72.17h3.386V54.77Z" transform="translate(-2595.549 -9928.565)" fill="#b15237"/>
      <path id="Trazado_930830" data-name="Trazado 930830" d="M349.9,7.5l2.56,9.636a1.062,1.062,0,0,0,1.311.75l8.778-2.447Z" transform="translate(-2581.356 -9889.234)" fill="#b15237"/>
      <g id="Grupo_1101453" data-name="Grupo 1101453" transform="translate(-2267.708 -9842.5)">
        <path id="Trazado_930831" data-name="Trazado 930831" d="M173.8,271.451H135.281a1.218,1.218,0,0,1-1.218-1.218V242.328a1.218,1.218,0,0,1,1.218-1.218H173.8a1.218,1.218,0,0,1,1.218,1.218v27.905A1.218,1.218,0,0,1,173.8,271.451Z" transform="translate(-134.063 -241.11)" fill="#ff9a09"/>
        <path id="Trazado_930832" data-name="Trazado 930832" d="M353.417,241.111h-3.486a1.218,1.218,0,0,1,1.218,1.218v27.905a1.218,1.218,0,0,1-1.218,1.218h3.486a1.218,1.218,0,0,0,1.218-1.218V242.328A1.217,1.217,0,0,0,353.417,241.111Z" transform="translate(-313.676 -241.111)" fill="#b16b05"/>
        <path id="Trazado_930833" data-name="Trazado 930833" d="M198.666,291.093H179.081a1.019,1.019,0,0,1-1.019-1.019v-7.229a1.019,1.019,0,0,1,1.019-1.019h19.585a1.019,1.019,0,0,1,1.019,1.019v7.229A1.019,1.019,0,0,1,198.666,291.093Z" transform="translate(-170.672 -274.988)" fill="#ff7650"/>
        <ellipse id="Elipse_11548" data-name="Elipse 11548" cx="6.279" cy="6.279" rx="6.279" ry="6.279" transform="translate(22.733 11.067)" fill="#9a9ef7"/>
      </g>
      <path id="Trazado_930834" data-name="Trazado 930834" d="M138.054,8.132,125.405.193a1.26,1.26,0,0,0-.67-.193H104.247a1.26,1.26,0,1,0,0,2.519h19.519l2.311,8.7a2.321,2.321,0,0,0,2.867,1.64l7.18-2V25.339H81.806V2.532a.012.012,0,0,1,.012-.012H99.211a1.26,1.26,0,1,0,0-2.519H81.818a2.534,2.534,0,0,0-2.531,2.532V83.458a2.534,2.534,0,0,0,2.531,2.532h54.294a2.535,2.535,0,0,0,2.532-2.532V77.114a1.26,1.26,0,1,0-2.519,0v6.344a.012.012,0,0,1-.012.012H81.818a.012.012,0,0,1-.012-.012v-55.6h54.319v44.22a1.26,1.26,0,0,0,2.519,0V9.2a1.26,1.26,0,0,0-.59-1.067Zm-9.593,2.247-1.688-6.353L134.3,8.751Z" transform="translate(-2356.194 -9882.994)"/>
      <path id="Trazado_930838" data-name="Trazado 930838" d="M192.426,274.326H172.841a2.281,2.281,0,0,0-2.278,2.278v7.229a2.281,2.281,0,0,0,2.278,2.278h13.065a7.539,7.539,0,1,0,8.8-7.45V276.6A2.281,2.281,0,0,0,192.426,274.326Zm-19.344,2.519h19.1v1.817a7.562,7.562,0,0,0-5.851,4.931H173.082Zm25.383,9.249a5.02,5.02,0,1,1-5.02-5.02A5.025,5.025,0,0,1,198.465,286.094Z" transform="translate(-2432.141 -10111.247)"/>
      <path id="Trazado_930839" data-name="Trazado 930839" d="M140.791,233.61h-11.75a2.48,2.48,0,0,0-2.477,2.477v27.905a2.48,2.48,0,0,0,2.477,2.477h38.523a2.48,2.48,0,0,0,2.477-2.477V236.087a2.48,2.48,0,0,0-2.477-2.477H145.827a1.26,1.26,0,0,0,0,2.519h21.695V263.95H129.083V236.129h11.708a1.26,1.26,0,0,0,0-2.519Z" transform="translate(-2395.531 -10077.37)"/>
      <path id="Trazado_931273" data-name="Trazado 931273" d="M10.446-11.476H4.24v3.34H9.955a1.36,1.36,0,0,1,.942.283.962.962,0,0,1,.311.747,1,1,0,0,1-.306.756,1.329,1.329,0,0,1-.946.292H4.24v3.869h6.42a1.4,1.4,0,0,1,.979.3,1.035,1.035,0,0,1,.329.8,1.014,1.014,0,0,1-.329.784,1.4,1.4,0,0,1-.979.3H3.173A1.767,1.767,0,0,1,1.879-.4a1.783,1.783,0,0,1-.394-1.29V-11.912a2.293,2.293,0,0,1,.176-.969,1.094,1.094,0,0,1,.552-.547,2.32,2.32,0,0,1,.96-.172h7.273a1.413,1.413,0,0,1,.979.292.988.988,0,0,1,.32.765,1,1,0,0,1-.32.775A1.413,1.413,0,0,1,10.446-11.476ZM18.37-2.05l-2.18-8.665v9.389a1.709,1.709,0,0,1-.348,1.169,1.177,1.177,0,0,1-.923.39,1.177,1.177,0,0,1-.909-.385,1.691,1.691,0,0,1-.353-1.174V-12.088a1.349,1.349,0,0,1,.464-1.2,2.221,2.221,0,0,1,1.252-.311h.854a3.255,3.255,0,0,1,1.118.139.939.939,0,0,1,.515.5,7.776,7.776,0,0,1,.38,1.178l1.976,7.45,1.976-7.45a7.776,7.776,0,0,1,.38-1.178.939.939,0,0,1,.515-.5A3.255,3.255,0,0,1,24.2-13.6h.854a2.221,2.221,0,0,1,1.252.311,1.349,1.349,0,0,1,.464,1.2V-1.327a1.709,1.709,0,0,1-.348,1.169,1.188,1.188,0,0,1-.932.39,1.16,1.16,0,0,1-.9-.39,1.693,1.693,0,0,1-.353-1.169v-9.389L22.062-2.05q-.213.844-.348,1.239a1.71,1.71,0,0,1-.5.719,1.447,1.447,0,0,1-1,.325A1.511,1.511,0,0,1,19.4.023a1.5,1.5,0,0,1-.52-.533,3.045,3.045,0,0,1-.292-.719Q18.481-1.624,18.37-2.05Zm18.982-9.426H31.924V-8h4.537a1.36,1.36,0,0,1,.942.283.973.973,0,0,1,.311.756.952.952,0,0,1-.315.751,1.379,1.379,0,0,1-.937.278H31.924v4.481a1.8,1.8,0,0,1-.385,1.266,1.291,1.291,0,0,1-.988.413,1.3,1.3,0,0,1-1-.417,1.807,1.807,0,0,1-.385-1.262V-11.912a2.293,2.293,0,0,1,.176-.969,1.094,1.094,0,0,1,.552-.547,2.32,2.32,0,0,1,.96-.172h6.494a1.413,1.413,0,0,1,.979.292.988.988,0,0,1,.32.765,1,1,0,0,1-.32.775A1.413,1.413,0,0,1,37.351-11.476Z" transform="translate(-2272.296 -9862.121)"/>
    </g>
  </g>
</svg>
