<svg xmlns="http://www.w3.org/2000/svg" width="295" height="66.826" viewBox="0 0 295 66.826">
  <g id="Grupo_1101278" data-name="Grupo 1101278" transform="translate(-1125 -389.174)">
    <rect id="Rect치ngulo_403067" data-name="Rect치ngulo 403067" width="295" height="33" transform="translate(1125 423)" fill="#ffd69b"/>
    <g id="Rect치ngulo_403096" data-name="Rect치ngulo 403096" transform="translate(1210 410)" fill="none" stroke="#ff9a09" stroke-width="1">
      <rect width="125" height="33" stroke="none"/>
      <rect x="0.5" y="0.5" width="124" height="32" fill="none"/>
    </g>
    <g id="Grupo_1101250" data-name="Grupo 1101250" transform="translate(1145.021 384.714)">
      <g id="Grupo_1101232" data-name="Grupo 1101232" transform="translate(0.996 11.604)">
        <g id="Grupo_1101220" data-name="Grupo 1101220" transform="translate(27.237 45.867)">
          <g id="Grupo_1101219" data-name="Grupo 1101219">
            <path id="Trazado_928993" data-name="Trazado 928993" d="M212.645,403.448h11.513v9.3H212.645Z" transform="translate(-212.645 -403.448)" fill="#a2c7f8"/>
          </g>
        </g>
        <g id="Grupo_1101221" data-name="Grupo 1101221" transform="translate(27.237 45.867)">
          <path id="Trazado_928994" data-name="Trazado 928994" d="M212.645,403.448h4.163v9.3h-4.163Z" transform="translate(-212.645 -403.448)" fill="#8db3df"/>
        </g>
        <g id="Grupo_1101222" data-name="Grupo 1101222" transform="translate(20.115 55.036)">
          <path id="Trazado_928995" data-name="Trazado 928995" d="M183.43,476.152h-23.1A1.328,1.328,0,0,1,159,474.825v-.995a1.328,1.328,0,0,1,1.328-1.328h23.1a1.328,1.328,0,0,1,1.328,1.328v.995A1.328,1.328,0,0,1,183.43,476.152Z" transform="translate(-159 -472.502)" fill="#d8ecfe"/>
        </g>
        <g id="Grupo_1101223" data-name="Grupo 1101223" transform="translate(20.115 55.036)">
          <path id="Trazado_928996" data-name="Trazado 928996" d="M165.639,474.825v-.995a1.328,1.328,0,0,1,1.328-1.328h-6.639A1.328,1.328,0,0,0,159,473.83v.995a1.328,1.328,0,0,0,1.328,1.328h6.639A1.328,1.328,0,0,1,165.639,474.825Z" transform="translate(-159 -472.502)" fill="#c4e2ff"/>
        </g>
        <g id="Grupo_1101224" data-name="Grupo 1101224" transform="translate(0 39.402)">
          <path id="Trazado_928997" data-name="Trazado 928997" d="M7.5,358.691a2.655,2.655,0,0,0,2.655,2.655H70.831a2.655,2.655,0,0,0,2.655-2.655v-3.943H7.5Z" transform="translate(-7.5 -354.748)" fill="#d8ecfe"/>
        </g>
        <g id="Grupo_1101225" data-name="Grupo 1101225" transform="translate(0 39.402)">
          <path id="Trazado_928998" data-name="Trazado 928998" d="M14.2,358.691v-3.943H7.5v3.943a2.655,2.655,0,0,0,2.655,2.655h6.7A2.655,2.655,0,0,1,14.2,358.691Z" transform="translate(-7.5 -354.748)" fill="#c4e2ff"/>
        </g>
        <g id="Grupo_1101226" data-name="Grupo 1101226" transform="translate(0 0)">
          <path id="Trazado_928999" data-name="Trazado 928999" d="M73.487,97.384H7.5V59.975a1.992,1.992,0,0,1,1.992-1.992h62a1.992,1.992,0,0,1,1.992,1.992Z" transform="translate(-7.5 -57.983)" fill="#647fa0"/>
        </g>
        <path id="Trazado_929000" data-name="Trazado 929000" d="M11.674,93.875a.664.664,0,0,1-.664-.664V62.157a.664.664,0,0,1,.664-.664H14.2V59.975A1.992,1.992,0,0,1,16.2,57.983h-6.7A1.992,1.992,0,0,0,7.5,59.975v37.41h6.7v-3.51H11.674Z" transform="translate(-7.5 -57.983)" fill="#5e6f90"/>
        <g id="Grupo_1101227" data-name="Grupo 1101227" transform="translate(3.51 3.51)">
          <path id="Trazado_929001" data-name="Trazado 929001" d="M33.936,116.137V85.083a.664.664,0,0,1,.664-.664H92.239a.664.664,0,0,1,.664.664v31.054a.664.664,0,0,1-.664.664H34.6A.664.664,0,0,1,33.936,116.137Z" transform="translate(-33.936 -84.419)" fill="#fed2a4"/>
        </g>
        <g id="Grupo_1101228" data-name="Grupo 1101228" transform="translate(3.51 3.51)">
          <path id="Trazado_929002" data-name="Trazado 929002" d="M39.5,116.137V85.083a.664.664,0,0,1,.664-.664H34.6a.664.664,0,0,0-.664.664v31.054a.664.664,0,0,0,.664.664h5.568A.664.664,0,0,1,39.5,116.137Z" transform="translate(-33.936 -84.419)" fill="#ffbd86"/>
        </g>
        <g id="Grupo_1101231" data-name="Grupo 1101231" transform="translate(20.096 15.801)">
          <g id="Grupo_1101229" data-name="Grupo 1101229" transform="translate(19.939 3.23)">
            <path id="Trazado_929003" data-name="Trazado 929003" d="M318.551,201.7l-9.516,16.482h20.343L319.863,201.7A.757.757,0,0,0,318.551,201.7Z" transform="translate(-309.035 -201.321)" fill="#0182fc"/>
          </g>
          <path id="Trazado_929004" data-name="Trazado 929004" d="M333.363,201.7a.757.757,0,0,0-1.312,0L324.6,214.6l2.067,3.58h.081l8.065-13.968Z" transform="translate(-302.596 -198.091)" fill="#0172fb"/>
          <path id="Trazado_929005" data-name="Trazado 929005" d="M171.55,177.374a.757.757,0,0,0-1.312,0l-4.1,7.107v7.384a.664.664,0,0,1-.664.664h-3.983l-2.63,4.556h24.073Z" transform="translate(-158.858 -176.996)" fill="#0593fc"/>
          <g id="Grupo_1101230" data-name="Grupo 1101230" transform="translate(0 15.511)">
            <path id="Trazado_929006" data-name="Trazado 929006" d="M165.471,293.843h-3.983l-2.63,4.556h4.135l2.644-4.579A.656.656,0,0,1,165.471,293.843Z" transform="translate(-158.858 -293.82)" fill="#0182fc"/>
          </g>
          <path id="Trazado_929007" data-name="Trazado 929007" d="M219.082,177.374a.757.757,0,0,0-1.312,0l-4.1,7.107v2.208l1.047,1.813a.885.885,0,0,0,1.532,0l1.695-2.935a1.211,1.211,0,0,1,2.1,0l1.045,1.81a.885.885,0,0,0,1.532,0l1.122-1.943Z" transform="translate(-206.39 -176.996)" fill="#fff"/>
          <path id="Trazado_929008" data-name="Trazado 929008" d="M215.243,188.913l5.25-9.093-1.411-2.445a.757.757,0,0,0-1.312,0l-4.1,7.107v2.208l1.047,1.813a.871.871,0,0,0,.53.41Z" transform="translate(-206.39 -176.996)" fill="#eaf6ff"/>
        </g>
        <path id="Trazado_929009" data-name="Trazado 929009" d="M384.452,123a3.473,3.473,0,0,0-.49.035l-2.926,2.926A3.452,3.452,0,1,0,384.452,123Z" transform="translate(-331.41 -114.364)" fill="#fe9901"/>
        <path id="Trazado_929010" data-name="Trazado 929010" d="M385.78,123.261a3.449,3.449,0,0,0-1.818-.23l-2.926,2.926a3.453,3.453,0,0,0,4.744,3.677,3.453,3.453,0,0,1,0-6.374Z" transform="translate(-331.41 -114.364)" fill="#fb8801"/>
      </g>
      <g id="Grupo_1101240" data-name="Grupo 1101240" transform="translate(8.63 19.174)">
        <g id="Grupo_1101233" data-name="Grupo 1101233">
          <path id="Trazado_929011" data-name="Trazado 929011" d="M83.411,115H66.328A1.328,1.328,0,0,0,65,116.324v4.519l.317.133H84.4l.341-.133v-4.519A1.328,1.328,0,0,0,83.411,115Z" transform="translate(-65 -114.996)" fill="#fe646f"/>
        </g>
        <g id="Grupo_1101234" data-name="Grupo 1101234">
          <path id="Trazado_929012" data-name="Trazado 929012" d="M69.16,116.324A1.328,1.328,0,0,1,70.488,115h-4.16A1.328,1.328,0,0,0,65,116.324v4.519l.317.133h4.16l-.317-.133Z" transform="translate(-65 -114.996)" fill="#fd4755"/>
        </g>
        <g id="Grupo_1101235" data-name="Grupo 1101235" transform="translate(0 5.847)">
          <path id="Trazado_929013" data-name="Trazado 929013" d="M84.075,176.953H65.664a.664.664,0,0,1-.664-.664V159.034H84.739v17.255A.664.664,0,0,1,84.075,176.953Z" transform="translate(-65 -159.034)" fill="#eaf6ff"/>
        </g>
        <g id="Grupo_1101236" data-name="Grupo 1101236" transform="translate(0 5.847)">
          <path id="Trazado_929014" data-name="Trazado 929014" d="M69.16,176.289V159.034H65v17.255a.664.664,0,0,0,.664.664h4.16A.664.664,0,0,1,69.16,176.289Z" transform="translate(-65 -159.034)" fill="#d8ecfe"/>
        </g>
        <g id="Grupo_1101239" data-name="Grupo 1101239" transform="translate(5.399 10.096)">
          <g id="Grupo_1101237" data-name="Grupo 1101237" transform="translate(5.311 5.709)">
            <circle id="Elipse_11534" data-name="Elipse 11534" cx="1.792" cy="1.792" r="1.792" fill="#0593fc"/>
          </g>
          <g id="Grupo_1101238" data-name="Grupo 1101238">
            <circle id="Elipse_11535" data-name="Elipse 11535" cx="1.792" cy="1.792" r="1.792" fill="#0593fc"/>
          </g>
        </g>
      </g>
      <g id="Grupo_1101248" data-name="Grupo 1101248" transform="translate(39.901 5.498)">
        <g id="Grupo_1101242" data-name="Grupo 1101242" transform="translate(2.5 0)">
          <g id="Grupo_1101241" data-name="Grupo 1101241">
            <path id="Trazado_929015" data-name="Trazado 929015" d="M341.145,14.51l-2.18-2.18a1.141,1.141,0,0,0-1.614,0l-18,18,.016.177,3.608,3.608.17.008,18-18a1.141,1.141,0,0,0,0-1.614Z" transform="translate(-319.354 -11.996)" fill="#8db3df"/>
          </g>
        </g>
        <g id="Grupo_1101243" data-name="Grupo 1101243" transform="translate(2.5 0)">
          <path id="Trazado_929016" data-name="Trazado 929016" d="M323.276,29.859l16.609-16.609-.919-.919a1.141,1.141,0,0,0-1.614,0l-18,18,.016.177,3.608,3.608.17.008,1.726-1.726-1.6-1.6A.664.664,0,0,1,323.276,29.859Z" transform="translate(-319.354 -11.996)" fill="#799fca"/>
        </g>
        <g id="Grupo_1101247" data-name="Grupo 1101247" transform="translate(0 3.124)">
          <g id="Grupo_1101244" data-name="Grupo 1101244" transform="translate(0 15.208)">
            <path id="Trazado_929017" data-name="Trazado 929017" d="M303.025,150.07a1.141,1.141,0,0,0-.249.375l-2.224,5.445a.342.342,0,0,0,.446.446l5.445-2.224a1.14,1.14,0,0,0,.375-.249Z" transform="translate(-300.525 -150.07)" fill="#647fa0"/>
          </g>
          <g id="Grupo_1101245" data-name="Grupo 1101245" transform="translate(15.605 0)">
            <path id="Trazado_929018" data-name="Trazado 929018" d="M0,0H2.974V5.365H0Z" transform="translate(0 2.102) rotate(-45)" fill="#c4e2ff"/>
          </g>
          <g id="Grupo_1101246" data-name="Grupo 1101246" transform="translate(15.605 0)">
            <path id="Trazado_929019" data-name="Trazado 929019" d="M0,0H2.974V2.441H0Z" transform="translate(0 2.102) rotate(-45)" fill="#b3dafe"/>
          </g>
        </g>
      </g>
      <g id="Grupo_1101249" data-name="Grupo 1101249" transform="translate(0 4.504)">
        <path id="Trazado_929020" data-name="Trazado 929020" d="M231.5,371.49a1,1,0,1,0,0,1.992h4.78a1,1,0,1,0,0-1.992Z" transform="translate(-199.897 -322.765)"/>
        <path id="Trazado_929021" data-name="Trazado 929021" d="M83.5,230.318h6.582a2.784,2.784,0,0,0,5.2,0H96.6a1,1,0,1,0,0-1.992H95.28a2.784,2.784,0,0,0-5.2,0H83.5a1,1,0,1,0,0,1.992Zm9.183-1.792a.8.8,0,1,1-.8.8A.8.8,0,0,1,92.679,228.526Z" transform="translate(-71.546 -197.055)"/>
        <path id="Trazado_929022" data-name="Trazado 929022" d="M83.5,187.318h1.271a2.784,2.784,0,0,0,5.2,0H96.6a1,1,0,0,0,0-1.992H89.969a2.784,2.784,0,0,0-5.2,0H83.5a1,1,0,1,0,0,1.992Zm3.872-1.792a.8.8,0,1,1-.8.8A.8.8,0,0,1,87.368,185.526Z" transform="translate(-71.546 -159.764)"/>
        <circle id="Elipse_11536" data-name="Elipse 11536" cx="0.996" cy="0.996" r="0.996" transform="translate(24.253 16.401)"/>
        <circle id="Elipse_11537" data-name="Elipse 11537" cx="0.996" cy="0.996" r="0.996" transform="translate(21.509 16.401)"/>
        <circle id="Elipse_11538" data-name="Elipse 11538" cx="0.996" cy="0.996" r="0.996" transform="translate(18.765 16.401)"/>
        <path id="Trazado_929023" data-name="Trazado 929023" d="M64.991,10.608h-.373l.278-.278a2.139,2.139,0,0,0,0-3.022l-2.18-2.18a2.14,2.14,0,0,0-3.022,0l-5.48,5.48H2.987A2.991,2.991,0,0,0,0,13.6V54.948A3.655,3.655,0,0,0,3.651,58.6H27.237v7.044h-4.8a2.326,2.326,0,0,0-2.323,2.323v.995a2.326,2.326,0,0,0,2.323,2.323h23.1a2.326,2.326,0,0,0,2.323-2.323v-.995a2.326,2.326,0,0,0-2.323-2.323h-4.8V58.6H51.382a1,1,0,0,0,0-1.992H3.651a1.661,1.661,0,0,1-1.66-1.66V52h64v2.947a1.661,1.661,0,0,1-1.66,1.66h-8.3a1,1,0,1,0,0,1.992h8.3a3.655,3.655,0,0,0,3.651-3.651V13.6a2.991,2.991,0,0,0-2.987-2.987ZM45.54,67.635a.332.332,0,0,1,.332.332v.995a.332.332,0,0,1-.332.332h-23.1a.332.332,0,0,1-.332-.332v-.995a.332.332,0,0,1,.332-.332ZM29.229,58.6H38.75v7.044H29.229ZM61.1,6.537a.146.146,0,0,1,.206,0l2.18,2.18a.145.145,0,0,1,0,.206L61.408,11,59.023,8.617Zm-3.488,3.488L60,12.41l-.695.695L56.92,10.719Zm-2.1,2.1L57.9,14.513,46.113,26.3l-2.385-2.385Zm-1.474,9.1a2.456,2.456,0,1,1-2.456,2.456c0-.016,0-.031,0-.047l2.407-2.407Zm-9.653,6.152-2.947,1.2,1.2-2.947Zm21.6,22.626h-64V13.6a1,1,0,0,1,1-1H52.223l-1.518,1.518H16.862a1,1,0,0,0,0,1.992H48.714L41.69,23.134a2.124,2.124,0,0,0-.461.7l-2.224,5.446a1.338,1.338,0,0,0,1.745,1.745L46.2,28.8a2.124,2.124,0,0,0,.678-.445L49.9,25.322a4.447,4.447,0,1,0,5.769-5.768l3.444-3.444h3.361V46.5h-.528L58.34,40.25a1,1,0,0,0-1.725,1L59.649,46.5H45.739l-1.492-2.584L51.2,31.869l3.09,5.352a1,1,0,0,0,1.725-1l-3.3-5.709a1.753,1.753,0,0,0-3.037,0L43.1,41.924,34.646,27.286a1.753,1.753,0,0,0-3.037,0l-2.245,3.889V20.5a2.326,2.326,0,0,0-2.323-2.323H9.958A2.326,2.326,0,0,0,7.634,20.5V42.276a1.661,1.661,0,0,0,1.66,1.66H22L20.517,46.5H5.5V16.11h6.713a1,1,0,0,0,0-1.992H5.17a1.661,1.661,0,0,0-1.66,1.66V46.832a1.661,1.661,0,0,0,1.66,1.66H62.809a1.661,1.661,0,0,0,1.66-1.66V15.778a1.661,1.661,0,0,0-1.66-1.66h-1.7L62.626,12.6h2.365a1,1,0,0,1,1,1ZM27.373,26.016V41.944H9.626V26.016ZM9.626,24.025V20.5a.332.332,0,0,1,.332-.332H27.041a.332.332,0,0,1,.332.332v3.523ZM24.3,43.935H27.7a1.661,1.661,0,0,0,1.66-1.66V40.166a1.883,1.883,0,0,0,.817.184,1.861,1.861,0,0,0,1.628-.94L33.5,36.475a.215.215,0,0,1,.372,0l1.045,1.81a1.88,1.88,0,0,0,3.257,0l.259-.449,5,8.664H22.816Zm5.067-7.1V35.158l3.764-6.519,4.159,7.2-.738,1.278L35.6,35.479a2.207,2.207,0,0,0-3.822,0l-1.6,2.768Z" transform="translate(0 -4.504)"/>
      </g>
    </g>
    <g id="Grupo_1101276" data-name="Grupo 1101276" transform="translate(1326.5 366.939)">
      <g id="Grupo_1101257" data-name="Grupo 1101257" transform="translate(1.069 23.347)">
        <path id="Trazado_929024" data-name="Trazado 929024" d="M212.645,386.673h12.363v9.7H212.645Z" transform="translate(-183.396 -335.788)" fill="#8db3df"/>
        <path id="Trazado_929025" data-name="Trazado 929025" d="M212.645,386.673h5.938v9.7h-5.938Z" transform="translate(-183.396 -335.788)" fill="#799fca"/>
        <g id="Grupo_1101251" data-name="Grupo 1101251" transform="translate(21.6 60.587)">
          <path id="Trazado_929026" data-name="Trazado 929026" d="M185.234,458.647H160.426A1.426,1.426,0,0,1,159,457.221v-1.068a1.426,1.426,0,0,1,1.426-1.426h24.808a1.426,1.426,0,0,1,1.426,1.426v1.068A1.426,1.426,0,0,1,185.234,458.647Z" transform="translate(-159 -454.727)" fill="#a2c7f8"/>
        </g>
        <g id="Grupo_1101252" data-name="Grupo 1101252" transform="translate(21.6 60.587)">
          <path id="Trazado_929027" data-name="Trazado 929027" d="M166.129,457.221v-1.068a1.426,1.426,0,0,1,1.426-1.426h-7.129A1.426,1.426,0,0,0,159,456.153v1.068a1.426,1.426,0,0,0,1.426,1.426h7.129A1.426,1.426,0,0,1,166.129,457.221Z" transform="translate(-159 -454.727)" fill="#8db3df"/>
        </g>
        <g id="Grupo_1101253" data-name="Grupo 1101253" transform="translate(0 43.799)">
          <path id="Trazado_929028" data-name="Trazado 929028" d="M7.5,341.208a2.851,2.851,0,0,0,2.852,2.852H75.509a2.851,2.851,0,0,0,2.852-2.852v-4.235H7.5Z" transform="translate(-7.5 -336.973)" fill="#a2c7f8"/>
        </g>
        <g id="Grupo_1101254" data-name="Grupo 1101254" transform="translate(0 43.799)">
          <path id="Trazado_929029" data-name="Trazado 929029" d="M14.7,341.208v-4.235H7.5v4.235a2.851,2.851,0,0,0,2.852,2.852h7.2A2.851,2.851,0,0,1,14.7,341.208Z" transform="translate(-7.5 -336.973)" fill="#8db3df"/>
        </g>
        <g id="Grupo_1101255" data-name="Grupo 1101255" transform="translate(0 0)">
          <path id="Trazado_929030" data-name="Trazado 929030" d="M78.36,73.578H7.5V31.918a2.139,2.139,0,0,1,2.139-2.139H76.222a2.139,2.139,0,0,1,2.139,2.139Z" transform="translate(-7.5 -29.779)" fill="#647fa0"/>
        </g>
        <path id="Trazado_929031" data-name="Trazado 929031" d="M11.982,69.808a.713.713,0,0,1-.713-.713V34.261a.713.713,0,0,1,.713-.713H14.7V31.918a2.139,2.139,0,0,1,2.139-2.139h-7.2A2.139,2.139,0,0,0,7.5,31.918v41.66h7.2V69.808Z" transform="translate(-7.5 -29.779)" fill="#5e6f90"/>
        <g id="Grupo_1101256" data-name="Grupo 1101256" transform="translate(3.769 3.769)">
          <path id="Trazado_929032" data-name="Trazado 929032" d="M33.936,91.762V56.928a.713.713,0,0,1,.713-.713h61.9a.713.713,0,0,1,.713.713V91.762a.713.713,0,0,1-.713.713h-61.9A.713.713,0,0,1,33.936,91.762Z" transform="translate(-33.936 -56.215)" fill="#c4e2ff"/>
        </g>
        <path id="Trazado_929033" data-name="Trazado 929033" d="M41.769,91.762v-3.04H38.294a.428.428,0,0,1-.428-.428V60.635a.428.428,0,0,1,.428-.428h3.475V56.928a.713.713,0,0,1,.713-.713H34.649a.713.713,0,0,0-.713.713V91.762a.713.713,0,0,0,.713.713h7.833A.713.713,0,0,1,41.769,91.762Z" transform="translate(-30.167 -52.446)" fill="#b3dafe"/>
      </g>
      <g id="Grupo_1101274" data-name="Grupo 1101274" transform="translate(8.768 31.109)">
        <g id="Grupo_1101258" data-name="Grupo 1101258" transform="translate(11.763 0)">
          <path id="Trazado_929034" data-name="Trazado 929034" d="M170.59,112.73H144.428A.428.428,0,0,1,144,112.3V84.643a.428.428,0,0,1,.428-.428H170.59a.428.428,0,0,1,.428.428V112.3A.428.428,0,0,1,170.59,112.73Z" transform="translate(-144 -84.215)" fill="#fff"/>
        </g>
        <path id="Trazado_929035" data-name="Trazado 929035" d="M149.988,112.3V101.588h-.214a.428.428,0,0,1-.428-.428v-8.64a.428.428,0,0,1,.428-.428h.214v-7.45a.428.428,0,0,1,.428-.428h-5.988a.428.428,0,0,0-.428.428V112.3a.428.428,0,0,0,.428.428h5.988A.428.428,0,0,1,149.988,112.3Z" transform="translate(-132.237 -84.215)" fill="#eaf6ff"/>
        <g id="Grupo_1101265" data-name="Grupo 1101265" transform="translate(43.058 0)">
          <g id="Grupo_1101259" data-name="Grupo 1101259" transform="translate(0 19.961)">
            <path id="Trazado_929036" data-name="Trazado 929036" d="M363.928,224.215h11.549a.428.428,0,0,1,.428.428v7.7a.428.428,0,0,1-.428.428H363.928a.428.428,0,0,1-.428-.428v-7.7A.428.428,0,0,1,363.928,224.215Z" transform="translate(-363.5 -224.215)" fill="#fe646f"/>
          </g>
          <g id="Grupo_1101260" data-name="Grupo 1101260" transform="translate(0 19.961)">
            <path id="Trazado_929037" data-name="Trazado 929037" d="M367.849,232.342v-7.7a.428.428,0,0,1,.428-.428h-4.349a.428.428,0,0,0-.428.428v7.7a.428.428,0,0,0,.428.428h4.349A.428.428,0,0,1,367.849,232.342Z" transform="translate(-363.5 -224.215)" fill="#fd4755"/>
          </g>
          <g id="Grupo_1101261" data-name="Grupo 1101261" transform="translate(0 8.84)">
            <path id="Trazado_929038" data-name="Trazado 929038" d="M363.928,146.215h11.549a.428.428,0,0,1,.428.428v6.273a.428.428,0,0,1-.428.428H363.928a.428.428,0,0,1-.428-.428v-6.273A.428.428,0,0,1,363.928,146.215Z" transform="translate(-363.5 -146.215)" fill="#fed402"/>
          </g>
          <g id="Grupo_1101262" data-name="Grupo 1101262" transform="translate(0 8.84)">
            <path id="Trazado_929039" data-name="Trazado 929039" d="M367.849,152.916v-6.273a.428.428,0,0,1,.428-.428h-4.349a.428.428,0,0,0-.428.428v6.273a.428.428,0,0,0,.428.428h4.349A.428.428,0,0,1,367.849,152.916Z" transform="translate(-363.5 -146.215)" fill="#fac600"/>
          </g>
          <g id="Grupo_1101263" data-name="Grupo 1101263">
            <path id="Trazado_929040" data-name="Trazado 929040" d="M363.928,84.215h11.549a.428.428,0,0,1,.428.428v3.992a.428.428,0,0,1-.428.428H363.928a.428.428,0,0,1-.428-.428V84.643A.428.428,0,0,1,363.928,84.215Z" transform="translate(-363.5 -84.215)" fill="#46cc8d"/>
          </g>
          <g id="Grupo_1101264" data-name="Grupo 1101264">
            <path id="Trazado_929041" data-name="Trazado 929041" d="M367.849,88.635V84.643a.428.428,0,0,1,.428-.428h-4.349a.428.428,0,0,0-.428.428v3.992a.428.428,0,0,0,.428.428h4.349A.428.428,0,0,1,367.849,88.635Z" transform="translate(-363.5 -84.215)" fill="#08b865"/>
          </g>
        </g>
        <g id="Grupo_1101269" data-name="Grupo 1101269" transform="translate(17.109 7.878)">
          <path id="Trazado_929042" data-name="Trazado 929042" d="M186.564,144.943a.428.428,0,0,1,.37-.642H191v-4.4a.428.428,0,0,0-.428-.428h-8.64a.428.428,0,0,0-.428.428v8.64a.428.428,0,0,0,.428.428h6.959Z" transform="translate(-181.5 -139.47)" fill="#fed402"/>
          <g id="Grupo_1101266" data-name="Grupo 1101266">
            <path id="Trazado_929043" data-name="Trazado 929043" d="M184.48,148.537V139.9a.428.428,0,0,1,.428-.428h-2.98a.428.428,0,0,0-.428.428v8.64a.428.428,0,0,0,.428.428h2.98A.428.428,0,0,1,184.48,148.537Z" transform="translate(-181.5 -139.47)" fill="#fac600"/>
          </g>
          <g id="Grupo_1101267" data-name="Grupo 1101267" transform="translate(5.007 4.831)">
            <path id="Trazado_929044" data-name="Trazado 929044" d="M222.489,182.783l5.075-8.79a.428.428,0,0,0-.37-.642H217.044a.428.428,0,0,0-.37.642l5.075,8.79A.428.428,0,0,0,222.489,182.783Z" transform="translate(-216.616 -173.352)" fill="#0593fc"/>
          </g>
          <g id="Grupo_1101268" data-name="Grupo 1101268" transform="translate(5.006 4.831)">
            <path id="Trazado_929045" data-name="Trazado 929045" d="M220.577,173.995a.428.428,0,0,1,.37-.642h-3.9a.428.428,0,0,0-.37.642l5.075,8.789a.428.428,0,0,0,.741,0l1.582-2.74Z" transform="translate(-216.615 -173.353)" fill="#0182fc"/>
          </g>
        </g>
        <g id="Grupo_1101273" data-name="Grupo 1101273" transform="translate(0 0)">
          <g id="Grupo_1101270" data-name="Grupo 1101270">
            <path id="Trazado_929046" data-name="Trazado 929046" d="M68.771,112.73H61.928a.428.428,0,0,1-.428-.428V84.643a.428.428,0,0,1,.428-.428h6.844a.428.428,0,0,1,.428.428V112.3A.428.428,0,0,1,68.771,112.73Z" transform="translate(-61.5 -84.215)" fill="#0593fc"/>
          </g>
          <g id="Grupo_1101271" data-name="Grupo 1101271">
            <path id="Trazado_929047" data-name="Trazado 929047" d="M64.423,88.635V84.643a.428.428,0,0,1,.428-.428H61.928a.428.428,0,0,0-.428.428v3.992Z" transform="translate(-61.5 -84.215)" fill="#0182fc"/>
          </g>
          <g id="Grupo_1101272" data-name="Grupo 1101272" transform="translate(0 4.42)">
            <path id="Trazado_929048" data-name="Trazado 929048" d="M68.771,139.31H61.928a.428.428,0,0,1-.428-.428V115.215h7.7v23.668A.428.428,0,0,1,68.771,139.31Z" transform="translate(-61.5 -115.215)" fill="#fff"/>
          </g>
        </g>
      </g>
      <g id="Grupo_1101275" data-name="Grupo 1101275" transform="translate(0 22.278)">
        <path id="Trazado_929049" data-name="Trazado 929049" d="M231.569,353.715a1.069,1.069,0,1,0,0,2.139H236.7a1.069,1.069,0,1,0,0-2.139Z" transform="translate(-197.636 -306.46)"/>
        <path id="Trazado_929050" data-name="Trazado 929050" d="M69.791,22.278H3.208A3.212,3.212,0,0,0,0,25.486V71.381A3.925,3.925,0,0,0,3.921,75.3H29.249v7.564H24.1a2.5,2.5,0,0,0-2.5,2.5v1.068a2.5,2.5,0,0,0,2.5,2.5H48.9a2.5,2.5,0,0,0,2.5-2.5V85.361a2.5,2.5,0,0,0-2.5-2.5H43.75V81.55a1.069,1.069,0,1,0-2.139,0v1.316H31.387V75.3H41.612V76.56a1.069,1.069,0,1,0,2.139,0V75.3H56.032a1.069,1.069,0,0,0,0-2.139H3.921a1.784,1.784,0,0,1-1.782-1.782V68.215H70.86v3.165a1.784,1.784,0,0,1-1.782,1.782H61.023a1.069,1.069,0,0,0,0,2.139h8.056A3.925,3.925,0,0,0,73,71.381V25.486a3.212,3.212,0,0,0-3.208-3.208ZM48.9,85a.357.357,0,0,1,.356.356v1.068a.357.357,0,0,1-.356.356H24.1a.357.357,0,0,1-.356-.356V85.361A.357.357,0,0,1,24.1,85ZM70.86,66.077H2.139V25.486a1.07,1.07,0,0,1,1.069-1.069H69.791a1.07,1.07,0,0,1,1.069,1.069Z" transform="translate(0 -22.278)"/>
        <path id="Trazado_929051" data-name="Trazado 929051" d="M90.115,48.715h-61.9A1.784,1.784,0,0,0,26.437,50.5V85.332a1.784,1.784,0,0,0,1.782,1.782h61.9A1.784,1.784,0,0,0,91.9,85.332V50.5A1.784,1.784,0,0,0,90.115,48.715Zm-.356,36.26H28.576V50.854H89.759V84.975Z" transform="translate(-22.668 -44.946)"/>
        <path id="Trazado_929052" data-name="Trazado 929052" d="M138,107.369H164.16a1.5,1.5,0,0,0,1.5-1.5V87.306a1.069,1.069,0,1,0-2.139,0V105.23h-24.88V78.854h24.88v3.462a1.069,1.069,0,1,0,2.139,0v-4.1a1.5,1.5,0,0,0-1.5-1.5H138a1.5,1.5,0,0,0-1.5,1.5v27.66A1.5,1.5,0,0,0,138,107.369Z" transform="translate(-117.038 -68.954)"/>
        <path id="Trazado_929053" data-name="Trazado 929053" d="M357.5,227.408h11.549a1.5,1.5,0,0,0,1.5-1.5v-7.7a1.5,1.5,0,0,0-1.5-1.5H357.5a1.5,1.5,0,0,0-1.5,1.5v7.7A1.5,1.5,0,0,0,357.5,227.408Zm.642-8.555H368.4v6.416H358.139Z" transform="translate(-305.243 -188.993)"/>
        <path id="Trazado_929054" data-name="Trazado 929054" d="M357.5,147.982h11.549a1.5,1.5,0,0,0,1.5-1.5v-6.273a1.5,1.5,0,0,0-1.5-1.5H357.5a1.5,1.5,0,0,0-1.5,1.5v6.273A1.5,1.5,0,0,0,357.5,147.982Zm.642-7.129H368.4v4.99H358.139Z" transform="translate(-305.243 -122.114)"/>
        <path id="Trazado_929055" data-name="Trazado 929055" d="M357.5,83.7h11.549a1.5,1.5,0,0,0,1.5-1.5V78.212a1.5,1.5,0,0,0-1.5-1.5H357.5a1.5,1.5,0,0,0-1.5,1.5V82.2A1.5,1.5,0,0,0,357.5,83.7Zm.642-4.848H368.4v2.709H358.139Z" transform="translate(-305.243 -68.954)"/>
        <path id="Trazado_929056" data-name="Trazado 929056" d="M184.137,131.97H175.5a1.5,1.5,0,0,0-1.5,1.5v8.64a1.5,1.5,0,0,0,1.5,1.5h6.342l2.443,4.232a1.5,1.5,0,0,0,1.3.748h0a1.5,1.5,0,0,0,1.3-.749l5.075-8.79a1.5,1.5,0,0,0-1.3-2.245h-5.02v-3.334A1.5,1.5,0,0,0,184.137,131.97Zm-8,9.5v-7.356H183.5V136.8H180.5a1.5,1.5,0,0,0-1.3,2.246l1.4,2.419h-4.465Zm8.885,5.3Zm4.519-7.827-3.963,6.865-3.963-6.865Z" transform="translate(-149.192 -116.331)"/>
        <path id="Trazado_929057" data-name="Trazado 929057" d="M55.5,107.369h6.844a1.5,1.5,0,0,0,1.5-1.5V78.212a1.5,1.5,0,0,0-1.5-1.5H55.5a1.5,1.5,0,0,0-1.5,1.5v27.66A1.5,1.5,0,0,0,55.5,107.369Zm6.2-2.139H59.988v-2H61.7Zm0-4.135H59.988V99.242H61.7Zm0-3.992H59.988V95.25H61.7Zm0-3.992H59.988V91.258H61.7Zm0-3.992H59.988V87.266H61.7Zm0-3.992H59.988V83.274H61.7Zm-5.56-6.273H61.7v2.281h-5.56Zm0,4.42H57.85v1.853H56.139Zm0,3.992H57.85v1.853H56.139Zm0,3.992H57.85v1.853H56.139Zm0,3.992H57.85V97.1H56.139Zm0,3.992H57.85V101.1H56.139Zm0,3.992H57.85v2H56.139Z" transform="translate(-46.301 -68.954)"/>
      </g>
    </g>
    <g id="Grupo_1101277" data-name="Grupo 1101277" transform="translate(1240.221 389.175)">
      <path id="Trazado_929058" data-name="Trazado 929058" d="M176.063,328.379l-8.336,8.336a1.8,1.8,0,1,1-2.547-2.547l.6-.6a3.947,3.947,0,1,0-5.581-5.581l-1.114,1.114a6.007,6.007,0,0,1-8.5-8.5l2.561-2.561a.859.859,0,0,0-1.215-1.215l-2.561,2.561A7.726,7.726,0,1,0,160.3,330.314l1.114-1.114a2.228,2.228,0,0,1,3.151,3.151l-.6.6a3.519,3.519,0,1,0,4.977,4.977l8.336-8.336a.859.859,0,0,0-1.215-1.215Z" transform="translate(-126.916 -280.308)" fill="#6b6dac"/>
      <path id="Trazado_929059" data-name="Trazado 929059" d="M14.694,277.8l-10,10a3.134,3.134,0,0,0,4.432,4.432l10-10a3.134,3.134,0,1,0-4.432-4.432Zm3.216,3.216-10,10a1.415,1.415,0,0,1-2-2l10-10a1.415,1.415,0,0,1,2,2Z" transform="translate(0 -245.161)" fill="#6b6dac"/>
      <path id="Trazado_929060" data-name="Trazado 929060" d="M150.472,12.322a7.782,7.782,0,1,0-14.979,2.958A7.714,7.714,0,0,0,134,16.441l-3.4,3.4a2.3,2.3,0,0,1-3.256-3.256l3.4-3.4A7.726,7.726,0,1,0,119.823,2.259L106.447,15.634a7.742,7.742,0,1,0,11.44,10.411,2.3,2.3,0,1,1,3.256,3.256l-4.379,4.379A.859.859,0,1,0,117.98,34.9l4.379-4.379a4.021,4.021,0,1,0-5.687-5.687,6.1,6.1,0,0,1-9.01.514,6.014,6.014,0,0,1,0-8.5L121.038,3.474a6.007,6.007,0,1,1,8.5,8.5l-3.4,3.4a4.021,4.021,0,0,0,5.687,5.687l3.4-3.4a6.048,6.048,0,0,1,1.1-.87,7.85,7.85,0,0,0,8.749,2.945,6.014,6.014,0,0,1-1.354,6.421L131.436,38.431a3.947,3.947,0,1,0,5.581,5.581l2.514-2.514a1.8,1.8,0,0,1,2.547,2.547L140.9,45.224a.859.859,0,1,0,1.215,1.215l1.179-1.179a3.519,3.519,0,1,0-4.977-4.977L135.8,42.8a2.228,2.228,0,0,1-3.151-3.151L144.93,27.366a7.737,7.737,0,0,0,1.709-8.343,7.784,7.784,0,0,0,3.833-6.7Zm-7.782,6.064a6.054,6.054,0,0,1-4.745-2.294,6.059,6.059,0,0,1,6.249,2.105A6.059,6.059,0,0,1,142.689,18.386Zm3.134-.874a7.819,7.819,0,0,0-8.765-2.945,6.063,6.063,0,1,1,8.765,2.945Z" transform="translate(-88.906)" fill="#6b6dac"/>
      <path id="Trazado_929061" data-name="Trazado 929061" d="M35.412,46.621a3.5,3.5,0,1,0-3.5-3.5A3.5,3.5,0,0,0,35.412,46.621Zm0-5.273a1.777,1.777,0,1,1-1.777,1.777A1.779,1.779,0,0,1,35.412,41.348Z" transform="translate(-24.913 -35.09)" fill="#6b6dac"/>
    </g>
  </g>
</svg>
